{
.appVersion = "3220";
copyright = "Copyright 2023 The Hedvig Letters Project Authors (https://github.com/KanonFoundry/HedvigLetters)";
customParameters = (
{
name = "Use Typo Metrics";
value = 1;
},
{
name = fsType;
value = (
);
},
{
name = vendorID;
value = KNON;
},
{
name = licenseURL;
value = "https://scripts.sil.org/OFL";
},
{
name = license;
value = "This Font Software is licensed under the SIL Open Font License, Version 1.1. This license is available with a FAQ at: https://scripts.sil.org/OFL";
},
{
name = trademark;
value = "Hedvig is a trademark of Hedvig AB (https://www.hedvig.com/se-en)";
}
);
date = "2021-12-21 15:12:18 +0000";
designer = "Alexander Örn & Tor Weibull";
designerURL = "http://www.kanonfoundry.com";
familyName = "Hedvig Letters Big";
featurePrefixes = (
{
automatic = 1;
code = "languagesystem DFLT dflt;\012\012languagesystem latn dflt;\012languagesystem latn AZE;\012languagesystem latn CRT;\012languagesystem latn KAZ;\012languagesystem latn TAT;\012languagesystem latn TRK;\012languagesystem latn ROM;\012languagesystem latn MOL;\012languagesystem latn NLD;\012languagesystem latn CAT;\012";
name = Languagesystems;
}
);
features = (
{
automatic = 1;
code = "feature locl;\012feature subs;\012feature sinf;\012feature sups;\012feature numr;\012feature dnom;\012feature frac;\012feature ordn;\012feature calt;\012feature ss01;\012feature case;\012";
name = aalt;
},
{
automatic = 1;
code = "lookup ccmp_Other_1 {\012	@CombiningTopAccents = [acutecomb brevecomb caroncomb circumflexcomb commaturnedabovecomb dieresiscomb dotaccentcomb gravecomb hungarumlautcomb macroncomb ringcomb tildecomb];\012	lookupflag UseMarkFilteringSet @CombiningTopAccents;\012	sub i' @CombiningTopAccents by idotless;\012	sub j' @CombiningTopAccents by jdotless;\012} ccmp_Other_1;\012";
name = ccmp;
},
{
automatic = 1;

glyphs = (
{
color = 6;
glyphname = A;
lastChange = "2023-09-29 09:16:23 +0000";
layers = (
{
anchors = (
{
name = bottom;
position = "{355, 0}";
},
{
name = ogonek;
position = "{652, 0}";
},
{
name = top;
position = "{353, 700}";
}
);
layerId = m004;
paths = (
{
closed = 1;
nodes = (
"226 0 LINE",
"226 30 LINE",
"197 33 LINE SMOOTH",
"146 38 OFFCURVE",
"133 63 OFFCURVE",
"158 127 CURVE SMOOTH",
"347 611 LINE",
"316 611 LINE",
"512 115 LINE SMOOTH",
"532 65 OFFCURVE",
"520 40 OFFCURVE",
"478 35 CURVE SMOOTH",
"437 30 LINE",
"437 0 LINE",
"722 0 LINE",
"722 30 LINE",
"658 36 OFFCURVE",
"634 60 OFFCURVE",
"610 121 CURVE SMOOTH",
"376 705 LINE",
"343 705 LINE",
"110 135 LINE SMOOTH",
"76 51 OFFCURVE",
"64 41 OFFCURVE",
"-12 30 CURVE",
"-12 0 LINE"
);
},
{
closed = 1;
nodes = (
"501 271 LINE",
"501 311 LINE",
"199 311 LINE",
"199 271 LINE"
);
}
);
width = 715;
}
);
leftKerningGroup = A;
rightKerningGroup = A;
unicode = 0041;
},
{
color = 6;
glyphname = AE;
lastChange = "2023-09-29 09:16:23 +0000";
layers = (
{
anchors = (
{
name = bottom;
position = "{357, 0}";
},
{
name = top;
position = "{357, 700}";
}
);
layerId = m004;
paths = (
{
closed = 1;
nodes = (
"909 191 LINE",
"878 191 LINE",
"848 70 OFFCURVE",
"814 37 OFFCURVE",
"703 37 CURVE SMOOTH",
"597 37 OFFCURVE",
"577 50 OFFCURVE",
"577 102 CURVE SMOOTH",
"577 337 LINE",
"786 337 LINE SMOOTH",
"832 337 OFFCURVE",
"852 321 OFFCURVE",
"853 283 CURVE SMOOTH",
"854 249 LINE",
"884 249 LINE",
"884 467 LINE",
"854 467 LINE",
"852 441 LINE SMOOTH",
"848 392 OFFCURVE",
"832 377 OFFCURVE",
"786 377 CURVE SMOOTH",
"577 377 LINE",
"577 660 LINE",
"733 660 LINE SMOOTH",
"816 660 OFFCURVE",
"848 632 OFFCURVE",
"867 544 CURVE",
"897 544 LINE",
"882 706 LINE",
"844 702 OFFCURVE",
"805 700 OFFCURVE",
"741 700 CURVE SMOOTH",
"335 700 LINE",
"335 670 LINE",
"376 666 LINE SMOOTH",
"416 662 OFFCURVE",
"435 652 OFFCURVE",
"410 611 CURVE SMOOTH",
"117 135 LINE SMOOTH",
"71 60 OFFCURVE",
"51 41 OFFCURVE",
"-15 30 CURVE",
"-15 0 LINE",
"227 0 LINE",
"227 30 LINE",
"191 33 LINE SMOOTH",
"140 37 OFFCURVE",
"135 69 OFFCURVE",
"169 127 CURVE SMOOTH",
"293 337 LINE",
"485 337 LINE",
"485 102 LINE SMOOTH",
"485 55 OFFCURVE",
"470 38 OFFCURVE",
"426 34 CURVE SMOOTH",
"385 30 LINE",
"385 0 LINE",
"739 0 LINE SMOOTH",
"779 0 OFFCURVE",
"834 -2 OFFCURVE",
"883 -6 CURVE"
);
},
{
closed = 1;
nodes = (
"433 574 LINE SMOOTH",
"452 606 OFFCURVE",
"467 634 OFFCURVE",
"480 661 CURVE",
"485 661 LINE",
"485 377 LINE",
"317 377 LINE"
);
}
);
width = 955;
}
);
rightKerningGroup = E;
unicode = 00C6;
},
{
color = 6;
glyphname = B;
lastChange = "2023-09-29 09:16:23 +0000";
layers = (
{
anchors = (
{
name = bottom;
position = "{318, 0}";
},
{
name = top;
position = "{318, 700}";
}
);
layerId = m004;
paths = (
{
closed = 1;
nodes = (
"332 0 LINE SMOOTH",
"525 0 OFFCURVE",
"596 89 OFFCURVE",
"596 195 CURVE SMOOTH",
"596 289 OFFCURVE",
"542 346 OFFCURVE",
"414 361 CURVE",
"529 387 OFFCURVE",
"586 442 OFFCURVE",
"586 531 CURVE SMOOTH",
"586 640 OFFCURVE",
"504 700 OFFCURVE",
"327 700 CURVE SMOOTH",
"30 700 LINE",
"30 670 LINE",
"71 666 LINE SMOOTH",
"115 662 OFFCURVE",
"130 645 OFFCURVE",
"130 598 CURVE SMOOTH",
"130 102 LINE SMOOTH",
"130 55 OFFCURVE",
"115 38 OFFCURVE",
"71 34 CURVE SMOOTH",
"30 30 LINE",
"30 0 LINE"
);
},
{
closed = 1;
nodes = (
"245 40 OFFCURVE",
"224 51 OFFCURVE",
"224 78 CURVE SMOOTH",
"224 335 LINE",
"331 335 LINE SMOOTH",
"440 335 OFFCURVE",
"498 285 OFFCURVE",
"498 193 CURVE SMOOTH",
"498 96 OFFCURVE",
"434 40 OFFCURVE",
"315 40 CURVE SMOOTH"
);
},
{
closed = 1;
nodes = (
"224 629 LINE SMOOTH",
"224 650 OFFCURVE",
"258 660 OFFCURVE",
"317 660 CURVE SMOOTH",
"436 660 OFFCURVE",
"488 610 OFFCURVE",
"488 528 CURVE SMOOTH",
"488 431 OFFCURVE",
"421 375 OFFCURVE",
"333 375 CURVE SMOOTH",
"224 375 LINE"
);
}
);
width = 641;
}
);
leftKerningGroup = H;
unicode = 0042;
},
{
color = 6;
glyphname = C;
lastChange = "2023-09-29 09:16:23 +0000";
layers = (
{
anchors = (
{
name = bottom;
position = "{399, 0}";
},
{
name = top;
position = "{389, 700}";
}
);
layerId = m004;
paths = (
{
closed = 1;
nodes = (
"194 710 OFFCURVE",
"39 543 OFFCURVE",
"39 340 CURVE SMOOTH",
"39 138 OFFCURVE",
"184 -10 OFFCURVE",
"411 -10 CURVE SMOOTH",
"481 -10 OFFCURVE",
"564 4 OFFCURVE",
"659 42 CURVE",
"659 201 LINE",
"629 201 LINE",
"587 52 OFFCURVE",
"524 32 OFFCURVE",
"425 32 CURVE SMOOTH",
"239 32 OFFCURVE",
"140 202 OFFCURVE",
"140 366 CURVE SMOOTH",
"140 537 OFFCURVE",
"239 668 OFFCURVE",
"413 668 CURVE SMOOTH",
"522 668 OFFCURVE",
"614 622 OFFCURVE",
"639 520 CURVE",
"669 520 LINE",
"669 654 LINE",
"585 695 OFFCURVE",
"514 710 OFFCURVE",
"429 710 CURVE SMOOTH"
);
}
);
width = 709;
}
);
leftKerningGroup = O;
rightKerningGroup = C;
unicode = 0043;
},
{
color = 6;
glyphname = D;
lastChange = "2023-09-29 09:16:23 +0000";
layers = (
{
anchors = (
{
name = bottom;
position = "{392, 0}";
},
{
name = center;
position = "{392, 350}";
},
{
name = top;
position = "{392, 700}";
}
);
layerId = m004;
paths = (
{
closed = 1;
nodes = (
"354 0 LINE SMOOTH",
"586 0 OFFCURVE",
"746 138 OFFCURVE",
"746 360 CURVE SMOOTH",
"746 584 OFFCURVE",
"601 700 OFFCURVE",
"350 700 CURVE SMOOTH",
"30 700 LINE",
"30 670 LINE",
"71 666 LINE SMOOTH",
"115 662 OFFCURVE",
"130 645 OFFCURVE",
"130 598 CURVE SMOOTH",
"130 102 LINE SMOOTH",
"130 55 OFFCURVE",
"115 38 OFFCURVE",
"71 34 CURVE SMOOTH",
"30 30 LINE",
"30 0 LINE"
);
},
{
closed = 1;
nodes = (
"246 40 OFFCURVE",
"224 49 OFFCURVE",
"224 99 CURVE SMOOTH",
"224 658 LINE",
"277 662 OFFCURVE",
"308 664 OFFCURVE",
"343 664 CURVE SMOOTH",
"517 664 OFFCURVE",
"645 534 OFFCURVE",
"645 332 CURVE SMOOTH",
"645 143 OFFCURVE",
"535 40 OFFCURVE",
"354 40 CURVE SMOOTH"
);
}
);
width = 787;
}
);
leftKerningGroup = H;
rightKerningGroup = D;
unicode = 0044;
},
{
color = 3;
glyphname = Eth;
lastChange = "2023-09-29 09:16:23 +0000";
layers = (
{
components = (
{
name = D;
transform = "{1, 0, 0, 1, 3, 0}";
}
);
guideLines = (
{
angle = 90;
position = "{27, 336}";
}
);
layerId = m004;
paths = (
{
closed = 1;
nodes = (
"356 336 LINE",
"356 376 LINE",
"36 376 LINE",
"36 336 LINE"
);
}
);
width = 790;
}
);
leftKerningGroup = H;
rightKerningGroup = D;
unicode = 00D0;
},
{
color = 6;
glyphname = E;
lastChange = "2023-09-29 09:16:23 +0000";
layers = (
{
anchors = (
{
name = bottom;
position = "{290, 0}";
},
{
name = ogonek;
position = "{446, 0}";
},
{
name = top;
position = "{300, 700}";
},
{
name = topleft;
position = "{12, 700}";
}
);
guideLines = (
{
position = "{561, 459}";
},
{
position = "{576, 544}";
},
{
position = "{576, 231}";
}
);
layerId = m004;
paths = (
{
closed = 1;
nodes = (
"556 191 LINE",
"525 191 LINE",
"495 70 OFFCURVE",
"461 37 OFFCURVE",
"350 37 CURVE SMOOTH",
"244 37 OFFCURVE",
"224 50 OFFCURVE",
"224 102 CURVE SMOOTH",
"224 337 LINE",
"433 337 LINE SMOOTH",
"479 337 OFFCURVE",
"499 321 OFFCURVE",
"500 283 CURVE SMOOTH",
"501 249 LINE",
"531 249 LINE",
"531 467 LINE",
"501 467 LINE",
"499 441 LINE SMOOTH",
"495 392 OFFCURVE",
"479 377 OFFCURVE",
"433 377 CURVE SMOOTH",
"224 377 LINE",
"224 660 LINE",
"380 660 LINE SMOOTH",
"463 660 OFFCURVE",
"495 632 OFFCURVE",
"514 544 CURVE",
"544 544 LINE",
"529 706 LINE",
"491 702 OFFCURVE",
"452 700 OFFCURVE",
"388 700 CURVE SMOOTH",
"30 700 LINE",
"30 670 LINE",
"71 666 LINE SMOOTH",
"115 662 OFFCURVE",
"130 645 OFFCURVE",
"130 598 CURVE SMOOTH",
"130 102 LINE SMOOTH",
"130 55 OFFCURVE",
"115 38 OFFCURVE",
"71 34 CURVE SMOOTH",
"30 30 LINE",
"30 0 LINE",
"386 0 LINE SMOOTH",
"426 0 OFFCURVE",
"481 -2 OFFCURVE",
"530 -6 CURVE"
);
}
);
width = 602;
}
);
leftKerningGroup = H;
rightKerningGroup = E;
unicode = 0045;
},
{
color = 6;
glyphname = F;
lastChange = "2023-09-29 09:16:23 +0000";
layers = (
{
anchors = (
{
name = bottom;
position = "{283, 0}";
},
{
name = top;
position = "{283, 700}";
}
);
layerId = m004;
paths = (
{
closed = 1;
nodes = (
"334 0 LINE",
"334 30 LINE",
"283 36 LINE SMOOTH",
"240 41 OFFCURVE",
"224 62 OFFCURVE",
"224 111 CURVE SMOOTH",
"224 324 LINE",
"424 324 LINE SMOOTH",
"470 324 OFFCURVE",
"490 308 OFFCURVE",
"491 271 CURVE SMOOTH",
"492 231 LINE",
"522 231 LINE",
"522 459 LINE",
"492 459 LINE",
"490 428 LINE SMOOTH",
"487 380 OFFCURVE",
"471 364 OFFCURVE",
"424 364 CURVE SMOOTH",
"224 364 LINE",
"224 660 LINE",
"371 660 LINE SMOOTH",
"454 660 OFFCURVE",
"486 632 OFFCURVE",
"505 544 CURVE",
"535 544 LINE",
"521 706 LINE",
"483 702 OFFCURVE",
"444 700 OFFCURVE",
"380 700 CURVE SMOOTH",
"30 700 LINE",
"30 670 LINE",
"71 666 LINE SMOOTH",
"116 661 OFFCURVE",
"130 644 OFFCURVE",
"130 598 CURVE SMOOTH",
"130 102 LINE SMOOTH",
"130 56 OFFCURVE",
"116 39 OFFCURVE",
"71 34 CURVE SMOOTH",
"30 30 LINE",
"30 0 LINE"
);
}
);
width = 575;
}
);
leftKerningGroup = H;
unicode = 0046;
},
{
color = 6;
glyphname = G;
lastChange = "2023-09-29 09:16:23 +0000";
layers = (
{
anchors = (
{
name = bottom;
position = "{399, 0}";
},
{
name = top;
position = "{389, 700}";
}
);
layerId = m004;
paths = (
{
closed = 1;
nodes = (
"205 710 OFFCURVE",
"39 553 OFFCURVE",
"39 340 CURVE SMOOTH",
"39 132 OFFCURVE",
"190 -10 OFFCURVE",
"410 -10 CURVE SMOOTH",
"486 -10 OFFCURVE",
"560 6 OFFCURVE",
"637 39 CURVE",
"637 222 LINE SMOOTH",
"637 267 OFFCURVE",
"650 285 OFFCURVE",
"686 288 CURVE SMOOTH",
"707 290 LINE",
"707 320 LINE",
"428 320 LINE",
"428 290 LINE",
"449 289 LINE SMOOTH",
"524 285 OFFCURVE",
"548 271 OFFCURVE",
"548 232 CURVE SMOOTH",
"548 89 LINE SMOOTH",
"548 48 OFFCURVE",
"517 32 OFFCURVE",
"438 32 CURVE SMOOTH",
"265 32 OFFCURVE",
"140 172 OFFCURVE",
"140 366 CURVE SMOOTH",
"140 548 OFFCURVE",
"249 668 OFFCURVE",
"413 668 CURVE SMOOTH",
"522 668 OFFCURVE",
"614 622 OFFCURVE",
"639 520 CURVE",
"669 520 LINE",
"669 654 LINE",
"585 695 OFFCURVE",
"514 710 OFFCURVE",
"430 710 CURVE SMOOTH"
);
}
);
width = 734;
}
);
leftKerningGroup = O;
rightKerningGroup = G;
unicode = 0047;
},
{
color = 6;
glyphname = H;
lastChange = "2023-09-29 09:16:23 +0000";
layers = (
{
anchors = (
{
name = bottom;
position = "{417, 0}";
},
{
name = center;
position = "{417, 350}";
},
{
name = top;
position = "{417, 700}";
},
{
name = topleft;
position = "{12, 700}";
}
);
layerId = m004;
paths = (
{
closed = 1;
nodes = (
"804 0 LINE",
"804 30 LINE",
"763 34 LINE SMOOTH",
"714 39 OFFCURVE",
"704 60 OFFCURVE",
"704 102 CURVE SMOOTH",
"704 598 LINE SMOOTH",
"704 640 OFFCURVE",
"714 661 OFFCURVE",
"763 666 CURVE SMOOTH",
"804 670 LINE",
"804 700 LINE",
"510 700 LINE",
"510 670 LINE",
"551 666 LINE SMOOTH",
"600 661 OFFCURVE",
"610 640 OFFCURVE",
"610 598 CURVE SMOOTH",
"610 102 LINE SMOOTH",
"610 60 OFFCURVE",
"600 39 OFFCURVE",
"551 34 CURVE SMOOTH",
"510 30 LINE",
"510 0 LINE"
);
},
{
closed = 1;
nodes = (
"324 0 LINE",
"324 30 LINE",
"283 34 LINE SMOOTH",
"234 39 OFFCURVE",
"224 60 OFFCURVE",
"224 102 CURVE SMOOTH",
"224 598 LINE SMOOTH",
"224 640 OFFCURVE",
"234 661 OFFCURVE",
"283 666 CURVE SMOOTH",
"324 670 LINE",
"324 700 LINE",
"30 700 LINE",
"30 670 LINE",
"71 666 LINE SMOOTH",
"120 661 OFFCURVE",
"130 640 OFFCURVE",
"130 598 CURVE SMOOTH",
"130 102 LINE SMOOTH",
"130 60 OFFCURVE",
"120 39 OFFCURVE",
"71 34 CURVE SMOOTH",
"30 30 LINE",
"30 0 LINE"
);
},
{
closed = 1;
nodes = (
"644 349 LINE",
"644 389 LINE",
"180 389 LINE",
"180 349 LINE"
);
}
);
width = 834;
}
);
leftKerningGroup = H;
rightKerningGroup = H;
unicode = 0048;
},
{
color = 3;
glyphname = Hbar;
lastChange = "2023-09-29 09:16:23 +0000";
layers = (
{
components = (
{
name = H;
}
);
guideLines = (
{
angle = 90;
position = "{26, 670}";
},
{
angle = 90;
position = "{800, 670}";
}
);
layerId = m004;
paths = (
{
closed = 1;
nodes = (
"804 509 LINE",
"804 549 LINE",
"30 549 LINE",
"30 509 LINE"
);
}
);
width = 834;
}
);
leftKerningGroup = H;
rightKerningGroup = H;
unicode = 0126;
},
{
color = 6;
glyphname = I;
lastChange = "2023-09-29 09:16:23 +0000";
layers = (
{
anchors = (
{
name = bottom;
position = "{177, 0}";
},
{
name = ogonek;
position = "{254, 0}";
},
{
name = top;
position = "{177, 700}";
},
{
name = topleft;
position = "{12, 700}";
}
);
layerId = m004;
paths = (
{
closed = 1;
nodes = (
"324 0 LINE",
"324 30 LINE",
"283 34 LINE SMOOTH",
"234 39 OFFCURVE",
"224 60 OFFCURVE",
"224 102 CURVE SMOOTH",
"224 598 LINE SMOOTH",
"224 640 OFFCURVE",
"234 661 OFFCURVE",
"283 666 CURVE SMOOTH",
"324 670 LINE",
"324 700 LINE",
"30 700 LINE",
"30 670 LINE",
"71 666 LINE SMOOTH",
"120 661 OFFCURVE",
"130 640 OFFCURVE",
"130 598 CURVE SMOOTH",
"130 102 LINE SMOOTH",
"130 60 OFFCURVE",
"120 39 OFFCURVE",
"71 34 CURVE SMOOTH",
"30 30 LINE",
"30 0 LINE"
);
}
);
width = 354;
}
);
leftKerningGroup = H;
rightKerningGroup = H;
unicode = 0049;
},
{
color = 6;
glyphname = J;
lastChange = "2023-09-29 09:16:23 +0000";
layers = (
{
anchors = (
{
name = bottom;
position = "{219, 0}";
},
{
name = top;
position = "{268, 700}";
}
);
layerId = m004;
paths = (
{
closed = 1;
nodes = (
"249 -10 OFFCURVE",
"318 100 OFFCURVE",
"318 241 CURVE SMOOTH",
"318 598 LINE SMOOTH",
"318 645 OFFCURVE",
"333 662 OFFCURVE",
"377 666 CURVE SMOOTH",
"418 670 LINE",
"418 700 LINE",
"114 700 LINE",
"114 670 LINE",
"165 666 LINE SMOOTH",
"209 663 OFFCURVE",
"224 645 OFFCURVE",
"224 598 CURVE SMOOTH",
"224 202 LINE SMOOTH",
"224 111 OFFCURVE",
"218 46 OFFCURVE",
"174 46 CURVE SMOOTH",
"167 46 OFFCURVE",
"159 48 OFFCURVE",
"150 51 CURVE SMOOTH",
"56 86 LINE SMOOTH",
"32 96 OFFCURVE",
"-8 74 OFFCURVE",
"-8 41 CURVE SMOOTH",
"-8 13 OFFCURVE",
"31 -10 OFFCURVE",
"93 -10 CURVE SMOOTH"
);
}
);
width = 433;
}
);
leftKerningGroup = J;
rightKerningGroup = J;
unicode = 004A;
},
{
color = 6;
glyphname = K;
lastChange = "2023-09-29 09:16:23 +0000";
layers = (
{
anchors = (
{
name = bottom;
position = "{361, 0}";
},
{
name = top;
position = "{361, 700}";
}
);
guideLines = (
{
angle = 90;
position = "{746, 248}";
}
);
layerId = m004;
paths = (
{
closed = 1;
nodes = (
"569 592 LINE SMOOTH",
"633 652 OFFCURVE",
"670 665 OFFCURVE",
"720 670 CURVE",
"720 700 LINE",
"464 700 LINE",
"464 670 LINE",
"485 669 LINE SMOOTH",
"540 666 OFFCURVE",
"549 635 OFFCURVE",
"507 594 CURVE SMOOTH",
"206 302 LINE",
"204 246 LINE"
);
},
{
closed = 1;
nodes = (
"334 0 LINE",
"334 30 LINE",
"293 33 LINE SMOOTH",
"240 36 OFFCURVE",
"224 54 OFFCURVE",
"224 102 CURVE SMOOTH",
"224 598 LINE SMOOTH",
"224 646 OFFCURVE",
"240 664 OFFCURVE",
"283 667 CURVE SMOOTH",
"324 670 LINE",
"324 700 LINE",
"30 700 LINE",
"30 670 LINE",
"71 666 LINE SMOOTH",
"115 662 OFFCURVE",
"130 645 OFFCURVE",
"130 598 CURVE SMOOTH",
"130 102 LINE SMOOTH",
"130 55 OFFCURVE",
"115 38 OFFCURVE",
"71 34 CURVE SMOOTH",
"30 30 LINE",
"30 0 LINE"
);
},
{
closed = 1;
nodes = (
"720 0 LINE",
"720 30 LINE",
"665 35 OFFCURVE",
"633 51 OFFCURVE",
"596 102 CURVE SMOOTH",
"372 412 LINE",
"304 358 LINE",
"478 115 LINE SMOOTH",
"509 72 OFFCURVE",
"502 37 OFFCURVE",
"461 33 CURVE SMOOTH",
"428 30 LINE",
"428 0 LINE"
);
}
);
width = 727;
}
);
leftKerningGroup = H;
rightKerningGroup = K;
unicode = 004B;
},
{
color = 6;
glyphname = L;
lastChange = "2023-09-29 09:16:23 +0000";
layers = (
{
anchors = (
{
name = bottom;
position = "{309, 0}";
},
{
name = center;
position = "{289, 350}";
},
{
name = top;
position = "{179, 700}";
},
{
name = topright;
position = "{566, 700}";
}
);
layerId = m004;
paths = (
{
closed = 1;
nodes = (
"576 191 LINE",
"545 191 LINE",
"515 71 OFFCURVE",
"474 37 OFFCURVE",
"350 37 CURVE SMOOTH",
"244 37 OFFCURVE",
"224 50 OFFCURVE",
"224 102 CURVE SMOOTH",
"224 598 LINE SMOOTH",
"224 645 OFFCURVE",
"239 663 OFFCURVE",
"283 666 CURVE SMOOTH",
"334 670 LINE",
"334 700 LINE",
"30 700 LINE",
"30 670 LINE",
"71 666 LINE SMOOTH",
"115 662 OFFCURVE",
"130 645 OFFCURVE",
"130 598 CURVE SMOOTH",
"130 102 LINE SMOOTH",
"130 55 OFFCURVE",
"115 38 OFFCURVE",
"71 34 CURVE SMOOTH",
"30 30 LINE",
"30 0 LINE",
"406 0 LINE SMOOTH",
"454 0 OFFCURVE",
"508 -2 OFFCURVE",
"550 -6 CURVE"
);
}
);
width = 582;
}
);
leftKerningGroup = H;
rightKerningGroup = L;
unicode = 004C;
},
{
color = 3;
glyphname = Lcaron;
lastChange = "2023-09-29 09:16:23 +0000";
layers = (
{
components = (
{
name = L;
}
);
layerId = m004;
paths = (
{
closed = 1;
nodes = (
"507 530 OFFCURVE",
"545 571 OFFCURVE",
"545 632 CURVE SMOOTH",
"545 672 OFFCURVE",
"522 710 OFFCURVE",
"477 710 CURVE SMOOTH",
"443 710 OFFCURVE",
"418 686 OFFCURVE",
"418 654 CURVE SMOOTH",
"418 622 OFFCURVE",
"442 600 OFFCURVE",
"472 600 CURVE SMOOTH",
"503 600 OFFCURVE",
"526 623 OFFCURVE",
"526 655 CURVE",
"503 623 LINE",
"503 582 OFFCURVE",
"479 552 OFFCURVE",
"422 518 CURVE",
"439 494 LINE"
);
}
);
width = 591;
}
);
leftKerningGroup = H;
rightKerningGroup = L;
unicode = 013D;
},
{
color = 3;
glyphname = Lslash;
lastChange = "2023-09-29 09:16:23 +0000";
layers = (
{
components = (
{
name = L;
transform = "{1, 0, 0, 1, 14, 0}";
}
);
guideLines = (
{
angle = 90;
position = "{38, 30}";
}
);
layerId = m004;
paths = (
{
closed = 1;
nodes = (
"397 396 LINE",
"397 438 LINE",
"47 298 LINE",
"47 256 LINE"
);
}
);
width = 596;
}
);
rightKerningGroup = L;
unicode = 0141;
},
{
color = 6;
glyphname = M;
lastChange = "2023-09-29 09:16:23 +0000";
layers = (
{
anchors = (
{
name = bottom;
position = "{466, 0}";
},
{
name = top;
position = "{466, 700}";
}
);
layerId = m004;
paths = (
{
closed = 1;
nodes = (
"266 0 LINE",
"266 30 LINE",
"245 31 LINE SMOOTH",
"177 34 OFFCURVE",
"159 53 OFFCURVE",
"163 118 CURVE SMOOTH",
"194 595 LINE",
"422 0 LINE",
"455 0 LINE",
"683 637 LINE",
"669 640 LINE",
"714 131 LINE SMOOTH",
"720 58 OFFCURVE",
"710 38 OFFCURVE",
"658 33 CURVE SMOOTH",
"625 30 LINE",
"625 0 LINE",
"912 0 LINE",
"912 30 LINE",
"889 32 LINE SMOOTH",
"831 39 OFFCURVE",
"812 61 OFFCURVE",
"806 131 CURVE SMOOTH",
"765 582 LINE SMOOTH",
"759 646 OFFCURVE",
"770 661 OFFCURVE",
"832 668 CURVE SMOOTH",
"853 670 LINE",
"853 700 LINE",
"663 700 LINE",
"450 104 LINE",
"477 104 LINE",
"251 700 LINE",
"55 700 LINE",
"55 670 LINE",
"76 668 LINE SMOOTH",
"142 661 OFFCURVE",
"158 643 OFFCURVE",
"153 582 CURVE SMOOTH",
"115 118 LINE SMOOTH",
"110 55 OFFCURVE",
"95 38 OFFCURVE",
"41 32 CURVE SMOOTH",
"20 30 LINE",
"20 0 LINE"
);
}
);
width = 922;
}
);
leftKerningGroup = H;
rightKerningGroup = H;
unicode = 004D;
},
{
color = 6;
glyphname = N;
lastChange = "2023-09-29 09:16:23 +0000";
layers = (
{
anchors = (
{
name = bottom;
position = "{411, 0}";
},
{
name = top;
position = "{411, 700}";
}
);
layerId = m004;
paths = (
{
closed = 1;
nodes = (
"696 -8 LINE",
"699 582 LINE SMOOTH",
"699 647 OFFCURVE",
"711 662 OFFCURVE",
"768 668 CURVE SMOOTH",
"789 670 LINE",
"789 700 LINE",
"551 700 LINE",
"551 670 LINE",
"572 669 LINE SMOOTH",
"635 666 OFFCURVE",
"650 650 OFFCURVE",
"651 582 CURVE SMOOTH",
"655 153 LINE",
"199 700 LINE",
"32 700 LINE",
"32 670 LINE",
"53 668 LINE SMOOTH",
"114 662 OFFCURVE",
"130 647 OFFCURVE",
"130 592 CURVE SMOOTH",
"127 108 LINE SMOOTH",
"127 53 OFFCURVE",
"114 38 OFFCURVE",
"58 32 CURVE SMOOTH",
"37 30 LINE",
"37 0 LINE",
"275 0 LINE",
"275 30 LINE",
"254 31 LINE SMOOTH",
"192 34 OFFCURVE",
"176 49 OFFCURVE",
"175 108 CURVE SMOOTH",
"170 591 LINE",
"668 -8 LINE"
);
}
);
width = 817;
}
);
leftKerningGroup = N;
rightKerningGroup = N;
unicode = 004E;
},
{
color = 6;
glyphname = O;
lastChange = "2023-09-29 09:16:23 +0000";
layers = (
{
anchors = (
{
name = bottom;
position = "{411, 0}";
},
{
name = center;
position = "{411, 350}";
},
{
name = ogonek;
position = "{744, 10}";
},
{
name = top;
position = "{409, 700}";
},
{
name = topleft;
position = "{15, 700}";
},
{
name = topright;
position = "{807, 700}";
}
);
layerId = m004;
paths = (
{
closed = 1;
nodes = (
"629 -10 OFFCURVE",
"782 136 OFFCURVE",
"782 349 CURVE SMOOTH",
"782 567 OFFCURVE",
"637 710 OFFCURVE",
"418 710 CURVE SMOOTH",
"193 710 OFFCURVE",
"40 564 OFFCURVE",
"40 350 CURVE SMOOTH",
"40 133 OFFCURVE",
"185 -10 OFFCURVE",
"406 -10 CURVE SMOOTH"
);
},
{
closed = 1;
nodes = (
"264 32 OFFCURVE",
"141 174 OFFCURVE",
"141 386 CURVE SMOOTH",
"141 563 OFFCURVE",
"238 668 OFFCURVE",
"388 668 CURVE SMOOTH",
"558 668 OFFCURVE",
"681 526 OFFCURVE",
"681 314 CURVE SMOOTH",
"681 137 OFFCURVE",
"584 32 OFFCURVE",
"434 32 CURVE SMOOTH"
);
}
);
width = 822;
}
);
leftKerningGroup = O;
rightKerningGroup = O;
unicode = 004F;
},
{
color = 3;
glyphname = Oslash;
lastChange = "2023-09-29 09:16:23 +0000";
layers = (
{
anchors = (
{
name = bottom;
position = "{395, 0}";
},
{
name = top;
position = "{395, 700}";
}
);
components = (
{
name = O;
}
);
layerId = m004;
paths = (
{
closed = 1;
nodes = (
"200 -48 LINE",
"675 748 LINE",
"623 748 LINE",
"148 -48 LINE"
);
}
);
width = 822;
}
);
leftKerningGroup = O;
rightKerningGroup = O;
unicode = 00D8;
},
{
color = 6;
glyphname = OE;
lastChange = "2023-09-29 09:16:23 +0000";
layers = (
{
anchors = (
{
name = bottom;
position = "{330, 0}";
},
{
name = center;
position = "{446, 350}";
},
{
name = ogonek;
position = "{1398, 10}";
},
{
name = top;
position = "{330, 700}";
},
{
name = topleft;
position = "{882, 700}";
},
{
name = topright;
position = "{842, 700}";
}
);
layerId = m004;
paths = (
{
closed = 1;
nodes = (
"440 -10 OFFCURVE",
"475 -7 OFFCURVE",
"509 0 CURVE",
"757 0 LINE SMOOTH",
"797 0 OFFCURVE",
"852 -2 OFFCURVE",
"901 -6 CURVE",
"927 191 LINE",
"896 191 LINE",
"866 70 OFFCURVE",
"832 37 OFFCURVE",
"721 37 CURVE SMOOTH",
"613 37 OFFCURVE",
"593 50 OFFCURVE",
"593 102 CURVE SMOOTH",
"593 337 LINE",
"804 337 LINE SMOOTH",
"850 337 OFFCURVE",
"870 321 OFFCURVE",
"871 283 CURVE SMOOTH",
"872 249 LINE",
"902 249 LINE",
"902 467 LINE",
"872 467 LINE",
"870 441 LINE SMOOTH",
"866 392 OFFCURVE",
"850 377 OFFCURVE",
"804 377 CURVE SMOOTH",
"593 377 LINE",
"593 660 LINE",
"751 660 LINE SMOOTH",
"834 660 OFFCURVE",
"866 632 OFFCURVE",
"885 544 CURVE",
"915 544 LINE",
"900 706 LINE",
"862 702 OFFCURVE",
"823 700 OFFCURVE",
"759 700 CURVE SMOOTH",
"615 700 LINE SMOOTH",
"541 700 OFFCURVE",
"472 710 OFFCURVE",
"418 710 CURVE SMOOTH",
"193 710 OFFCURVE",
"40 564 OFFCURVE",
"40 350 CURVE SMOOTH",
"40 133 OFFCURVE",
"185 -10 OFFCURVE",
"406 -10 CURVE SMOOTH"
);
},
{
closed = 1;
nodes = (
"264 32 OFFCURVE",
"141 174 OFFCURVE",
"141 386 CURVE SMOOTH",
"141 563 OFFCURVE",
"238 668 OFFCURVE",
"388 668 CURVE SMOOTH",
"425 668 OFFCURVE",
"466 664 OFFCURVE",
"501 656 CURVE",
"501 39 LINE",
"479 34 OFFCURVE",
"456 32 OFFCURVE",
"434 32 CURVE SMOOTH"
);
}
);
width = 973;
}
);
leftKerningGroup = O;
rightKerningGroup = E;
unicode = 0152;
},
{
color = 6;
glyphname = P;
lastChange = "2023-09-29 09:16:23 +0000";
layers = (
{
anchors = (
{
name = bottom;
position = "{291, 0}";
},
{
name = top;
position = "{291, 700}";
}
);
layerId = m004;
paths = (
{
closed = 1;
nodes = (
"334 0 LINE",
"334 30 LINE",
"293 33 LINE SMOOTH",
"241 37 OFFCURVE",
"224 54 OFFCURVE",
"224 102 CURVE SMOOTH",
"224 622 LINE SMOOTH",
"224 654 OFFCURVE",
"239 660 OFFCURVE",
"314 660 CURVE SMOOTH",
"407 660 OFFCURVE",
"458 609 OFFCURVE",
"458 514 CURVE SMOOTH",
"458 410 OFFCURVE",
"390 350 OFFCURVE",
"274 350 CURVE SMOOTH",
"198 350 LINE",
"198 310 LINE",
"302 311 LINE SMOOTH",
"463 313 OFFCURVE",
"560 393 OFFCURVE",
"560 524 CURVE SMOOTH",
"560 639 OFFCURVE",
"476 700 OFFCURVE",
"317 700 CURVE SMOOTH",
"30 700 LINE",
"30 670 LINE",
"71 666 LINE SMOOTH",
"115 662 OFFCURVE",
"130 645 OFFCURVE",
"130 598 CURVE SMOOTH",
"130 102 LINE SMOOTH",
"130 55 OFFCURVE",
"115 38 OFFCURVE",
"71 34 CURVE SMOOTH",
"30 30 LINE",
"30 0 LINE"
);
}
);
width = 579;
}
);
leftKerningGroup = H;
unicode = 0050;
},
{
color = 6;
glyphname = Thorn;
lastChange = "2023-09-29 09:16:23 +0000";
layers = (
{
anchors = (
{
name = bottom;
position = "{292, 0}";
},
{
name = top;
position = "{292, 700}";
}
);
layerId = m004;
paths = (
{
closed = 1;
nodes = (
"334 0 LINE",
"334 30 LINE",
"293 33 LINE SMOOTH",
"241 37 OFFCURVE",
"224 54 OFFCURVE",
"224 102 CURVE SMOOTH",
"224 165 LINE",
"302 166 LINE SMOOTH",
"463 168 OFFCURVE",
"560 248 OFFCURVE",
"560 379 CURVE SMOOTH",
"560 494 OFFCURVE",
"476 555 OFFCURVE",
"317 555 CURVE SMOOTH",
"224 555 LINE",
"224 598 LINE SMOOTH",
"224 646 OFFCURVE",
"241 663 OFFCURVE",
"293 667 CURVE SMOOTH",
"334 670 LINE",
"334 700 LINE",
"30 700 LINE",
"30 670 LINE",
"71 666 LINE SMOOTH",
"115 662 OFFCURVE",
"130 645 OFFCURVE",
"130 598 CURVE SMOOTH",
"130 102 LINE SMOOTH",
"130 55 OFFCURVE",
"115 38 OFFCURVE",
"71 34 CURVE SMOOTH",
"30 30 LINE",
"30 0 LINE"
);
},
{
closed = 1;
nodes = (
"224 477 LINE SMOOTH",
"224 509 OFFCURVE",
"239 515 OFFCURVE",
"314 515 CURVE SMOOTH",
"407 515 OFFCURVE",
"458 464 OFFCURVE",
"458 369 CURVE SMOOTH",
"458 265 OFFCURVE",
"390 205 OFFCURVE",
"274 205 CURVE SMOOTH",
"224 205 LINE"
);
}
);
width = 592;
}
);
leftKerningGroup = H;
unicode = 00DE;
},
{
color = 6;
glyphname = Q;
lastChange = "2023-09-29 09:16:23 +0000";
layers = (
{
anchors = (
{
name = bottom;
position = "{411, 0}";
},
{
name = top;
position = "{411, 700}";
}
);
layerId = m004;
paths = (
{
closed = 1;
nodes = (
"629 -10 OFFCURVE",
"782 136 OFFCURVE",
"782 349 CURVE SMOOTH",
"782 567 OFFCURVE",
"637 710 OFFCURVE",
"418 710 CURVE SMOOTH",
"193 710 OFFCURVE",
"40 564 OFFCURVE",
"40 350 CURVE SMOOTH",
"40 133 OFFCURVE",
"185 -10 OFFCURVE",
"406 -10 CURVE SMOOTH"
);
},
{
closed = 1;
nodes = (
"779 -80 LINE",
"779 10 LINE",
"463 10 LINE",
"452 -8 LINE",
"759 -80 LINE"
);
},
{
closed = 1;
nodes = (
"264 32 OFFCURVE",
"141 174 OFFCURVE",
"141 386 CURVE SMOOTH",
"141 563 OFFCURVE",
"238 668 OFFCURVE",
"388 668 CURVE SMOOTH",
"558 668 OFFCURVE",
"681 526 OFFCURVE",
"681 314 CURVE SMOOTH",
"681 137 OFFCURVE",
"584 32 OFFCURVE",
"434 32 CURVE SMOOTH"
);
}
);
width = 822;
}
);
leftKerningGroup = O;
rightKerningGroup = O;
unicode = 0051;
},
{
color = 6;
glyphname = R;
lastChange = "2023-09-29 09:16:23 +0000";
layers = (
{
anchors = (
{
name = bottom;
position = "{355, 0}";
},
{
name = top;
position = "{331, 700}";
}
);
layerId = m004;
paths = (
{
closed = 1;
nodes = (
"334 0 LINE",
"334 30 LINE",
"283 34 LINE SMOOTH",
"239 37 OFFCURVE",
"224 55 OFFCURVE",
"224 102 CURVE SMOOTH",
"224 336 LINE",
"287 336 LINE SMOOTH",
"391 336 OFFCURVE",
"440 235 OFFCURVE",
"466 81 CURVE SMOOTH",
"476 21 OFFCURVE",
"495 0 OFFCURVE",
"560 0 CURVE SMOOTH",
"629 0 LINE",
"629 30 LINE",
"616 31 LINE SMOOTH",
"584 33 OFFCURVE",
"571 49 OFFCURVE",
"566 83 CURVE SMOOTH",
"541 239 OFFCURVE",
"500 318 OFFCURVE",
"396 348 CURVE",
"537 372 OFFCURVE",
"580 453 OFFCURVE",
"580 527 CURVE SMOOTH",
"580 640 OFFCURVE",
"498 700 OFFCURVE",
"331 700 CURVE SMOOTH",
"30 700 LINE",
"30 670 LINE",
"71 666 LINE SMOOTH",
"115 662 OFFCURVE",
"130 645 OFFCURVE",
"130 598 CURVE SMOOTH",
"130 102 LINE SMOOTH",
"130 55 OFFCURVE",
"115 38 OFFCURVE",
"71 34 CURVE SMOOTH",
"30 30 LINE",
"30 0 LINE"
);
},
{
closed = 1;
nodes = (
"224 624 LINE SMOOTH",
"224 650 OFFCURVE",
"250 660 OFFCURVE",
"324 660 CURVE SMOOTH",
"426 660 OFFCURVE",
"478 611 OFFCURVE",
"478 524 CURVE SMOOTH",
"478 438 OFFCURVE",
"412 375 OFFCURVE",
"313 375 CURVE SMOOTH",
"224 375 LINE"
);
}
);
width = 648;
}
);
leftKerningGroup = H;
rightKerningGroup = R;
unicode = 0052;
},
{
color = 6;
glyphname = S;
lastChange = "2023-09-29 09:16:23 +0000";
layers = (
{
anchors = (
{
name = bottom;
position = "{272, 0}";
},
{
name = top;
position = "{272, 700}";
}
);
layerId = m004;
paths = (
{
closed = 1;
nodes = (
"385 -10 OFFCURVE",
"488 75 OFFCURVE",
"488 197 CURVE SMOOTH",
"488 267 OFFCURVE",
"455 315 OFFCURVE",
"347 374 CURVE SMOOTH",
"231 437 LINE SMOOTH",
"171 469 OFFCURVE",
"140 508 OFFCURVE",
"140 558 CURVE SMOOTH",
"140 623 OFFCURVE",
"194 669 OFFCURVE",
"279 669 CURVE SMOOTH",
"363 669 OFFCURVE",
"414 626 OFFCURVE",
"428 546 CURVE",
"458 546 LINE",
"458 672 LINE",
"404 698 OFFCURVE",
"353 710 OFFCURVE",
"299 710 CURVE SMOOTH",
"161 710 OFFCURVE",
"61 629 OFFCURVE",
"61 517 CURVE SMOOTH",
"61 448 OFFCURVE",
"97 401 OFFCURVE",
"189 350 CURVE SMOOTH",
"300 289 LINE SMOOTH",
"375 248 OFFCURVE",
"402 212 OFFCURVE",
"402 160 CURVE SMOOTH",
"402 84 OFFCURVE",
"344 31 OFFCURVE",
"256 31 CURVE SMOOTH",
"159 31 OFFCURVE",
"96 94 OFFCURVE",
"85 209 CURVE",
"55 209 LINE",
"55 42 LINE",
"116 5 OFFCURVE",
"175 -10 OFFCURVE",
"237 -10 CURVE SMOOTH"
);
}
);
width = 530;
}
);
leftKerningGroup = S;
rightKerningGroup = S;
unicode = 0053;
},
{
color = 6;
glyphname = Germandbls;
lastChange = "2023-09-29 09:16:26 +0000";
layers = (
{
anchors = (
{
name = bottom;
position = "{292, 0}";
},
{
name = top;
position = "{292, 700}";
}
);
layerId = m004;
paths = (
{
closed = 1;
nodes = (
"324 0 LINE",
"324 30 LINE",
"283 34 LINE SMOOTH",
"234 39 OFFCURVE",
"224 60 OFFCURVE",
"224 102 CURVE SMOOTH",
"224 700 LINE",
"30 700 LINE",
"30 670 LINE",
"71 666 LINE SMOOTH",
"120 661 OFFCURVE",
"130 640 OFFCURVE",
"130 598 CURVE SMOOTH",
"130 102 LINE SMOOTH",
"130 60 OFFCURVE",
"120 39 OFFCURVE",
"71 34 CURVE SMOOTH",
"30 30 LINE",
"30 0 LINE"
);
},
{
closed = 1;
nodes = (
"629 -10 OFFCURVE",
"731 68 OFFCURVE",
"731 190 CURVE SMOOTH",
"731 272 OFFCURVE",
"686 335 OFFCURVE",
"568 386 CURVE SMOOTH",
"457 434 LINE",
"397 354 LINE",
"521 301 LINE SMOOTH",
"615 261 OFFCURVE",
"645 212 OFFCURVE",
"645 153 CURVE SMOOTH",
"645 77 OFFCURVE",
"588 31 OFFCURVE",
"525 31 CURVE SMOOTH",
"458 31 OFFCURVE",
"395 74 OFFCURVE",
"384 179 CURVE",
"354 179 LINE",
"354 32 LINE",
"415 -5 OFFCURVE",
"474 -10 OFFCURVE",
"516 -10 CURVE SMOOTH"
);
},
{
closed = 1;
nodes = (
"424 354 LINE",
"701 660 LINE",
"701 676 LINE",
"682 696 LINE",
"397 380 LINE",
"397 354 LINE"
);
},
{
closed = 1;
nodes = (
"657 661 LINE",
"701 676 LINE",
"701 700 LINE",
"113 700 LINE",
"113 661 LINE"
);
}
);
width = 768;
}
);
leftKerningGroup = H;
unicode = 1E9E;
},
{
color = 6;
glyphname = T;
lastChange = "2023-09-29 09:16:23 +0000";
layers = (
{
anchors = (
{
name = bottom;
position = "{333, 0}";
},
{
name = center;
position = "{333, 350}";
},
{
name = top;
position = "{333, 700}";
}
);
layerId = m004;
paths = (
{
closed = 1;
nodes = (
"286 55 OFFCURVE",
"271 39 OFFCURVE",
"212 33 CURVE SMOOTH",
"181 30 LINE",
"181 0 LINE",
"485 0 LINE",
"485 30 LINE",
"454 33 LINE SMOOTH",
"395 39 OFFCURVE",
"380 55 OFFCURVE",
"380 102 CURVE SMOOTH",
"380 661 LINE",
"486 657 LINE SMOOTH",
"582 653 OFFCURVE",
"605 630 OFFCURVE",
"623 522 CURVE",
"654 522 LINE",
"645 706 LINE",
"601 702 OFFCURVE",
"544 700 OFFCURVE",
"501 700 CURVE SMOOTH",
"165 700 LINE SMOOTH",
"114 700 OFFCURVE",
"59 702 OFFCURVE",
"21 706 CURVE",
"12 522 LINE",
"43 522 LINE",
"61 630 OFFCURVE",
"84 653 OFFCURVE",
"180 657 CURVE SMOOTH",
"286 661 LINE",
"286 102 LINE SMOOTH"
);
}
);
width = 666;
}
);
leftKerningGroup = T;
rightKerningGroup = T;
unicode = 0054;
},
{
color = 6;
glyphname = U;
lastChange = "2023-09-29 09:16:23 +0000";
layers = (
{
anchors = (
{
name = bottom;
position = "{387, 0}";
},
{
name = ogonek;
position = "{481, 0}";
},
{
name = top;
position = "{387, 700}";
},
{
name = topright;
position = "{771, 700}";
}
);
layerId = m004;
paths = (
{
closed = 1;
nodes = (
"578 -10 OFFCURVE",
"663 92 OFFCURVE",
"663 318 CURVE SMOOTH",
"663 592 LINE SMOOTH",
"663 648 OFFCURVE",
"680 667 OFFCURVE",
"732 669 CURVE SMOOTH",
"753 670 LINE",
"753 700 LINE",
"523 700 LINE",
"523 670 LINE",
"544 669 LINE SMOOTH",
"600 666 OFFCURVE",
"617 648 OFFCURVE",
"617 592 CURVE SMOOTH",
"617 331 LINE SMOOTH",
"617 131 OFFCURVE",
"552 39 OFFCURVE",
"414 39 CURVE SMOOTH",
"275 39 OFFCURVE",
"204 129 OFFCURVE",
"204 305 CURVE SMOOTH",
"204 592 LINE SMOOTH",
"204 648 OFFCURVE",
"221 667 OFFCURVE",
"273 669 CURVE SMOOTH",
"294 670 LINE",
"294 700 LINE",
"20 700 LINE",
"20 670 LINE",
"41 669 LINE SMOOTH",
"93 667 OFFCURVE",
"110 648 OFFCURVE",
"110 592 CURVE SMOOTH",
"110 289 LINE SMOOTH",
"110 89 OFFCURVE",
"203 -10 OFFCURVE",
"389 -10 CURVE SMOOTH"
);
}
);
width = 773;
}
);
leftKerningGroup = U;
rightKerningGroup = U;
unicode = 0055;
},
{
color = 6;
glyphname = V;
lastChange = "2023-09-29 09:16:23 +0000";
layers = (
{
anchors = (
{
name = bottom;
position = "{348, 0}";
},
{
name = top;
position = "{348, 700}";
}
);
layerId = m004;
paths = (
{
closed = 1;
nodes = (
"362 -5 LINE",
"590 569 LINE SMOOTH",
"620 645 OFFCURVE",
"644 661 OFFCURVE",
"702 670 CURVE",
"702 700 LINE",
"464 700 LINE",
"464 670 LINE",
"493 668 LINE SMOOTH",
"548 664 OFFCURVE",
"562 632 OFFCURVE",
"538 569 CURVE SMOOTH",
"371 131 LINE",
"201 569 LINE SMOOTH",
"179 626 OFFCURVE",
"196 662 OFFCURVE",
"247 667 CURVE SMOOTH",
"280 670 LINE",
"280 700 LINE",
"-7 700 LINE",
"-7 670 LINE",
"49 664 OFFCURVE",
"66 652 OFFCURVE",
"99 569 CURVE SMOOTH",
"329 -5 LINE"
);
}
);
width = 691;
}
);
leftKerningGroup = V;
rightKerningGroup = V;
unicode = 0056;
},
{
color = 6;
glyphname = W;
lastChange = "2023-09-29 09:16:23 +0000";
layers = (
{
anchors = (
{
name = bottom;
position = "{513, 0}";
},
{
name = top;
position = "{513, 700}";
}
);
layerId = m004;
paths = (
{
closed = 1;
nodes = (
"350 -5 LINE",
"529 513 LINE",
"510 514 LINE",
"676 -5 LINE",
"717 -5 LINE",
"920 569 LINE SMOOTH",
"945 640 OFFCURVE",
"970 660 OFFCURVE",
"1032 670 CURVE",
"1032 700 LINE",
"791 700 LINE",
"791 670 LINE",
"820 668 LINE SMOOTH",
"873 664 OFFCURVE",
"890 635 OFFCURVE",
"867 569 CURVE SMOOTH",
"718 131 LINE",
"587 569 LINE SMOOTH",
"568 634 OFFCURVE",
"586 665 OFFCURVE",
"633 668 CURVE SMOOTH",
"666 670 LINE",
"666 700 LINE",
"386 700 LINE",
"386 670 LINE",
"409 668 LINE SMOOTH",
"452 664 OFFCURVE",
"475 634 OFFCURVE",
"495 560 CURVE",
"351 131 LINE",
"201 569 LINE SMOOTH",
"180 630 OFFCURVE",
"199 665 OFFCURVE",
"247 668 CURVE SMOOTH",
"280 670 LINE",
"280 700 LINE",
"-7 700 LINE",
"-7 670 LINE",
"53 664 OFFCURVE",
"70 649 OFFCURVE",
"99 569 CURVE SMOOTH",
"309 -5 LINE"
);
}
);
width = 1023;
}
);
leftKerningGroup = W;
rightKerningGroup = W;
unicode = 0057;
},
{
color = 6;
glyphname = X;
lastChange = "2023-09-29 09:16:23 +0000";
layers = (
{
anchors = (
{
name = bottom;
position = "{342, 0}";
},
{
name = top;
position = "{342, 700}";
}
);
layerId = m004;
paths = (
{
closed = 1;
nodes = (
"676 0 LINE",
"676 30 LINE",
"622 33 OFFCURVE",
"596 50 OFFCURVE",
"557 108 CURVE SMOOTH",
"230 592 LINE SMOOTH",
"198 639 OFFCURVE",
"214 666 OFFCURVE",
"276 669 CURVE SMOOTH",
"297 670 LINE",
"297 700 LINE",
"7 700 LINE",
"7 670 LINE",
"68 666 OFFCURVE",
"82 657 OFFCURVE",
"126 592 CURVE SMOOTH",
"453 108 LINE SMOOTH",
"485 61 OFFCURVE",
"469 34 OFFCURVE",
"407 31 CURVE SMOOTH",
"386 30 LINE",
"386 0 LINE"
);
},
{
closed = 1;
nodes = (
"250 0 LINE",
"250 30 LINE",
"229 31 LINE SMOOTH",
"166 34 OFFCURVE",
"150 61 OFFCURVE",
"183 108 CURVE SMOOTH",
"342 334 LINE",
"318 374 LINE",
"126 108 LINE SMOOTH",
"83 48 OFFCURVE",
"60 33 OFFCURVE",
"7 30 CURVE",
"7 0 LINE"
);
},
{
closed = 1;
nodes = (
"557 592 LINE SMOOTH",
"600 652 OFFCURVE",
"623 667 OFFCURVE",
"676 670 CURVE",
"676 700 LINE",
"433 700 LINE",
"433 670 LINE",
"454 669 LINE SMOOTH",
"517 666 OFFCURVE",
"533 639 OFFCURVE",
"500 592 CURVE SMOOTH",
"341 366 LINE",
"365 326 LINE"
);
}
);
width = 683;
}
);
unicode = 0058;
},
{
color = 6;
glyphname = Y;
lastChange = "2023-09-29 09:16:23 +0000";
layers = (
{
anchors = (
{
name = bottom;
position = "{320, 0}";
},
{
name = top;
position = "{320, 700}";
},
{
name = topleft;
position = "{13, 700}";
}
);
layerId = m004;
paths = (
{
closed = 1;
nodes = (
"478 0 LINE",
"478 30 LINE",
"447 33 LINE SMOOTH",
"388 38 OFFCURVE",
"373 55 OFFCURVE",
"373 102 CURVE SMOOTH",
"373 328 LINE",
"536 592 LINE SMOOTH",
"570 647 OFFCURVE",
"597 667 OFFCURVE",
"641 670 CURVE",
"641 700 LINE",
"430 700 LINE",
"430 670 LINE",
"451 669 LINE SMOOTH",
"499 666 OFFCURVE",
"513 637 OFFCURVE",
"484 589 CURVE SMOOTH",
"329 333 LINE",
"367 333 LINE",
"209 592 LINE SMOOTH",
"179 641 OFFCURVE",
"191 666 OFFCURVE",
"237 669 CURVE SMOOTH",
"258 670 LINE",
"258 700 LINE",
"-2 700 LINE",
"-2 670 LINE",
"49 667 OFFCURVE",
"64 657 OFFCURVE",
"105 592 CURVE SMOOTH",
"279 316 LINE",
"279 102 LINE SMOOTH",
"279 55 OFFCURVE",
"264 38 OFFCURVE",
"205 33 CURVE SMOOTH",
"174 30 LINE",
"174 0 LINE"
);
}
);
width = 646;
}
);
leftKerningGroup = Y;
rightKerningGroup = Y;
unicode = 0059;
},
{
color = 6;
glyphname = Z;
lastChange = "2023-09-29 09:16:23 +0000";
layers = (
{
anchors = (
{
name = bottom;
position = "{294, 0}";
},
{
name = center;
position = "{294, 350}";
},
{
name = top;
position = "{294, 700}";
}
);
layerId = m004;
paths = (
{
closed = 1;
nodes = (
"553 200 LINE",
"521 200 LINE",
"491 85 OFFCURVE",
"444 40 OFFCURVE",
"353 40 CURVE SMOOTH",
"104 40 LINE",
"131 10 LINE",
"551 670 LINE",
"551 700 LINE",
"193 700 LINE SMOOTH",
"150 700 OFFCURVE",
"93 702 OFFCURVE",
"52 706 CURVE",
"36 534 LINE",
"67 534 LINE",
"85 619 OFFCURVE",
"131 660 OFFCURVE",
"211 660 CURVE SMOOTH",
"481 660 LINE",
"455 690 LINE",
"35 30 LINE",
"35 0 LINE",
"383 0 LINE SMOOTH",
"416 0 OFFCURVE",
"470 -2 OFFCURVE",
"527 -6 CURVE"
);
}
);
width = 589;
}
);
leftKerningGroup = Z;
rightKerningGroup = Z;
unicode = 005A;
},
{
color = 6;
glyphname = T.alt;
lastChange = "2023-09-29 09:16:26 +0000";
layers = (
{
anchors = (
{
name = bottom;
position = "{328, 0}";
},
{
name = center;
position = "{328, 350}";
},
{
name = top;
position = "{328, 700}";
}
);
layerId = m004;
paths = (
{
closed = 1;
nodes = (
"480 0 LINE",
"480 30 LINE",
"449 33 LINE SMOOTH",
"390 39 OFFCURVE",
"375 55 OFFCURVE",
"375 102 CURVE SMOOTH",
"375 661 LINE",
"481 659 LINE",
"577 657 OFFCURVE",
"592 620 OFFCURVE",
"618 542 CURVE",
"648 542 LINE",
"639 706 LINE",
"595 702 OFFCURVE",
"538 700 OFFCURVE",
"495 700 CURVE SMOOTH",
"161 700 LINE SMOOTH",
"110 700 OFFCURVE",
"55 702 OFFCURVE",
"17 706 CURVE",
"8 542 LINE",
"38 542 LINE",
"64 620 OFFCURVE",
"79 657 OFFCURVE",
"175 659 CURVE SMOOTH",
"281 661 LINE",
"281 102 LINE SMOOTH",
"281 55 OFFCURVE",
"266 39 OFFCURVE",
"207 33 CURVE SMOOTH",
"176 30 LINE",
"176 0 LINE"
);
}
);
width = 656;
}
);
leftKerningGroup = T.alt;
rightKerningGroup = T.alt;
},
{
color = 6;
glyphname = a;
lastChange = "2023-09-29 09:16:23 +0000";
layers = (
{
anchors = (
{
name = bottom;
position = "{252, 0}";
},
{
name = ogonek;
position = "{433, 0}";
},
{
name = top;
position = "{233, 520}";
}
);
layerId = m004;
paths = (
{
closed = 1;
nodes = (
"208 -10 OFFCURVE",
"255 3 OFFCURVE",
"313 59 CURVE",
"321 59 LINE",
"325 38 OFFCURVE",
"334 -7 OFFCURVE",
"388 -7 CURVE SMOOTH",
"401 -7 OFFCURVE",
"424 -4 OFFCURVE",
"467 10 CURVE SMOOTH",
"502 19 LINE",
"502 42 LINE",
"425 47 OFFCURVE",
"402 55 OFFCURVE",
"404 107 CURVE SMOOTH",
"414 412 LINE SMOOTH",
"416 486 OFFCURVE",
"355 530 OFFCURVE",
"268 530 CURVE SMOOTH",
"176 530 OFFCURVE",
"69 466 OFFCURVE",
"38 388 CURVE SMOOTH",
"32 369 OFFCURVE",
"46 366 OFFCURVE",
"69 366 CURVE SMOOTH",
"109 366 OFFCURVE",
"135 379 OFFCURVE",
"138 393 CURVE SMOOTH",
"152 458 OFFCURVE",
"190 488 OFFCURVE",
"235 488 CURVE SMOOTH",
"292 488 OFFCURVE",
"326 451 OFFCURVE",
"325 402 CURVE SMOOTH",
"322 303 LINE",
"297 294 LINE SMOOTH",
"105 225 OFFCURVE",
"39 154 OFFCURVE",
"39 87 CURVE SMOOTH",
"39 41 OFFCURVE",
"65 -10 OFFCURVE",
"156 -10 CURVE SMOOTH"
);
},
{
closed = 1;
nodes = (
"164 56 OFFCURVE",
"138 76 OFFCURVE",
"138 119 CURVE SMOOTH",
"138 159 OFFCURVE",
"168 212 OFFCURVE",
"313 266 CURVE SMOOTH",
"321 269 LINE",
"315 92 LINE",
"290 75 OFFCURVE",
"261 56 OFFCURVE",
"213 56 CURVE SMOOTH"
);
}
);
width = 503;
}
);
leftKerningGroup = a;
rightKerningGroup = a;
unicode = 0061;
},
{
color = 6;
glyphname = ae;
lastChange = "2023-09-29 09:16:23 +0000";
layers = (
{
anchors = (
{
name = bottom;
position = "{299, 0}";
},
{
name = top;
position = "{299, 520}";
}
);
layerId = m004;
paths = (
{
closed = 1;
nodes = (
"217 -10 OFFCURVE",
"277 12 OFFCURVE",
"356 95 CURVE",
"363 95 LINE",
"406 31 OFFCURVE",
"477 -10 OFFCURVE",
"566 -10 CURVE SMOOTH",
"643 -10 OFFCURVE",
"706 20 OFFCURVE",
"770 94 CURVE",
"750 113 LINE",
"701 76 OFFCURVE",
"659 61 OFFCURVE",
"612 61 CURVE SMOOTH",
"487 61 OFFCURVE",
"410 161 OFFCURVE",
"410 296 CURVE SMOOTH",
"410 310 LINE",
"753 310 LINE",
"755 324 LINE SMOOTH",
"757 338 OFFCURVE",
"757 346 OFFCURVE",
"757 354 CURVE SMOOTH",
"757 469 OFFCURVE",
"687 530 OFFCURVE",
"582 530 CURVE SMOOTH",
"514 530 OFFCURVE",
"452 504 OFFCURVE",
"405 460 CURVE",
"386 505 OFFCURVE",
"334 530 OFFCURVE",
"268 530 CURVE SMOOTH",
"176 530 OFFCURVE",
"69 466 OFFCURVE",
"38 388 CURVE SMOOTH",
"32 369 OFFCURVE",
"46 366 OFFCURVE",
"69 366 CURVE SMOOTH",
"109 366 OFFCURVE",
"135 379 OFFCURVE",
"138 393 CURVE SMOOTH",
"152 458 OFFCURVE",
"190 488 OFFCURVE",
"235 488 CURVE SMOOTH",
"291 488 OFFCURVE",
"326 451 OFFCURVE",
"325 402 CURVE SMOOTH",
"322 303 LINE",
"297 294 LINE SMOOTH",
"105 225 OFFCURVE",
"39 154 OFFCURVE",
"39 87 CURVE SMOOTH",
"39 41 OFFCURVE",
"65 -10 OFFCURVE",
"156 -10 CURVE SMOOTH"
);
},
{
closed = 1;
nodes = (
"164 56 OFFCURVE",
"138 76 OFFCURVE",
"138 119 CURVE SMOOTH",
"138 159 OFFCURVE",
"168 212 OFFCURVE",
"313 266 CURVE SMOOTH",
"321 269 LINE",
"315 92 LINE",
"290 75 OFFCURVE",
"261 56 OFFCURVE",
"213 56 CURVE SMOOTH"
);
},
{
closed = 1;
nodes = (
"430 437 OFFCURVE",
"485 491 OFFCURVE",
"560 491 CURVE SMOOTH",
"625 491 OFFCURVE",
"661 452 OFFCURVE",
"661 385 CURVE SMOOTH",
"661 373 OFFCURVE",
"660 361 OFFCURVE",
"658 348 CURVE",
"414 348 LINE"
);
}
);
width = 800;
}
);
leftKerningGroup = a;
rightKerningGroup = e;
unicode = 00E6;
},
{
color = 6;
glyphname = b;
lastChange = "2023-09-29 09:16:19 +0000";
layers = (
{
anchors = (
{
name = bottom;
position = "{302, 0}";
},
{
name = top;
position = "{302, 800}";
}
);
layerId = m004;
paths = (
{
closed = 1;
nodes = (
"104 -10 LINE",
"134 38 LINE",
"177 6 OFFCURVE",
"233 -10 OFFCURVE",
"291 -10 CURVE SMOOTH",
"450 -10 OFFCURVE",
"570 108 OFFCURVE",
"570 275 CURVE SMOOTH",
"570 426 OFFCURVE",
"475 530 OFFCURVE",
"337 530 CURVE SMOOTH",
"273 530 OFFCURVE",
"223 507 OFFCURVE",
"170 453 CURVE",
"164 453 LINE",
"164 800 LINE",
"150 800 LINE",
"-4 756 LINE",
"-4 731 LINE",
"63 723 OFFCURVE",
"74 708 OFFCURVE",
"74 666 CURVE SMOOTH",
"74 -10 LINE"
);
},
{
closed = 1;
nodes = (
"212 28 OFFCURVE",
"164 87 OFFCURVE",
"164 183 CURVE SMOOTH",
"164 410 LINE",
"201 447 OFFCURVE",
"248 465 OFFCURVE",
"297 465 CURVE SMOOTH",
"409 465 OFFCURVE",
"476 373 OFFCURVE",
"476 236 CURVE SMOOTH",
"476 104 OFFCURVE",
"413 28 OFFCURVE",
"306 28 CURVE SMOOTH"
);
}
);
width = 606;
}
);
leftKerningGroup = b;
rightKerningGroup = b;
unicode = 0062;
},
{
color = 6;
glyphname = c;
lastChange = "2023-09-29 09:16:23 +0000";
layers = (
{
anchors = (
{
name = bottom;
position = "{274, 0}";
},
{
name = top;
position = "{274, 520}";
}
);
layerId = m004;
paths = (
{
closed = 1;
nodes = (
"361 -10 OFFCURVE",
"424 20 OFFCURVE",
"487 94 CURVE",
"467 113 LINE",
"417 75 OFFCURVE",
"373 61 OFFCURVE",
"327 61 CURVE SMOOTH",
"210 61 OFFCURVE",
"127 156 OFFCURVE",
"127 288 CURVE SMOOTH",
"127 400 OFFCURVE",
"185 489 OFFCURVE",
"278 489 CURVE SMOOTH",
"304 489 OFFCURVE",
"319 484 OFFCURVE",
"337 468 CURVE SMOOTH",
"401 411 LINE SMOOTH",
"420 394 OFFCURVE",
"481 411 OFFCURVE",
"481 444 CURVE SMOOTH",
"481 479 OFFCURVE",
"413 530 OFFCURVE",
"309 530 CURVE SMOOTH",
"152 530 OFFCURVE",
"36 412 OFFCURVE",
"36 253 CURVE SMOOTH",
"36 103 OFFCURVE",
"140 -10 OFFCURVE",
"286 -10 CURVE SMOOTH"
);
}
);
width = 510;
}
);
leftKerningGroup = o;
rightKerningGroup = c;
unicode = 0063;
},
{
color = 6;
glyphname = d;
lastChange = "2023-09-29 09:16:23 +0000";
layers = (
{
anchors = (
{
name = bottom;
position = "{316, 0}";
},
{
name = center;
position = "{316, 260}";
},
{
name = top;
position = "{316, 800}";
},
{
name = topright;
position = "{617, 520}";
}
);
layerId = m004;
paths = (
{
closed = 1;
nodes = (
"322 -10 OFFCURVE",
"379 6 OFFCURVE",
"436 67 CURVE",
"445 67 LINE",
"445 -2 LINE",
"459 -2 LINE",
"612 34 LINE",
"612 61 LINE",
"543 69 OFFCURVE",
"532 84 OFFCURVE",
"532 126 CURVE SMOOTH",
"532 800 LINE",
"518 800 LINE",
"364 756 LINE",
"364 731 LINE",
"431 723 OFFCURVE",
"442 708 OFFCURVE",
"442 666 CURVE SMOOTH",
"442 493 LINE",
"399 521 OFFCURVE",
"351 530 OFFCURVE",
"305 530 CURVE SMOOTH",
"153 530 OFFCURVE",
"36 409 OFFCURVE",
"36 246 CURVE SMOOTH",
"36 98 OFFCURVE",
"132 -10 OFFCURVE",
"269 -10 CURVE SMOOTH"
);
},
{
closed = 1;
nodes = (
"204 55 OFFCURVE",
"130 148 OFFCURVE",
"130 290 CURVE SMOOTH",
"130 421 OFFCURVE",
"189 492 OFFCURVE",
"298 492 CURVE SMOOTH",
"371 492 OFFCURVE",
"442 448 OFFCURVE",
"442 342 CURVE SMOOTH",
"442 110 LINE",
"401 67 OFFCURVE",
"357 55 OFFCURVE",
"316 55 CURVE SMOOTH"
);
}
);
width = 625;
}
);
leftKerningGroup = d;
rightKerningGroup = d;
unicode = 0064;
},
{
color = 3;
glyphname = dcaron;
lastChange = "2023-09-29 09:16:23 +0000";
layers = (
{
components = (
{
name = d;
}
);
layerId = m004;
paths = (
{
closed = 1;
nodes = (
"664 600 OFFCURVE",
"702 641 OFFCURVE",
"702 702 CURVE SMOOTH",
"702 742 OFFCURVE",
"679 780 OFFCURVE",
"634 780 CURVE SMOOTH",
"600 780 OFFCURVE",
"575 756 OFFCURVE",
"575 724 CURVE SMOOTH",
"575 692 OFFCURVE",
"599 670 OFFCURVE",
"629 670 CURVE SMOOTH",
"660 670 OFFCURVE",
"683 693 OFFCURVE",
"683 725 CURVE",
"660 693 LINE",
"660 652 OFFCURVE",
"636 622 OFFCURVE",
"579 588 CURVE",
"596 564 LINE"
);
}
);
width = 635;
}
);
leftKerningGroup = d;
rightKerningGroup = d;
unicode = 010F;
},
{
color = 3;
glyphname = dcroat;
lastChange = "2023-09-29 09:16:23 +0000";
layers = (
{
components = (
{
name = d;
}
);
guideLines = (
{
angle = 90;
position = "{603, 61}";
}
);
layerId = m004;
paths = (
{
closed = 1;
nodes = (
"612 597 LINE",
"612 635 LINE",
"296 635 LINE",
"296 597 LINE"
);
}
);
width = 625;
}
);
leftKerningGroup = d;
rightKerningGroup = d;
unicode = 0111;
},
{
color = 6;
glyphname = eth;
lastChange = "2023-09-29 09:16:23 +0000";
layers = (
{
layerId = m004;
paths = (
{
closed = 1;
nodes = (
"427 -10 OFFCURVE",
"525 100 OFFCURVE",
"525 278 CURVE SMOOTH",
"525 313 OFFCURVE",
"509 357 OFFCURVE",
"479 392 CURVE",
"443 388 LINE",
"422 438 OFFCURVE",
"358 477 OFFCURVE",
"277 477 CURVE SMOOTH",
"134 477 OFFCURVE",
"37 371 OFFCURVE",
"37 234 CURVE SMOOTH",
"37 91 OFFCURVE",
"134 -10 OFFCURVE",
"280 -10 CURVE SMOOTH"
);
},
{
closed = 1;
nodes = (
"180 29 OFFCURVE",
"125 140 OFFCURVE",
"125 257 CURVE SMOOTH",
"125 380 OFFCURVE",
"184 440 OFFCURVE",
"267 440 CURVE SMOOTH",
"378 440 OFFCURVE",
"436 331 OFFCURVE",
"436 211 CURVE SMOOTH",
"436 90 OFFCURVE",
"376 29 OFFCURVE",
"293 29 CURVE SMOOTH"
);
},
{
closed = 1;
nodes = (
"525 498 OFFCURVE",
"403 684 OFFCURVE",
"135 800 CURVE",
"115 780 LINE",
"290 697 OFFCURVE",
"427 505 OFFCURVE",
"435 353 CURVE",
"525 278 LINE"
);
},
{
closed = 1;
nodes = (
"445 743 LINE",
"425 768 LINE",
"157 578 LINE",
"177 553 LINE"
);
}
);
width = 569;
}
);
unicode = 00F0;
},
{
color = 6;
glyphname = e;
lastChange = "2023-09-29 09:16:23 +0000";
layers = (
{
anchors = (
{
name = bottom;
position = "{274, 0}";
},
{
name = ogonek;
position = "{354, 0}";
},
{
name = top;
position = "{274, 520}";
}
);
layerId = m004;
paths = (
{
closed = 1;
nodes = (
"360 -10 OFFCURVE",
"423 20 OFFCURVE",
"487 94 CURVE",
"467 113 LINE",
"418 76 OFFCURVE",
"376 61 OFFCURVE",
"329 61 CURVE SMOOTH",
"204 61 OFFCURVE",
"127 161 OFFCURVE",
"127 296 CURVE SMOOTH",
"127 415 OFFCURVE",
"188 491 OFFCURVE",
"277 491 CURVE SMOOTH",
"342 491 OFFCURVE",
"378 452 OFFCURVE",
"378 385 CURVE SMOOTH",
"378 373 OFFCURVE",
"377 361 OFFCURVE",
"375 348 CURVE",
"111 348 LINE",
"111 310 LINE",
"470 310 LINE",
"472 324 LINE SMOOTH",
"474 338 OFFCURVE",
"474 346 OFFCURVE",
"474 354 CURVE SMOOTH",
"474 469 OFFCURVE",
"404 530 OFFCURVE",
"299 530 CURVE SMOOTH",
"154 530 OFFCURVE",
"36 412 OFFCURVE",
"36 251 CURVE SMOOTH",
"36 103 OFFCURVE",
"134 -10 OFFCURVE",
"283 -10 CURVE SMOOTH"
);
}
);
width = 517;
}
);
leftKerningGroup = o;
rightKerningGroup = e;
unicode = 0065;
},
{
color = 6;
glyphname = f;
lastChange = "2023-09-29 09:16:23 +0000";
layers = (
{
anchors = (
{
name = bottom;
position = "{201, 0}";
},
{
name = top;
position = "{201, 800}";
}
);
layerId = m004;
paths = (
{
closed = 1;
nodes = (
"298 0 LINE",
"298 30 LINE",
"253 36 LINE SMOOTH",
"212 41 OFFCURVE",
"198 58 OFFCURVE",
"198 104 CURVE SMOOTH",
"198 460 LINE",
"342 460 LINE",
"368 505 LINE",
"368 520 LINE",
"198 520 LINE",
"198 573 LINE SMOOTH",
"198 680 OFFCURVE",
"272 757 OFFCURVE",
"322 757 CURVE SMOOTH",
"330 757 OFFCURVE",
"338 755 OFFCURVE",
"345 752 CURVE SMOOTH",
"422 716 LINE SMOOTH",
"449 703 OFFCURVE",
"477 726 OFFCURVE",
"477 749 CURVE SMOOTH",
"477 782 OFFCURVE",
"427 804 OFFCURVE",
"375 804 CURVE SMOOTH",
"242 804 OFFCURVE",
"108 681 OFFCURVE",
"108 536 CURVE SMOOTH",
"108 520 LINE",
"45 520 LINE",
"19 475 LINE",
"19 460 LINE",
"108 460 LINE",
"108 94 LINE SMOOTH",
"108 53 OFFCURVE",
"99 42 OFFCURVE",
"58 35 CURVE SMOOTH",
"28 30 LINE",
"28 0 LINE"
);
}
);
width = 367;
}
);
leftKerningGroup = f;
rightKerningGroup = f;
unicode = 0066;
},
{
color = 6;
glyphname = g;
lastChange = "2023-09-29 09:16:23 +0000";
layers = (
{
anchors = (
{
name = bottom;
position = "{255, -257}";
},
{
name = top;
position = "{255, 520}";
}
);
layerId = m004;
paths = (
{
closed = 1;
nodes = (
"372 -257 OFFCURVE",
"499 -160 OFFCURVE",
"499 -36 CURVE SMOOTH",
"499 35 OFFCURVE",
"458 72 OFFCURVE",
"371 79 CURVE SMOOTH",
"180 95 LINE SMOOTH",
"148 98 OFFCURVE",
"135 108 OFFCURVE",
"135 126 CURVE SMOOTH",
"135 136 OFFCURVE",
"139 143 OFFCURVE",
"158 165 CURVE SMOOTH",
"188 199 LINE",
"145 199 LINE",
"114 169 LINE SMOOTH",
"77 134 OFFCURVE",
"50 117 OFFCURVE",
"50 83 CURVE SMOOTH",
"50 41 OFFCURVE",
"91 14 OFFCURVE",
"153 9 CURVE SMOOTH",
"346 -5 LINE SMOOTH",
"423 -11 OFFCURVE",
"448 -28 OFFCURVE",
"448 -72 CURVE SMOOTH",
"448 -142 OFFCURVE",
"381 -188 OFFCURVE",
"269 -188 CURVE SMOOTH",
"167 -188 OFFCURVE",
"106 -156 OFFCURVE",
"106 -96 CURVE SMOOTH",
"106 -59 OFFCURVE",
"131 -30 OFFCURVE",
"177 22 CURVE",
"139 28 LINE",
"84 -27 LINE SMOOTH",
"38 -73 OFFCURVE",
"27 -107 OFFCURVE",
"27 -135 CURVE SMOOTH",
"27 -207 OFFCURVE",
"101 -257 OFFCURVE",
"215 -257 CURVE SMOOTH"
);
},
{
closed = 1;
nodes = (
"348 176 OFFCURVE",
"432 252 OFFCURVE",
"432 356 CURVE SMOOTH",
"432 445 OFFCURVE",
"370 511 OFFCURVE",
"279 527 CURVE",
"238 530 LINE",
"123 530 OFFCURVE",
"40 456 OFFCURVE",
"40 352 CURVE SMOOTH",
"40 249 OFFCURVE",
"121 176 OFFCURVE",
"234 176 CURVE SMOOTH"
);
},
{
closed = 1;
nodes = (
"173 215 OFFCURVE",
"128 273 OFFCURVE",
"128 365 CURVE SMOOTH",
"128 446 OFFCURVE",
"164 491 OFFCURVE",
"228 491 CURVE SMOOTH",
"299 491 OFFCURVE",
"344 433 OFFCURVE",
"344 341 CURVE SMOOTH",
"344 260 OFFCURVE",
"308 215 OFFCURVE",
"244 215 CURVE SMOOTH"
);
},
{
closed = 1;
nodes = (
"505 515 LINE",
"505 578 LINE",
"486 578 LINE",
"238 530 LINE",
"238 515 LINE"
);
}
);
width = 510;
}
);
leftKerningGroup = g;
rightKerningGroup = g;
unicode = 0067;
},
{
color = 6;
glyphname = h;
lastChange = "2023-09-29 09:16:23 +0000";
layers = (
{
anchors = (
{
name = bottom;
position = "{308, 0}";
},
{
name = center;
position = "{308, 400}";
},
{
name = top;
position = "{139, 742}";
}
);
layerId = m004;
paths = (
{
closed = 1;
nodes = (
"264 0 LINE",
"264 30 LINE",
"234 35 LINE SMOOTH",
"194 42 OFFCURVE",
"184 52 OFFCURVE",
"184 94 CURVE SMOOTH",
"184 414 LINE",
"227 452 OFFCURVE",
"265 470 OFFCURVE",
"317 470 CURVE SMOOTH",
"396 470 OFFCURVE",
"434 437 OFFCURVE",
"434 364 CURVE SMOOTH",
"434 94 LINE SMOOTH",
"434 52 OFFCURVE",
"424 42 OFFCURVE",
"384 35 CURVE SMOOTH",
"354 30 LINE",
"354 0 LINE",
"604 0 LINE",
"604 30 LINE",
"574 35 LINE SMOOTH",
"534 42 OFFCURVE",
"524 52 OFFCURVE",
"524 94 CURVE SMOOTH",
"524 394 LINE SMOOTH",
"524 480 OFFCURVE",
"467 530 OFFCURVE",
"372 530 CURVE SMOOTH",
"295 530 OFFCURVE",
"252 509 OFFCURVE",
"190 456 CURVE",
"184 456 LINE",
"184 800 LINE",
"170 800 LINE",
"16 756 LINE",
"16 731 LINE",
"83 723 OFFCURVE",
"94 708 OFFCURVE",
"94 666 CURVE SMOOTH",
"94 94 LINE SMOOTH",
"94 52 OFFCURVE",
"84 42 OFFCURVE",
"44 35 CURVE SMOOTH",
"14 30 LINE",
"14 0 LINE"
);
}
);
width = 616;
}
);
leftKerningGroup = h;
rightKerningGroup = n;
unicode = 0068;
},
{
color = 3;
glyphname = hbar;
lastChange = "2023-09-29 09:16:23 +0000";
layers = (
{
components = (
{
name = h;
}
);
layerId = m004;
paths = (
{
closed = 1;
nodes = (
"335 597 LINE",
"335 635 LINE",
"19 635 LINE",
"19 597 LINE"
);
}
);
width = 616;
}
);
leftKerningGroup = h;
rightKerningGroup = n;
unicode = 0127;
},
{
color = 6;
glyphname = idotless;
lastChange = "2023-09-29 09:16:23 +0000";
layers = (
{
anchors = (
{
name = bottom;
position = "{147, 0}";
},
{
name = ogonek;
position = "{212, 0}";
},
{
name = top;
position = "{137, 520}";
}
);
layerId = m004;
paths = (
{
closed = 1;
nodes = (
"272 0 LINE",
"272 30 LINE",
"242 35 LINE SMOOTH",
"202 42 OFFCURVE",
"192 52 OFFCURVE",
"192 94 CURVE SMOOTH",
"192 526 LINE",
"178 526 LINE",
"24 482 LINE",
"24 457 LINE",
"91 449 OFFCURVE",
"102 434 OFFCURVE",
"102 392 CURVE SMOOTH",
"102 94 LINE SMOOTH",
"102 52 OFFCURVE",
"92 42 OFFCURVE",
"52 35 CURVE SMOOTH",
"22 30 LINE",
"22 0 LINE"
);
}
);
width = 287;
}
);
leftKerningGroup = i;
rightKerningGroup = i;
unicode = 0131;
},
{
color = 6;
glyphname = jdotless;
lastChange = "2023-09-29 09:16:23 +0000";
layers = (
{
anchors = (
{
name = bottom;
position = "{137, -257}";
},
{
name = top;
position = "{137, 520}";
}
);
layerId = m004;
paths = (
{
closed = 1;
nodes = (
"122 -257 OFFCURVE",
"182 -144 OFFCURVE",
"182 -9 CURVE SMOOTH",
"182 526 LINE",
"168 526 LINE",
"14 482 LINE",
"14 457 LINE",
"81 449 OFFCURVE",
"92 434 OFFCURVE",
"92 392 CURVE SMOOTH",
"92 -56 LINE SMOOTH",
"92 -144 OFFCURVE",
"83 -211 OFFCURVE",
"45 -211 CURVE SMOOTH",
"39 -211 OFFCURVE",
"33 -209 OFFCURVE",
"26 -206 CURVE SMOOTH",
"-45 -175 LINE SMOOTH",
"-69 -165 OFFCURVE",
"-101 -188 OFFCURVE",
"-101 -213 CURVE SMOOTH",
"-101 -238 OFFCURVE",
"-56 -257 OFFCURVE",
"-12 -257 CURVE SMOOTH"
);
}
);
width = 256;
}
);
leftKerningGroup = j;
rightKerningGroup = j;
unicode = 0237;
},
{
color = 6;
glyphname = k;
lastChange = "2023-09-29 09:16:23 +0000";
layers = (
{
anchors = (
{
name = bottom;
position = "{290, 0}";
},
{
name = top;
position = "{290, 800}";
}
);
layerId = m004;
paths = (
{
closed = 1;
nodes = (
"264 0 LINE",
"264 30 LINE",
"234 35 LINE SMOOTH",
"194 42 OFFCURVE",
"184 52 OFFCURVE",
"184 94 CURVE SMOOTH",
"184 800 LINE",
"170 800 LINE",
"16 756 LINE",
"16 731 LINE",
"83 723 OFFCURVE",
"94 708 OFFCURVE",
"94 666 CURVE SMOOTH",
"94 94 LINE SMOOTH",
"94 52 OFFCURVE",
"84 42 OFFCURVE",
"44 35 CURVE SMOOTH",
"14 30 LINE",
"14 0 LINE"
);
},
{
closed = 1;
nodes = (
"577 0 LINE",
"577 30 LINE",
"557 32 LINE SMOOTH",
"526 35 OFFCURVE",
"499 56 OFFCURVE",
"467 108 CURVE SMOOTH",
"320 348 LINE",
"256 290 LINE",
"368 108 LINE SMOOTH",
"391 70 OFFCURVE",
"407 34 OFFCURVE",
"347 31 CURVE SMOOTH",
"325 30 LINE",
"325 0 LINE"
);
},
{
closed = 1;
nodes = (
"452 441 LINE SMOOTH",
"491 476 OFFCURVE",
"523 487 OFFCURVE",
"577 490 CURVE",
"577 520 LINE",
"330 520 LINE",
"330 490 LINE",
"354 489 LINE SMOOTH",
"406 487 OFFCURVE",
"412 462 OFFCURVE",
"366 419 CURVE SMOOTH",
"124 191 LINE",
"152 165 LINE"
);
}
);
width = 586;
}
);
leftKerningGroup = h;
rightKerningGroup = k;
unicode = 006B;
},
{
color = 6;
glyphname = l;
lastChange = "2023-09-29 09:16:23 +0000";
layers = (
{
anchors = (
{
name = bottom;
position = "{140, 0}";
},
{
name = center;
position = "{140, 400}";
},
{
name = top;
position = "{140, 800}";
},
{
name = topright;
position = "{270, 800}";
}
);
layerId = m004;
paths = (
{
closed = 1;
nodes = (
"264 0 LINE",
"264 30 LINE",
"234 35 LINE SMOOTH",
"194 42 OFFCURVE",
"184 52 OFFCURVE",
"184 94 CURVE SMOOTH",
"184 800 LINE",
"170 800 LINE",
"16 756 LINE",
"16 731 LINE",
"83 723 OFFCURVE",
"94 708 OFFCURVE",
"94 666 CURVE SMOOTH",
"94 94 LINE SMOOTH",
"94 52 OFFCURVE",
"84 42 OFFCURVE",
"44 35 CURVE SMOOTH",
"14 30 LINE",
"14 0 LINE"
);
}
);
width = 278;
}
);
leftKerningGroup = l;
rightKerningGroup = l;
unicode = 006C;
},
{
color = 3;
glyphname = lcaron;
lastChange = "2023-09-29 09:16:23 +0000";
layers = (
{
components = (
{
name = l;
}
);
layerId = m004;
paths = (
{
closed = 1;
nodes = (
"333 600 OFFCURVE",
"371 641 OFFCURVE",
"371 702 CURVE SMOOTH",
"371 742 OFFCURVE",
"348 780 OFFCURVE",
"303 780 CURVE SMOOTH",
"269 780 OFFCURVE",
"244 756 OFFCURVE",
"244 724 CURVE SMOOTH",
"244 692 OFFCURVE",
"268 670 OFFCURVE",
"298 670 CURVE SMOOTH",
"329 670 OFFCURVE",
"352 693 OFFCURVE",
"352 725 CURVE",
"329 693 LINE",
"329 652 OFFCURVE",
"305 622 OFFCURVE",
"248 588 CURVE",
"265 564 LINE"
);
}
);
width = 291;
}
);
leftKerningGroup = l;
rightKerningGroup = l;
unicode = 013E;
},
{
color = 3;
glyphname = lslash;
lastChange = "2023-09-29 09:16:23 +0000";
layers = (
{
components = (
{
name = l;
transform = "{1, 0, 0, 1, 13, 0}";
}
);
guideLines = (
{
angle = 90;
position = "{273, 30}";
}
);
layerId = m004;
paths = (
{
closed = 1;
nodes = (
"282 419 LINE",
"282 461 LINE",
"32 359 LINE",
"32 317 LINE"
);
}
);
width = 308;
}
);
unicode = 0142;
},
{
color = 6;
glyphname = m;
lastChange = "2023-09-29 09:16:23 +0000";
layers = (
{
anchors = (
{
name = bottom;
position = "{456, 0}";
},
{
name = top;
position = "{456, 520}";
}
);
layerId = m004;
paths = (
{
closed = 1;
nodes = (
"272 0 LINE",
"272 30 LINE",
"242 35 LINE SMOOTH",
"202 42 OFFCURVE",
"192 52 OFFCURVE",
"192 94 CURVE SMOOTH",
"192 414 LINE",
"235 452 OFFCURVE",
"273 470 OFFCURVE",
"323 470 CURVE SMOOTH",
"374 470 OFFCURVE",
"412 457 OFFCURVE",
"412 377 CURVE SMOOTH",
"412 94 LINE SMOOTH",
"412 52 OFFCURVE",
"402 42 OFFCURVE",
"362 35 CURVE SMOOTH",
"332 30 LINE",
"332 0 LINE",
"582 0 LINE",
"582 30 LINE",
"552 35 LINE SMOOTH",
"512 42 OFFCURVE",
"502 52 OFFCURVE",
"502 94 CURVE SMOOTH",
"502 414 LINE",
"547 453 OFFCURVE",
"584 470 OFFCURVE",
"633 470 CURVE SMOOTH",
"684 470 OFFCURVE",
"722 457 OFFCURVE",
"722 377 CURVE SMOOTH",
"722 94 LINE SMOOTH",
"722 52 OFFCURVE",
"712 42 OFFCURVE",
"672 35 CURVE SMOOTH",
"642 30 LINE",
"642 0 LINE",
"892 0 LINE",
"892 30 LINE",
"862 35 LINE SMOOTH",
"822 42 OFFCURVE",
"812 52 OFFCURVE",
"812 94 CURVE SMOOTH",
"812 407 LINE SMOOTH",
"812 500 OFFCURVE",
"752 530 OFFCURVE",
"679 530 CURVE SMOOTH",
"617 530 OFFCURVE",
"569 509 OFFCURVE",
"500 450 CURVE",
"449 450 LINE",
"501 419 LINE",
"493 504 OFFCURVE",
"437 530 OFFCURVE",
"369 530 CURVE SMOOTH",
"307 530 OFFCURVE",
"259 509 OFFCURVE",
"195 453 CURVE",
"189 453 LINE",
"189 526 LINE",
"175 526 LINE",
"24 482 LINE",
"24 457 LINE",
"91 449 OFFCURVE",
"102 434 OFFCURVE",
"102 392 CURVE SMOOTH",
"102 94 LINE SMOOTH",
"102 52 OFFCURVE",
"92 42 OFFCURVE",
"52 35 CURVE SMOOTH",
"22 30 LINE",
"22 0 LINE"
);
}
);
width = 905;
}
);
leftKerningGroup = n;
rightKerningGroup = n;
unicode = 006D;
},
{
color = 6;
glyphname = n;
lastChange = "2023-09-29 09:16:23 +0000";
layers = (
{
anchors = (
{
name = bottom;
position = "{316, 0}";
},
{
name = top;
position = "{311, 520}";
}
);
layerId = m004;
paths = (
{
closed = 1;
nodes = (
"272 0 LINE",
"272 30 LINE",
"242 35 LINE SMOOTH",
"202 42 OFFCURVE",
"192 52 OFFCURVE",
"192 94 CURVE SMOOTH",
"192 414 LINE",
"235 452 OFFCURVE",
"273 470 OFFCURVE",
"325 470 CURVE SMOOTH",
"404 470 OFFCURVE",
"442 437 OFFCURVE",
"442 364 CURVE SMOOTH",
"442 94 LINE SMOOTH",
"442 52 OFFCURVE",
"432 42 OFFCURVE",
"392 35 CURVE SMOOTH",
"362 30 LINE",
"362 0 LINE",
"612 0 LINE",
"612 30 LINE",
"582 35 LINE SMOOTH",
"542 42 OFFCURVE",
"532 52 OFFCURVE",
"532 94 CURVE SMOOTH",
"532 394 LINE SMOOTH",
"532 480 OFFCURVE",
"475 530 OFFCURVE",
"380 530 CURVE SMOOTH",
"307 530 OFFCURVE",
"259 509 OFFCURVE",
"195 453 CURVE",
"189 453 LINE",
"189 526 LINE",
"175 526 LINE",
"24 482 LINE",
"24 457 LINE",
"91 449 OFFCURVE",
"102 434 OFFCURVE",
"102 392 CURVE SMOOTH",
"102 94 LINE SMOOTH",
"102 52 OFFCURVE",
"92 42 OFFCURVE",
"52 35 CURVE SMOOTH",
"22 30 LINE",
"22 0 LINE"
);
}
);
width = 624;
}
);
leftKerningGroup = n;
rightKerningGroup = n;
unicode = 006E;
},
{
color = 6;
glyphname = o;
lastChange = "2023-09-29 09:16:23 +0000";
layers = (
{
anchors = (
{
name = bottom;
position = "{307, 0}";
},
{
name = center;
position = "{307, 260}";
},
{
name = ogonek;
position = "{556, 10}";
},
{
name = top;
position = "{303, 520}";
},
{
name = topright;
position = "{598, 520}";
}
);
layerId = m004;
paths = (
{
closed = 1;
nodes = (
"469 -10 OFFCURVE",
"577 108 OFFCURVE",
"577 261 CURVE SMOOTH",
"577 421 OFFCURVE",
"468 530 OFFCURVE",
"306 530 CURVE SMOOTH",
"144 530 OFFCURVE",
"36 412 OFFCURVE",
"36 260 CURVE SMOOTH",
"36 99 OFFCURVE",
"145 -10 OFFCURVE",
"306 -10 CURVE SMOOTH"
);
},
{
closed = 1;
nodes = (
"198 29 OFFCURVE",
"133 151 OFFCURVE",
"133 285 CURVE SMOOTH",
"133 423 OFFCURVE",
"200 491 OFFCURVE",
"291 491 CURVE SMOOTH",
"415 491 OFFCURVE",
"480 369 OFFCURVE",
"480 234 CURVE SMOOTH",
"480 97 OFFCURVE",
"413 29 OFFCURVE",
"322 29 CURVE SMOOTH"
);
}
);
width = 613;
}
);
leftKerningGroup = o;
rightKerningGroup = o;
unicode = 006F;
},
{
color = 3;
glyphname = oslash;
lastChange = "2023-09-29 09:16:23 +0000";
layers = (
{
anchors = (
{
name = top;
position = "{295, 520}";
}
);
components = (
{
name = o;
transform = "{1, 0, 0, 1, 0, 1}";
}
);
layerId = m004;
paths = (
{
closed = 1;
nodes = (
"136 -48 LINE",
"526 570 LINE",
"478 570 LINE",
"88 -48 LINE"
);
}
);
width = 613;
}
);
leftKerningGroup = o;
rightKerningGroup = o;
unicode = 00F8;
},
{
color = 6;
glyphname = oe;
lastChange = "2023-09-29 09:16:23 +0000";
layers = (
{
anchors = (
{
name = bottom;
position = "{295, 0}";
},
{
name = center;
position = "{307, 260}";
},
{
name = ogonek;
position = "{1092, 10}";
},
{
name = top;
position = "{295, 520}";
},
{
name = topright;
position = "{598, 520}";
}
);
layerId = m004;
paths = (
{
closed = 1;
nodes = (
"404 -10 OFFCURVE",
"488 42 OFFCURVE",
"533 122 CURVE",
"531 405 LINE",
"486 483 OFFCURVE",
"403 530 OFFCURVE",
"306 530 CURVE SMOOTH",
"144 530 OFFCURVE",
"36 412 OFFCURVE",
"36 260 CURVE SMOOTH",
"36 99 OFFCURVE",
"145 -10 OFFCURVE",
"306 -10 CURVE SMOOTH"
);
},
{
closed = 1;
nodes = (
"198 29 OFFCURVE",
"133 151 OFFCURVE",
"133 285 CURVE SMOOTH",
"133 423 OFFCURVE",
"200 491 OFFCURVE",
"291 491 CURVE SMOOTH",
"405 491 OFFCURVE",
"470 369 OFFCURVE",
"470 234 CURVE SMOOTH",
"470 97 OFFCURVE",
"403 29 OFFCURVE",
"322 29 CURVE SMOOTH"
);
},
{
closed = 1;
nodes = (
"794 -10 OFFCURVE",
"857 20 OFFCURVE",
"921 94 CURVE",
"901 113 LINE",
"852 76 OFFCURVE",
"810 61 OFFCURVE",
"763 61 CURVE SMOOTH",
"638 61 OFFCURVE",
"561 161 OFFCURVE",
"561 296 CURVE SMOOTH",
"561 415 OFFCURVE",
"622 491 OFFCURVE",
"711 491 CURVE SMOOTH",
"787 491 OFFCURVE",
"824 437 OFFCURVE",
"809 348 CURVE",
"545 348 LINE",
"545 310 LINE",
"904 310 LINE",
"907 329 LINE",
"918 460 OFFCURVE",
"845 530 OFFCURVE",
"733 530 CURVE SMOOTH",
"588 530 OFFCURVE",
"470 412 OFFCURVE",
"470 251 CURVE SMOOTH",
"470 103 OFFCURVE",
"568 -10 OFFCURVE",
"717 -10 CURVE SMOOTH"
);
}
);
width = 951;
}
);
leftKerningGroup = o;
rightKerningGroup = e;
unicode = 0153;
},
{
color = 6;
glyphname = p;
lastChange = "2023-09-29 09:16:23 +0000";
layers = (
{
anchors = (
{
name = bottom;
position = "{309, 0}";
},
{
name = top;
position = "{309, 520}";
}
);
layerId = m004;
paths = (
{
closed = 1;
nodes = (
"282 -247 LINE",
"282 -217 LINE",
"237 -211 LINE SMOOTH",
"196 -206 OFFCURVE",
"182 -189 OFFCURVE",
"182 -143 CURVE SMOOTH",
"182 19 LINE",
"220 0 OFFCURVE",
"264 -10 OFFCURVE",
"309 -10 CURVE SMOOTH",
"468 -10 OFFCURVE",
"588 108 OFFCURVE",
"588 275 CURVE SMOOTH",
"588 426 OFFCURVE",
"493 530 OFFCURVE",
"355 530 CURVE SMOOTH",
"291 530 OFFCURVE",
"241 507 OFFCURVE",
"185 453 CURVE",
"179 453 LINE",
"179 526 LINE",
"165 526 LINE",
"14 482 LINE",
"14 457 LINE",
"81 449 OFFCURVE",
"92 434 OFFCURVE",
"92 392 CURVE SMOOTH",
"92 -153 LINE SMOOTH",
"92 -194 OFFCURVE",
"83 -205 OFFCURVE",
"42 -212 CURVE SMOOTH",
"12 -217 LINE",
"12 -247 LINE"
);
},
{
closed = 1;
nodes = (
"230 28 OFFCURVE",
"182 87 OFFCURVE",
"182 183 CURVE SMOOTH",
"182 413 LINE",
"219 447 OFFCURVE",
"266 465 OFFCURVE",
"315 465 CURVE SMOOTH",
"427 465 OFFCURVE",
"494 373 OFFCURVE",
"494 236 CURVE SMOOTH",
"494 104 OFFCURVE",
"431 28 OFFCURVE",
"324 28 CURVE SMOOTH"
);
}
);
width = 624;
}
);
leftKerningGroup = n;
rightKerningGroup = b;
unicode = 0070;
},
{
color = 6;
glyphname = thorn;
lastChange = "2023-09-29 09:16:23 +0000";
layers = (
{
anchors = (
{
name = bottom;
position = "{270, 0}";
},
{
name = top;
position = "{270, 520}";
}
);
layerId = m004;
paths = (
{
closed = 1;
nodes = (
"264 -247 LINE",
"264 -217 LINE",
"219 -211 LINE SMOOTH",
"178 -206 OFFCURVE",
"164 -189 OFFCURVE",
"164 -143 CURVE SMOOTH",
"164 19 LINE",
"202 0 OFFCURVE",
"246 -10 OFFCURVE",
"291 -10 CURVE SMOOTH",
"450 -10 OFFCURVE",
"570 108 OFFCURVE",
"570 275 CURVE SMOOTH",
"570 426 OFFCURVE",
"475 530 OFFCURVE",
"337 530 CURVE SMOOTH",
"273 530 OFFCURVE",
"223 507 OFFCURVE",
"170 453 CURVE",
"161 453 LINE",
"161 526 LINE",
"74 392 LINE",
"74 -153 LINE SMOOTH",
"74 -194 OFFCURVE",
"65 -205 OFFCURVE",
"24 -212 CURVE SMOOTH",
"-6 -217 LINE",
"-6 -247 LINE"
);
},
{
closed = 1;
nodes = (
"153 433 LINE",
"170 453 LINE",
"164 453 LINE",
"164 800 LINE",
"150 800 LINE",
"-4 756 LINE",
"-4 731 LINE",
"63 723 OFFCURVE",
"74 708 OFFCURVE",
"74 666 CURVE SMOOTH",
"74 -10 LINE"
);
},
{
closed = 1;
nodes = (
"212 28 OFFCURVE",
"164 87 OFFCURVE",
"164 183 CURVE SMOOTH",
"164 413 LINE",
"201 447 OFFCURVE",
"248 465 OFFCURVE",
"297 465 CURVE SMOOTH",
"409 465 OFFCURVE",
"476 373 OFFCURVE",
"476 236 CURVE SMOOTH",
"476 104 OFFCURVE",
"413 28 OFFCURVE",
"306 28 CURVE SMOOTH"
);
}
);
width = 606;
}
);
leftKerningGroup = b;
rightKerningGroup = b;
unicode = 00FE;
},
{
color = 6;
glyphname = q;
lastChange = "2023-09-29 09:16:23 +0000";
layers = (
{
anchors = (
{
name = bottom;
position = "{307, 0}";
},
{
name = top;
position = "{307, 520}";
}
);
layerId = m004;
paths = (
{
closed = 1;
nodes = (
"611 -247 LINE",
"611 -217 LINE",
"581 -212 LINE SMOOTH",
"541 -205 OFFCURVE",
"532 -195 OFFCURVE",
"532 -153 CURVE SMOOTH",
"532 530 LINE",
"502 530 LINE",
"472 490 LINE",
"419 517 OFFCURVE",
"368 530 OFFCURVE",
"315 530 CURVE SMOOTH",
"154 530 OFFCURVE",
"36 410 OFFCURVE",
"36 246 CURVE SMOOTH",
"36 97 OFFCURVE",
"133 -10 OFFCURVE",
"267 -10 CURVE SMOOTH",
"331 -10 OFFCURVE",
"388 16 OFFCURVE",
"436 67 CURVE",
"442 67 LINE",
"442 -143 LINE SMOOTH",
"442 -189 OFFCURVE",
"428 -205 OFFCURVE",
"386 -211 CURVE SMOOTH",
"341 -217 LINE",
"341 -247 LINE"
);
},
{
closed = 1;
nodes = (
"205 55 OFFCURVE",
"130 152 OFFCURVE",
"130 293 CURVE SMOOTH",
"130 423 OFFCURVE",
"192 492 OFFCURVE",
"301 492 CURVE SMOOTH",
"391 492 OFFCURVE",
"442 434 OFFCURVE",
"442 336 CURVE SMOOTH",
"442 110 LINE",
"401 70 OFFCURVE",
"366 55 OFFCURVE",
"313 55 CURVE SMOOTH"
);
}
);
width = 606;
}
);
leftKerningGroup = d;
rightKerningGroup = u;
unicode = 0071;
},
{
color = 6;
glyphname = r;
lastChange = "2023-09-29 09:16:23 +0000";
layers = (
{
anchors = (
{
name = bottom;
position = "{157, 0}";
},
{
name = top;
position = "{207, 520}";
}
);
layerId = m004;
paths = (
{
closed = 1;
nodes = (
"292 0 LINE",
"292 30 LINE",
"242 36 LINE SMOOTH",
"202 41 OFFCURVE",
"192 52 OFFCURVE",
"192 94 CURVE SMOOTH",
"192 391 LINE SMOOTH",
"192 397 OFFCURVE",
"262 478 OFFCURVE",
"293 460 CURVE SMOOTH",
"341 432 LINE SMOOTH",
"372 414 OFFCURVE",
"416 441 OFFCURVE",
"416 474 CURVE SMOOTH",
"416 506 OFFCURVE",
"391 528 OFFCURVE",
"343 528 CURVE SMOOTH",
"280 528 OFFCURVE",
"231 494 OFFCURVE",
"198 446 CURVE",
"189 446 LINE",
"189 526 LINE",
"175 526 LINE",
"24 482 LINE",
"24 457 LINE",
"87 449 OFFCURVE",
"102 437 OFFCURVE",
"102 392 CURVE SMOOTH",
"102 94 LINE SMOOTH",
"102 53 OFFCURVE",
"93 42 OFFCURVE",
"52 35 CURVE SMOOTH",
"22 30 LINE",
"22 0 LINE"
);
}
);
width = 417;
}
);
leftKerningGroup = n;
rightKerningGroup = r;
unicode = 0072;
},
{
color = 6;
glyphname = s;
lastChange = "2023-09-29 09:16:23 +0000";
layers = (
{
anchors = (
{
name = bottom;
position = "{218, 0}";
},
{
name = top;
position = "{218, 520}";
}
);
layerId = m004;
paths = (
{
closed = 1;
nodes = (
"297 -10 OFFCURVE",
"389 46 OFFCURVE",
"389 150 CURVE SMOOTH",
"389 217 OFFCURVE",
"350 250 OFFCURVE",
"276 288 CURVE SMOOTH",
"210 322 LINE SMOOTH",
"156 350 OFFCURVE",
"135 376 OFFCURVE",
"135 413 CURVE SMOOTH",
"135 458 OFFCURVE",
"168 493 OFFCURVE",
"228 493 CURVE SMOOTH",
"299 493 OFFCURVE",
"332 443 OFFCURVE",
"345 386 CURVE",
"374 386 LINE",
"374 502 LINE",
"339 518 OFFCURVE",
"295 530 OFFCURVE",
"246 530 CURVE SMOOTH",
"136 530 OFFCURVE",
"56 469 OFFCURVE",
"56 380 CURVE SMOOTH",
"56 335 OFFCURVE",
"76 289 OFFCURVE",
"162 244 CURVE SMOOTH",
"234 206 LINE SMOOTH",
"280 182 OFFCURVE",
"310 161 OFFCURVE",
"310 114 CURVE SMOOTH",
"310 62 OFFCURVE",
"273 27 OFFCURVE",
"212 27 CURVE SMOOTH",
"148 27 OFFCURVE",
"93 64 OFFCURVE",
"78 158 CURVE",
"49 158 LINE",
"49 23 LINE",
"85 3 OFFCURVE",
"148 -10 OFFCURVE",
"199 -10 CURVE SMOOTH"
);
}
);
width = 431;
}
);
leftKerningGroup = s;
rightKerningGroup = s;
unicode = 0073;
},
{
color = 6;
glyphname = germandbls;
lastChange = "2023-09-29 09:16:23 +0000";
layers = (
{
anchors = (
{
name = bottom;
position = "{408, 0}";
},
{
name = top;
position = "{408, 520}";
}
);
layerId = m004;
paths = (
{
closed = 1;
nodes = (
"564 -10 OFFCURVE",
"656 46 OFFCURVE",
"656 150 CURVE SMOOTH",
"656 222 OFFCURVE",
"615 253 OFFCURVE",
"543 295 CURVE SMOOTH",
"487 328 LINE SMOOTH",
"442 355 OFFCURVE",
"412 373 OFFCURVE",
"412 410 CURVE SMOOTH",
"412 447 OFFCURVE",
"443 477 OFFCURVE",
"477 503 CURVE SMOOTH",
"529 542 OFFCURVE",
"582 574 OFFCURVE",
"582 655 CURVE SMOOTH",
"582 761 OFFCURVE",
"484 804 OFFCURVE",
"385 804 CURVE SMOOTH",
"232 804 OFFCURVE",
"108 691 OFFCURVE",
"108 546 CURVE SMOOTH",
"108 520 LINE",
"45 520 LINE",
"19 475 LINE",
"19 460 LINE",
"108 460 LINE",
"108 94 LINE SMOOTH",
"108 53 OFFCURVE",
"99 42 OFFCURVE",
"58 35 CURVE SMOOTH",
"28 30 LINE",
"28 0 LINE",
"285 0 LINE",
"285 30 LINE",
"254 36 LINE SMOOTH",
"213 44 OFFCURVE",
"198 58 OFFCURVE",
"198 104 CURVE SMOOTH",
"198 593 LINE SMOOTH",
"198 695 OFFCURVE",
"252 761 OFFCURVE",
"352 761 CURVE SMOOTH",
"435 761 OFFCURVE",
"493 712 OFFCURVE",
"493 633 CURVE SMOOTH",
"493 581 OFFCURVE",
"470 547 OFFCURVE",
"432 518 CURVE SMOOTH",
"389 486 OFFCURVE",
"333 452 OFFCURVE",
"333 385 CURVE SMOOTH",
"333 327 OFFCURVE",
"363 295 OFFCURVE",
"439 250 CURVE SMOOTH",
"501 213 LINE SMOOTH",
"545 187 OFFCURVE",
"577 166 OFFCURVE",
"577 114 CURVE SMOOTH",
"577 62 OFFCURVE",
"540 27 OFFCURVE",
"484 27 CURVE SMOOTH",
"421 27 OFFCURVE",
"371 61 OFFCURVE",
"356 145 CURVE",
"326 145 LINE",
"326 20 LINE",
"362 0 OFFCURVE",
"425 -10 OFFCURVE",
"471 -10 CURVE SMOOTH"
);
}
);
width = 672;
}
);
leftKerningGroup = f;
unicode = 00DF;
},
{
color = 6;
glyphname = t;
lastChange = "2023-09-29 09:16:23 +0000";
layers = (
{
anchors = (
{
name = bottom;
position = "{218, 0}";
},
{
name = center;
position = "{208, 260}";
},
{
name = top;
position = "{208, 520}";
},
{
name = topright;
position = "{383, 520}";
}
);
guideLines = (
{
angle = 60;
position = "{336, 460}";
}
);
layerId = m004;
paths = (
{
closed = 1;
nodes = (
"297 -10 OFFCURVE",
"355 30 OFFCURVE",
"397 73 CURVE",
"379 94 LINE",
"349 77 OFFCURVE",
"318 61 OFFCURVE",
"273 61 CURVE SMOOTH",
"220 61 OFFCURVE",
"176 74 OFFCURVE",
"176 153 CURVE SMOOTH",
"176 493 LINE",
"176 522 LINE",
"176 604 LINE",
"146 604 LINE",
"115 556 OFFCURVE",
"73 518 OFFCURVE",
"22 490 CURVE",
"22 460 LINE",
"85 460 LINE",
"85 126 LINE SMOOTH",
"85 30 OFFCURVE",
"138 -10 OFFCURVE",
"221 -10 CURVE SMOOTH"
);
},
{
closed = 1;
nodes = (
"359 460 LINE",
"385 505 LINE",
"385 520 LINE",
"132 520 LINE",
"132 460 LINE"
);
}
);
width = 391;
}
);
leftKerningGroup = t;
rightKerningGroup = t;
unicode = 0074;
},
{
color = 3;
glyphname = tcaron;
lastChange = "2023-09-29 09:16:23 +0000";
layers = (
{
components = (
{
name = t;
}
);
layerId = m004;
paths = (
{
closed = 1;
nodes = (
"333 600 OFFCURVE",
"371 641 OFFCURVE",
"371 702 CURVE SMOOTH",
"371 742 OFFCURVE",
"348 780 OFFCURVE",
"303 780 CURVE SMOOTH",
"269 780 OFFCURVE",
"244 756 OFFCURVE",
"244 724 CURVE SMOOTH",
"244 692 OFFCURVE",
"268 670 OFFCURVE",
"298 670 CURVE SMOOTH",
"329 670 OFFCURVE",
"352 693 OFFCURVE",
"352 725 CURVE",
"329 693 LINE",
"329 652 OFFCURVE",
"305 622 OFFCURVE",
"248 588 CURVE",
"265 564 LINE"
);
}
);
width = 391;
}
);
leftKerningGroup = t;
rightKerningGroup = t;
unicode = 0165;
},
{
color = 6;
glyphname = u;
lastChange = "2023-09-29 09:16:26 +0000";
layers = (
{
anchors = (
{
name = bottom;
position = "{308, 0}";
},
{
name = ogonek;
position = "{465, 0}";
},
{
name = top;
position = "{298, 520}";
},
{
name = topright;
position = "{601, 520}";
}
);
layerId = m004;
paths = (
{
closed = 1;
nodes = (
"308 -10 OFFCURVE",
"356 11 OFFCURVE",
"420 67 CURVE",
"426 67 LINE",
"426 -2 LINE",
"440 -2 LINE",
"593 34 LINE",
"593 61 LINE",
"528 69 OFFCURVE",
"513 81 OFFCURVE",
"513 126 CURVE SMOOTH",
"513 528 LINE",
"496 528 LINE",
"345 508 LINE",
"345 483 LINE",
"407 478 OFFCURVE",
"423 464 OFFCURVE",
"423 420 CURVE SMOOTH",
"423 111 LINE",
"384 67 OFFCURVE",
"347 50 OFFCURVE",
"296 50 CURVE SMOOTH",
"215 50 OFFCURVE",
"178 83 OFFCURVE",
"178 156 CURVE SMOOTH",
"178 528 LINE",
"161 528 LINE",
"15 508 LINE",
"15 483 LINE",
"72 478 OFFCURVE",
"88 464 OFFCURVE",
"88 420 CURVE SMOOTH",
"88 126 LINE SMOOTH",
"88 40 OFFCURVE",
"145 -10 OFFCURVE",
"239 -10 CURVE SMOOTH"
);
}
);
width = 608;
}
);
leftKerningGroup = u;
rightKerningGroup = u;
unicode = 0075;
},
{
color = 3;
glyphname = uogonek;
lastChange = "2023-09-29 09:16:23 +0000";
layers = (
{
anchors = (
{
name = _ogonek;
position = "{465, 0}";
}
);
components = (
{
name = u;
}
);
layerId = m004;
paths = (
{
closed = 1;
nodes = (
"456 -257 OFFCURVE",
"487 -225 OFFCURVE",
"506 -206 CURVE",
"496 -194 LINE",
"485 -200 OFFCURVE",
"461 -211 OFFCURVE",
"430 -211 CURVE SMOOTH",
"386 -211 OFFCURVE",
"363 -188 OFFCURVE",
"363 -143 CURVE SMOOTH",
"363 -65 OFFCURVE",
"442 -9 OFFCURVE",
"489 10 CURVE",
"430 0 LINE",
"375 -22 OFFCURVE",
"294 -83 OFFCURVE",
"294 -161 CURVE SMOOTH",
"294 -224 OFFCURVE",
"340 -257 OFFCURVE",
"393 -257 CURVE SMOOTH"
);
}
);
width = 608;
}
);
leftKerningGroup = u;
rightKerningGroup = u;
unicode = 0173;
},
{
color = 6;
glyphname = v;
lastChange = "2023-09-29 09:16:23 +0000";
layers = (
{
anchors = (
{
name = bottom;
position = "{288, 0}";
},
{
name = top;
position = "{288, 520}";
}
);
layerId = m004;
paths = (
{
closed = 1;
nodes = (
"306 -8 LINE",
"478 412 LINE SMOOTH",
"499 463 OFFCURVE",
"519 482 OFFCURVE",
"576 490 CURVE",
"576 520 LINE",
"366 520 LINE",
"366 490 LINE",
"387 488 LINE SMOOTH",
"435 483 OFFCURVE",
"448 461 OFFCURVE",
"429 412 CURVE SMOOTH",
"291 50 LINE",
"317 50 LINE",
"181 412 LINE SMOOTH",
"166 453 OFFCURVE",
"182 484 OFFCURVE",
"222 488 CURVE SMOOTH",
"244 490 LINE",
"244 520 LINE",
"-1 520 LINE",
"-1 490 LINE",
"19 488 LINE SMOOTH",
"50 485 OFFCURVE",
"67 467 OFFCURVE",
"89 412 CURVE SMOOTH",
"256 -8 LINE"
);
}
);
width = 566;
}
);
leftKerningGroup = v;
rightKerningGroup = v;
unicode = 0076;
},
{
color = 6;
glyphname = w;
lastChange = "2023-09-29 09:16:26 +0000";
layers = (
{
anchors = (
{
name = bottom;
position = "{412, 0}";
},
{
name = top;
position = "{412, 520}";
}
);
layerId = m004;
paths = (
{
closed = 1;
nodes = (
"289 -8 LINE",
"426 375 LINE",
"403 374 LINE",
"520 -8 LINE",
"579 -8 LINE",
"727 412 LINE SMOOTH",
"745 464 OFFCURVE",
"768 482 OFFCURVE",
"824 490 CURVE",
"824 520 LINE",
"614 520 LINE",
"614 490 LINE",
"635 488 LINE SMOOTH",
"683 483 OFFCURVE",
"694 463 OFFCURVE",
"678 412 CURVE SMOOTH",
"562 49 LINE",
"582 49 LINE",
"472 420 LINE SMOOTH",
"460 460 OFFCURVE",
"478 484 OFFCURVE",
"523 488 CURVE SMOOTH",
"546 490 LINE",
"546 520 LINE",
"311 520 LINE",
"311 490 LINE",
"327 489 LINE SMOOTH",
"370 486 OFFCURVE",
"384 453 OFFCURVE",
"408 358 CURVE",
"404 444 LINE",
"274 49 LINE",
"293 49 LINE",
"178 412 LINE SMOOTH",
"165 454 OFFCURVE",
"182 484 OFFCURVE",
"221 488 CURVE SMOOTH",
"243 490 LINE",
"243 520 LINE",
"0 520 LINE",
"0 490 LINE",
"20 488 LINE SMOOTH",
"52 485 OFFCURVE",
"70 465 OFFCURVE",
"88 412 CURVE SMOOTH",
"231 -8 LINE"
);
}
);
width = 815;
}
);
leftKerningGroup = w;
rightKerningGroup = w;
unicode = 0077;
},
{
color = 6;
glyphname = x;
lastChange = "2023-09-29 09:16:23 +0000";
layers = (
{
anchors = (
{
name = bottom;
position = "{282, 0}";
},
{
name = top;
position = "{282, 520}";
}
);
layerId = m004;
paths = (
{
closed = 1;
nodes = (
"561 0 LINE",
"561 30 LINE",
"512 36 OFFCURVE",
"489 67 OFFCURVE",
"457 108 CURVE SMOOTH",
"219 417 LINE SMOOTH",
"194 449 OFFCURVE",
"205 483 OFFCURVE",
"241 487 CURVE SMOOTH",
"266 490 LINE",
"266 520 LINE",
"16 520 LINE",
"16 490 LINE",
"60 488 OFFCURVE",
"74 478 OFFCURVE",
"125 412 CURVE SMOOTH",
"360 108 LINE SMOOTH",
"392 67 OFFCURVE",
"382 36 OFFCURVE",
"336 32 CURVE SMOOTH",
"311 30 LINE",
"311 0 LINE"
);
},
{
closed = 1;
nodes = (
"222 0 LINE",
"222 30 LINE",
"191 33 LINE SMOOTH",
"145 37 OFFCURVE",
"136 68 OFFCURVE",
"169 108 CURVE SMOOTH",
"276 241 LINE",
"252 275 LINE",
"119 108 LINE SMOOTH",
"76 54 OFFCURVE",
"56 39 OFFCURVE",
"2 30 CURVE",
"2 0 LINE"
);
},
{
closed = 1;
nodes = (
"430 412 LINE SMOOTH",
"470 465 OFFCURVE",
"499 484 OFFCURVE",
"556 490 CURVE",
"556 520 LINE",
"336 520 LINE",
"336 490 LINE",
"364 487 LINE SMOOTH",
"403 483 OFFCURVE",
"410 453 OFFCURVE",
"380 412 CURVE SMOOTH",
"288 287 LINE",
"312 253 LINE"
);
}
);
width = 567;
}
);
unicode = 0078;
},
{
color = 6;
glyphname = y;
lastChange = "2023-09-29 09:16:23 +0000";
layers = (
{
anchors = (
{
name = bottom;
position = "{276, 0}";
},
{
name = top;
position = "{276, 520}";
}
);
guideLines = (
{
angle = 68.9875;
position = "{323, 136}";
}
);
layerId = m004;
paths = (
{
closed = 1;
nodes = (
"184 -247 LINE",
"456 395 LINE SMOOTH",
"486 466 OFFCURVE",
"501 482 OFFCURVE",
"535 487 CURVE SMOOTH",
"556 490 LINE",
"556 520 LINE",
"348 520 LINE",
"348 490 LINE",
"369 488 LINE SMOOTH",
"416 484 OFFCURVE",
"433 456 OFFCURVE",
"407 391 CURVE SMOOTH",
"286 86 LINE",
"315 87 LINE",
"177 412 LINE SMOOTH",
"157 458 OFFCURVE",
"171 484 OFFCURVE",
"218 488 CURVE SMOOTH",
"243 490 LINE",
"243 520 LINE",
"-5 520 LINE",
"-5 490 LINE",
"12 487 LINE SMOOTH",
"40 482 OFFCURVE",
"63 458 OFFCURVE",
"84 412 CURVE SMOOTH",
"258 23 LINE",
"81 -232 LINE",
"81 -247 LINE"
);
}
);
width = 550;
}
);
leftKerningGroup = y;
rightKerningGroup = y;
unicode = 0079;
},
{
color = 6;
glyphname = z;
lastChange = "2023-09-29 09:16:23 +0000";
layers = (
{
anchors = (
{
name = bottom;
position = "{250, 0}";
},
{
name = center;
position = "{250, 260}";
},
{
name = top;
position = "{250, 520}";
}
);
layerId = m004;
paths = (
{
closed = 1;
nodes = (
"465 177 LINE",
"435 177 LINE",
"415 73 OFFCURVE",
"378 41 OFFCURVE",
"289 39 CURVE SMOOTH",
"111 36 LINE",
"126 14 LINE",
"450 494 LINE",
"450 520 LINE",
"190 520 LINE SMOOTH",
"141 520 OFFCURVE",
"104 523 OFFCURVE",
"56 526 CURVE",
"39 359 LINE",
"69 359 LINE",
"83 443 OFFCURVE",
"123 479 OFFCURVE",
"197 481 CURVE SMOOTH",
"379 486 LINE",
"366 517 LINE",
"35 26 LINE",
"35 0 LINE",
"315 0 LINE SMOOTH",
"342 0 OFFCURVE",
"394 -2 OFFCURVE",
"449 -6 CURVE"
);
}
);
width = 498;
}
);
leftKerningGroup = z;
rightKerningGroup = z;
unicode = 007A;
},
{
color = 6;
glyphname = f_b;
lastChange = "2023-09-29 09:16:23 +0000";
layers = (
{
anchors = (
{
name = bottom;
position = "{733, 0}";
},
{
name = caret_1;
position = "{379, 0}";
},
{
name = top;
position = "{733, 800}";
}
);
layerId = m004;
paths = (
{
closed = 1;
nodes = (
"298 0 LINE",
"298 30 LINE",
"253 36 LINE SMOOTH",
"212 41 OFFCURVE",
"198 58 OFFCURVE",
"198 104 CURVE SMOOTH",
"198 460 LINE",
"342 460 LINE",
"368 505 LINE",
"368 520 LINE",
"198 520 LINE",
"198 563 LINE SMOOTH",
"198 680 OFFCURVE",
"282 757 OFFCURVE",
"332 757 CURVE SMOOTH",
"340 757 OFFCURVE",
"348 755 OFFCURVE",
"355 752 CURVE SMOOTH",
"439 713 LINE SMOOTH",
"459 704 OFFCURVE",
"487 726 OFFCURVE",
"487 749 CURVE SMOOTH",
"487 782 OFFCURVE",
"437 804 OFFCURVE",
"385 804 CURVE SMOOTH",
"252 804 OFFCURVE",
"108 681 OFFCURVE",
"108 526 CURVE SMOOTH",
"108 520 LINE",
"45 520 LINE",
"19 475 LINE",
"19 460 LINE",
"108 460 LINE",
"108 94 LINE SMOOTH",
"108 53 OFFCURVE",
"99 42 OFFCURVE",
"58 35 CURVE SMOOTH",
"28 30 LINE",
"28 0 LINE"
);
},
{
closed = 1;
nodes = (
"461 -10 LINE",
"491 38 LINE",
"534 6 OFFCURVE",
"590 -10 OFFCURVE",
"648 -10 CURVE SMOOTH",
"807 -10 OFFCURVE",
"927 108 OFFCURVE",
"927 275 CURVE SMOOTH",
"927 426 OFFCURVE",
"832 530 OFFCURVE",
"694 530 CURVE SMOOTH",
"630 530 OFFCURVE",
"580 507 OFFCURVE",
"527 453 CURVE",
"521 453 LINE",
"521 800 LINE",
"507 800 LINE",
"353 756 LINE",
"431 766 LINE",
"431 -10 LINE"
);
},
{
closed = 1;
nodes = (
"569 28 OFFCURVE",
"521 87 OFFCURVE",
"521 183 CURVE SMOOTH",
"521 410 LINE",
"558 447 OFFCURVE",
"605 465 OFFCURVE",
"654 465 CURVE SMOOTH",
"766 465 OFFCURVE",
"833 373 OFFCURVE",
"833 236 CURVE SMOOTH",
"833 104 OFFCURVE",
"770 28 OFFCURVE",
"663 28 CURVE SMOOTH"
);
}
);
width = 963;
}
);
leftKerningGroup = f;
leftMetricsKey = f;
rightKerningGroup = b;
rightMetricsKey = b;
},
{
color = 6;
glyphname = f_f;
lastChange = "2023-09-29 09:16:23 +0000";
layers = (
{
anchors = (
{
name = caret_1;
position = "{296, 0}";
}
);
layerId = m004;
paths = (
{
closed = 1;
nodes = (
"288 0 LINE",
"288 30 LINE",
"253 36 LINE SMOOTH",
"212 41 OFFCURVE",
"198 58 OFFCURVE",
"198 104 CURVE SMOOTH",
"198 460 LINE",
"328 460 LINE",
"368 505 LINE",
"368 520 LINE",
"198 520 LINE",
"198 553 LINE SMOOTH",
"198 660 OFFCURVE",
"281 729 OFFCURVE",
"331 729 CURVE SMOOTH",
"339 729 OFFCURVE",
"347 727 OFFCURVE",
"354 724 CURVE SMOOTH",
"452 678 LINE SMOOTH",
"479 665 OFFCURVE",
"503 683 OFFCURVE",
"503 716 CURVE SMOOTH",
"503 746 OFFCURVE",
"427 774 OFFCURVE",
"375 774 CURVE SMOOTH",
"242 774 OFFCURVE",
"108 661 OFFCURVE",
"108 516 CURVE",
"108 520 LINE",
"45 520 LINE",
"19 475 LINE",
"19 460 LINE",
"108 460 LINE",
"108 94 LINE SMOOTH",
"108 53 OFFCURVE",
"99 42 OFFCURVE",
"58 35 CURVE SMOOTH",
"28 30 LINE",
"28 0 LINE"
);
},
{
closed = 1;
nodes = (
"578 0 LINE",
"578 30 LINE",
"533 36 LINE SMOOTH",
"492 41 OFFCURVE",
"478 58 OFFCURVE",
"478 104 CURVE SMOOTH",
"478 460 LINE",
"618 460 LINE",
"644 505 LINE",
"644 520 LINE",
"478 520 LINE",
"478 573 LINE SMOOTH",
"478 680 OFFCURVE",
"552 757 OFFCURVE",
"602 757 CURVE SMOOTH",
"610 757 OFFCURVE",
"618 755 OFFCURVE",
"625 752 CURVE SMOOTH",
"702 716 LINE SMOOTH",
"729 703 OFFCURVE",
"757 726 OFFCURVE",
"757 749 CURVE SMOOTH",
"757 782 OFFCURVE",
"707 804 OFFCURVE",
"655 804 CURVE SMOOTH",
"522 804 OFFCURVE",
"388 681 OFFCURVE",
"388 536 CURVE SMOOTH",
"388 520 LINE",
"339 520 LINE",
"299 475 LINE",
"299 460 LINE",
"388 460 LINE",
"388 94 LINE SMOOTH",
"388 53 OFFCURVE",
"379 42 OFFCURVE",
"338 35 CURVE SMOOTH",
"308 30 LINE",
"308 0 LINE"
);
}
);
width = 647;
}
);
leftKerningGroup = f;
leftMetricsKey = f;
rightKerningGroup = f;
rightMetricsKey = f;
},
{
color = 6;
glyphname = f_f_i;
lastChange = "2023-09-29 09:16:26 +0000";
layers = (
{
anchors = (
{
name = caret_1;
position = "{299, 0}";
},
{
name = caret_2;
position = "{599, 0}";
}
);
layerId = m004;
paths = (
{
closed = 1;
nodes = (
"288 0 LINE",
"288 30 LINE",
"253 36 LINE SMOOTH",
"212 41 OFFCURVE",
"198 58 OFFCURVE",
"198 104 CURVE SMOOTH",
"198 460 LINE",
"328 460 LINE",
"368 505 LINE",
"368 520 LINE",
"198 520 LINE",
"198 553 LINE SMOOTH",
"198 660 OFFCURVE",
"281 729 OFFCURVE",
"331 729 CURVE SMOOTH",
"339 729 OFFCURVE",
"347 727 OFFCURVE",
"354 724 CURVE SMOOTH",
"452 678 LINE SMOOTH",
"479 665 OFFCURVE",
"503 683 OFFCURVE",
"503 716 CURVE SMOOTH",
"503 746 OFFCURVE",
"427 774 OFFCURVE",
"375 774 CURVE SMOOTH",
"242 774 OFFCURVE",
"108 661 OFFCURVE",
"108 516 CURVE",
"108 520 LINE",
"45 520 LINE",
"19 475 LINE",
"19 460 LINE",
"108 460 LINE",
"108 94 LINE SMOOTH",
"108 53 OFFCURVE",
"99 42 OFFCURVE",
"58 35 CURVE SMOOTH",
"28 30 LINE",
"28 0 LINE"
);
},
{
closed = 1;
nodes = (
"578 0 LINE",
"578 30 LINE",
"533 36 LINE SMOOTH",
"492 41 OFFCURVE",
"478 58 OFFCURVE",
"478 104 CURVE SMOOTH",
"478 460 LINE",
"738 460 LINE",
"778 505 LINE",
"778 520 LINE",
"478 520 LINE",
"478 573 LINE SMOOTH",
"478 680 OFFCURVE",
"552 757 OFFCURVE",
"612 757 CURVE SMOOTH",
"620 757 OFFCURVE",
"628 755 OFFCURVE",
"635 752 CURVE SMOOTH",
"732 706 LINE SMOOTH",
"759 693 OFFCURVE",
"787 716 OFFCURVE",
"787 739 CURVE SMOOTH",
"787 772 OFFCURVE",
"737 804 OFFCURVE",
"665 804 CURVE SMOOTH",
"523 804 OFFCURVE",
"388 681 OFFCURVE",
"388 536 CURVE SMOOTH",
"388 520 LINE",
"339 520 LINE",
"299 475 LINE",
"299 460 LINE",
"388 460 LINE",
"388 94 LINE SMOOTH",
"388 53 OFFCURVE",
"379 42 OFFCURVE",
"338 35 CURVE SMOOTH",
"308 30 LINE",
"308 0 LINE"
);
},
{
closed = 1;
nodes = (
"867 0 LINE",
"867 30 LINE",
"837 35 LINE SMOOTH",
"797 42 OFFCURVE",
"787 52 OFFCURVE",
"787 94 CURVE SMOOTH",
"787 520 LINE",
"773 520 LINE",
"619 482 LINE",
"619 467 LINE",
"697 467 LINE",
"697 94 LINE SMOOTH",
"697 52 OFFCURVE",
"687 42 OFFCURVE",
"647 35 CURVE SMOOTH",
"617 30 LINE",
"617 0 LINE"
);
}
);
width = 882;
}
);
leftKerningGroup = f;
leftMetricsKey = f;
rightKerningGroup = i;
},
{
color = 6;
glyphname = f_h;
lastChange = "2023-09-29 09:16:23 +0000";
layers = (
{
anchors = (
{
name = bottom_1;
position = "{201, 0}";
},
{
name = bottom_2;
position = "{683, 0}";
},
{
name = caret_1;
position = "{319, 0}";
},
{
name = center_2;
position = "{683, 400}";
},
{
name = top_1;
position = "{201, 800}";
},
{
name = top_2;
position = "{514, 742}";
}
);
layerId = m004;
paths = (
{
closed = 1;
nodes = (
"591 0 LINE",
"591 30 LINE",
"561 35 LINE SMOOTH",
"521 42 OFFCURVE",
"511 52 OFFCURVE",
"511 94 CURVE SMOOTH",
"511 414 LINE",
"554 452 OFFCURVE",
"592 470 OFFCURVE",
"644 470 CURVE SMOOTH",
"723 470 OFFCURVE",
"761 437 OFFCURVE",
"761 364 CURVE SMOOTH",
"761 94 LINE SMOOTH",
"761 52 OFFCURVE",
"751 42 OFFCURVE",
"711 35 CURVE SMOOTH",
"681 30 LINE",
"681 0 LINE",
"931 0 LINE",
"931 30 LINE",
"901 35 LINE SMOOTH",
"861 42 OFFCURVE",
"851 52 OFFCURVE",
"851 94 CURVE SMOOTH",
"851 394 LINE SMOOTH",
"851 480 OFFCURVE",
"794 530 OFFCURVE",
"699 530 CURVE SMOOTH",
"622 530 OFFCURVE",
"579 509 OFFCURVE",
"517 456 CURVE",
"511 456 LINE",
"511 800 LINE",
"497 800 LINE",
"343 756 LINE",
"421 766 LINE",
"421 94 LINE SMOOTH",
"421 52 OFFCURVE",
"411 42 OFFCURVE",
"371 35 CURVE SMOOTH",
"341 30 LINE",
"341 0 LINE"
);
},
{
closed = 1;
nodes = (
"298 0 LINE",
"298 30 LINE",
"253 36 LINE SMOOTH",
"212 41 OFFCURVE",
"198 58 OFFCURVE",
"198 104 CURVE SMOOTH",
"198 460 LINE",
"342 460 LINE",
"368 505 LINE",
"368 520 LINE",
"198 520 LINE",
"198 573 LINE SMOOTH",
"198 680 OFFCURVE",
"272 757 OFFCURVE",
"322 757 CURVE SMOOTH",
"330 757 OFFCURVE",
"338 755 OFFCURVE",
"345 752 CURVE SMOOTH",
"429 713 LINE SMOOTH",
"449 704 OFFCURVE",
"477 726 OFFCURVE",
"477 749 CURVE SMOOTH",
"477 782 OFFCURVE",
"427 804 OFFCURVE",
"375 804 CURVE SMOOTH",
"242 804 OFFCURVE",
"108 681 OFFCURVE",
"108 536 CURVE SMOOTH",
"108 520 LINE",
"45 520 LINE",
"19 475 LINE",
"19 460 LINE",
"108 460 LINE",
"108 94 LINE SMOOTH",
"108 53 OFFCURVE",
"99 42 OFFCURVE",
"58 35 CURVE SMOOTH",
"28 30 LINE",
"28 0 LINE"
);
}
);
width = 943;
}
);
leftMetricsKey = f;
rightMetricsKey = h;
},
{
color = 6;
glyphname = f_i;
lastChange = "2023-09-29 09:16:23 +0000";
layers = (
{
anchors = (
{
name = bottom;
position = "{558, 0}";
},
{
name = caret_1;
position = "{319, 0}";
},
{
name = ogonek;
position = "{627, 0}";
},
{
name = top;
position = "{552, 700}";
}
);
layerId = m004;
paths = (
{
closed = 1;
nodes = (
"298 0 LINE",
"298 30 LINE",
"253 36 LINE SMOOTH",
"212 41 OFFCURVE",
"198 58 OFFCURVE",
"198 104 CURVE SMOOTH",
"198 460 LINE",
"458 460 LINE",
"498 505 LINE",
"498 520 LINE",
"198 520 LINE",
"198 573 LINE SMOOTH",
"198 680 OFFCURVE",
"272 757 OFFCURVE",
"332 757 CURVE SMOOTH",
"340 757 OFFCURVE",
"348 755 OFFCURVE",
"355 752 CURVE SMOOTH",
"452 706 LINE SMOOTH",
"479 693 OFFCURVE",
"507 716 OFFCURVE",
"507 739 CURVE SMOOTH",
"507 772 OFFCURVE",
"457 804 OFFCURVE",
"385 804 CURVE SMOOTH",
"243 804 OFFCURVE",
"108 681 OFFCURVE",
"108 536 CURVE SMOOTH",
"108 520 LINE",
"45 520 LINE",
"19 475 LINE",
"19 460 LINE",
"108 460 LINE",
"108 94 LINE SMOOTH",
"108 53 OFFCURVE",
"99 42 OFFCURVE",
"58 35 CURVE SMOOTH",
"28 30 LINE",
"28 0 LINE"
);
},
{
closed = 1;
nodes = (
"587 0 LINE",
"587 30 LINE",
"557 35 LINE SMOOTH",
"517 42 OFFCURVE",
"507 52 OFFCURVE",
"507 94 CURVE SMOOTH",
"507 520 LINE",
"493 520 LINE",
"470 519 LINE",
"339 482 LINE",
"339 467 LINE",
"417 467 LINE",
"417 94 LINE SMOOTH",
"417 52 OFFCURVE",
"407 42 OFFCURVE",
"367 35 CURVE SMOOTH",
"337 30 LINE",
"337 0 LINE"
);
}
);
width = 602;
}
);
leftKerningGroup = f;
leftMetricsKey = f;
rightKerningGroup = i;
},
{
color = 6;
glyphname = f_k;
lastChange = "2023-09-29 09:16:23 +0000";
layers = (
{
anchors = (
{
name = bottom;
position = "{713, 0}";
},
{
name = caret_1;
position = "{319, 0}";
},
{
name = top;
position = "{713, 800}";
}
);
layerId = m004;
paths = (
{
closed = 1;
nodes = (
"298 0 LINE",
"298 30 LINE",
"253 36 LINE SMOOTH",
"212 41 OFFCURVE",
"198 58 OFFCURVE",
"198 104 CURVE SMOOTH",
"198 460 LINE",
"342 460 LINE",
"368 505 LINE",
"368 520 LINE",
"198 520 LINE",
"198 573 LINE SMOOTH",
"198 680 OFFCURVE",
"272 757 OFFCURVE",
"322 757 CURVE SMOOTH",
"330 757 OFFCURVE",
"338 755 OFFCURVE",
"345 752 CURVE SMOOTH",
"429 713 LINE SMOOTH",
"449 703 OFFCURVE",
"477 726 OFFCURVE",
"477 749 CURVE SMOOTH",
"477 782 OFFCURVE",
"427 804 OFFCURVE",
"375 804 CURVE SMOOTH",
"242 804 OFFCURVE",
"108 681 OFFCURVE",
"108 536 CURVE SMOOTH",
"108 520 LINE",
"45 520 LINE",
"19 475 LINE",
"19 460 LINE",
"108 460 LINE",
"108 94 LINE SMOOTH",
"108 53 OFFCURVE",
"99 42 OFFCURVE",
"58 35 CURVE SMOOTH",
"28 30 LINE",
"28 0 LINE"
);
},
{
closed = 1;
nodes = (
"591 0 LINE",
"591 30 LINE",
"561 35 LINE SMOOTH",
"521 42 OFFCURVE",
"511 52 OFFCURVE",
"511 94 CURVE SMOOTH",
"511 800 LINE",
"497 800 LINE",
"343 756 LINE",
"421 766 LINE",
"421 94 LINE SMOOTH",
"421 52 OFFCURVE",
"411 42 OFFCURVE",
"371 35 CURVE SMOOTH",
"341 30 LINE",
"341 0 LINE"
);
},
{
closed = 1;
nodes = (
"904 0 LINE",
"904 30 LINE",
"884 32 LINE SMOOTH",
"853 35 OFFCURVE",
"826 56 OFFCURVE",
"794 108 CURVE SMOOTH",
"647 348 LINE",
"585 290 LINE",
"697 108 LINE SMOOTH",
"720 70 OFFCURVE",
"736 34 OFFCURVE",
"676 31 CURVE SMOOTH",
"654 30 LINE",
"654 0 LINE"
);
},
{
closed = 1;
nodes = (
"779 441 LINE SMOOTH",
"818 476 OFFCURVE",
"850 487 OFFCURVE",
"904 490 CURVE",
"904 520 LINE",
"657 520 LINE",
"657 490 LINE",
"681 489 LINE SMOOTH",
"733 487 OFFCURVE",
"739 462 OFFCURVE",
"693 419 CURVE SMOOTH",
"451 191 LINE",
"479 165 LINE"
);
}
);
width = 913;
}
);
leftKerningGroup = f;
leftMetricsKey = f;
rightKerningGroup = k;
rightMetricsKey = k;
},
{
color = 6;
glyphname = f_l;
lastChange = "2023-09-29 09:16:23 +0000";
layers = (
{
anchors = (
{
name = bottom;
position = "{573, 0}";
},
{
name = caret_1;
position = "{329, 0}";
},
{
name = center;
position = "{573, 400}";
},
{
name = top;
position = "{573, 800}";
},
{
name = topright;
position = "{703, 800}";
}
);
layerId = m004;
paths = (
{
closed = 1;
nodes = (
"298 0 LINE",
"298 30 LINE",
"253 36 LINE SMOOTH",
"212 41 OFFCURVE",
"198 58 OFFCURVE",
"198 104 CURVE SMOOTH",
"198 460 LINE",
"342 460 LINE",
"368 505 LINE",
"368 520 LINE",
"198 520 LINE",
"198 563 LINE SMOOTH",
"198 680 OFFCURVE",
"282 757 OFFCURVE",
"332 757 CURVE SMOOTH",
"340 757 OFFCURVE",
"348 755 OFFCURVE",
"355 752 CURVE SMOOTH",
"439 713 LINE SMOOTH",
"466 700 OFFCURVE",
"487 726 OFFCURVE",
"487 749 CURVE SMOOTH",
"487 782 OFFCURVE",
"437 804 OFFCURVE",
"385 804 CURVE SMOOTH",
"252 804 OFFCURVE",
"108 681 OFFCURVE",
"108 526 CURVE SMOOTH",
"108 520 LINE",
"45 520 LINE",
"19 475 LINE",
"19 460 LINE",
"108 460 LINE",
"108 94 LINE SMOOTH",
"108 53 OFFCURVE",
"99 42 OFFCURVE",
"58 35 CURVE SMOOTH",
"28 30 LINE",
"28 0 LINE"
);
},
{
closed = 1;
nodes = (
"601 0 LINE",
"601 30 LINE",
"571 35 LINE SMOOTH",
"531 42 OFFCURVE",
"521 52 OFFCURVE",
"521 94 CURVE SMOOTH",
"521 800 LINE",
"507 800 LINE",
"431 778 LINE",
"431 666 LINE",
"431 94 LINE SMOOTH",
"431 52 OFFCURVE",
"421 42 OFFCURVE",
"381 35 CURVE SMOOTH",
"351 30 LINE",
"351 0 LINE"
);
}
);
width = 615;
}
);
leftKerningGroup = f;
leftMetricsKey = f;
rightKerningGroup = l;
rightMetricsKey = l;
},
{
color = 6;
glyphname = ordfeminine;
lastChange = "2023-09-29 09:16:23 +0000";
layers = (
{
layerId = m004;
paths = (
{
closed = 1;
nodes = (
"173 318 OFFCURVE",
"207 334 OFFCURVE",
"243 368 CURVE",
"247 368 LINE",
"251 337 OFFCURVE",
"268 320 OFFCURVE",
"295 320 CURVE SMOOTH",
"308 320 OFFCURVE",
"321 322 OFFCURVE",
"343 329 CURVE SMOOTH",
"369 337 LINE",
"369 354 LINE",
"311 358 OFFCURVE",
"301 366 OFFCURVE",
"302 401 CURVE SMOOTH",
"310 626 LINE SMOOTH",
"312 683 OFFCURVE",
"266 706 OFFCURVE",
"210 706 CURVE SMOOTH",
"138 706 OFFCURVE",
"66 657 OFFCURVE",
"46 600 CURVE SMOOTH",
"42 588 OFFCURVE",
"48 583 OFFCURVE",
"68 583 CURVE SMOOTH",
"93 583 OFFCURVE",
"113 591 OFFCURVE",
"116 604 CURVE SMOOTH",
"126 651 OFFCURVE",
"151 673 OFFCURVE",
"192 673 CURVE SMOOTH",
"230 673 OFFCURVE",
"251 657 OFFCURVE",
"249 609 CURVE SMOOTH",
"247 551 LINE",
"109 502 OFFCURVE",
"49 452 OFFCURVE",
"49 389 CURVE SMOOTH",
"49 345 OFFCURVE",
"86 318 OFFCURVE",
"136 318 CURVE SMOOTH"
);
},
{
closed = 1;
nodes = (
"136 364 OFFCURVE",
"117 380 OFFCURVE",
"117 409 CURVE SMOOTH",
"117 450 OFFCURVE",
"160 491 OFFCURVE",
"246 522 CURVE",
"242 401 LINE",
"213 375 OFFCURVE",
"189 364 OFFCURVE",
"161 364 CURVE SMOOTH"
);
}
);
width = 399;
}
);
unicode = 00AA;
},
{
color = 6;
glyphname = ordmasculine;
lastChange = "2023-09-29 09:16:23 +0000";
layers = (
{
layerId = m004;
paths = (
{
closed = 1;
nodes = (
"347 318 OFFCURVE",
"425 396 OFFCURVE",
"425 512 CURVE SMOOTH",
"425 628 OFFCURVE",
"347 706 OFFCURVE",
"230 706 CURVE SMOOTH",
"114 706 OFFCURVE",
"36 628 OFFCURVE",
"36 512 CURVE SMOOTH",
"36 396 OFFCURVE",
"114 318 OFFCURVE",
"231 318 CURVE SMOOTH"
);
},
{
closed = 1;
nodes = (
"161 348 OFFCURVE",
"106 419 OFFCURVE",
"106 531 CURVE SMOOTH",
"106 626 OFFCURVE",
"149 676 OFFCURVE",
"218 676 CURVE SMOOTH",
"300 676 OFFCURVE",
"355 605 OFFCURVE",
"355 493 CURVE SMOOTH",
"355 398 OFFCURVE",
"312 348 OFFCURVE",
"243 348 CURVE SMOOTH"
);
}
);
width = 461;
}
);
unicode = 00BA;
},
{
color = 6;
glyphname = zero;
lastChange = "2023-09-29 09:16:23 +0000";
layers = (
{
layerId = m004;
paths = (
{
closed = 1;
nodes = (
"443 -10 OFFCURVE",
"553 125 OFFCURVE",
"553 357 CURVE SMOOTH",
"553 579 OFFCURVE",
"458 710 OFFCURVE",
"300 710 CURVE SMOOTH",
"157 710 OFFCURVE",
"47 575 OFFCURVE",
"47 337 CURVE SMOOTH",
"47 121 OFFCURVE",
"142 -10 OFFCURVE",
"300 -10 CURVE SMOOTH"
);
},
{
closed = 1;
nodes = (
"211 30 OFFCURVE",
"148 148 OFFCURVE",
"148 337 CURVE SMOOTH",
"148 576 OFFCURVE",
"197 670 OFFCURVE",
"291 670 CURVE SMOOTH",
"386 670 OFFCURVE",
"453 543 OFFCURVE",
"453 354 CURVE SMOOTH",
"453 129 OFFCURVE",
"401 30 OFFCURVE",
"309 30 CURVE SMOOTH"
);
}
);
width = 600;
}
);
unicode = 0030;
},
{
color = 6;
glyphname = one;
lastChange = "2023-09-29 09:16:23 +0000";
layers = (
{
layerId = m004;
paths = (
{
closed = 1;
nodes = (
"326 0 LINE",
"326 30 LINE",
"286 35 LINE SMOOTH",
"246 42 OFFCURVE",
"237 52 OFFCURVE",
"237 94 CURVE SMOOTH",
"237 707 LINE",
"223 707 LINE",
"20 656 LINE",
"20 628 LINE",
"130 628 OFFCURVE",
"147 626 OFFCURVE",
"147 567 CURVE SMOOTH",
"147 104 LINE SMOOTH",
"147 58 OFFCURVE",
"133 42 OFFCURVE",
"91 36 CURVE SMOOTH",
"36 30 LINE",
"36 0 LINE"
);
}
);
width = 357;
}
);
unicode = 0031;
},
{
color = 6;
glyphname = two;
lastChange = "2023-09-29 09:16:23 +0000";
layers = (
{
layerId = m004;
paths = (
{
closed = 1;
nodes = (
"458 0 LINE",
"458 127 LINE",
"428 127 LINE",
"422 98 OFFCURVE",
"408 70 OFFCURVE",
"346 70 CURVE SMOOTH",
"81 70 LINE",
"107 49 LINE",
"274 220 OFFCURVE",
"440 361 OFFCURVE",
"440 527 CURVE SMOOTH",
"440 670 OFFCURVE",
"330 710 OFFCURVE",
"237 710 CURVE SMOOTH",
"141 710 OFFCURVE",
"46 657 OFFCURVE",
"26 537 CURVE",
"65 529 LINE",
"88 619 OFFCURVE",
"153 658 OFFCURVE",
"214 658 CURVE SMOOTH",
"297 658 OFFCURVE",
"346 608 OFFCURVE",
"346 514 CURVE SMOOTH",
"346 341 OFFCURVE",
"156 154 OFFCURVE",
"29 25 CURVE",
"29 0 LINE"
);
}
);
width = 502;
}
);
unicode = 0032;
},
{
color = 6;
glyphname = three;
lastChange = "2023-09-29 09:16:23 +0000";
layers = (
{
layerId = m004;
paths = (
{
closed = 1;
nodes = (
"361 -10 OFFCURVE",
"456 84 OFFCURVE",
"456 200 CURVE SMOOTH",
"456 306 OFFCURVE",
"385 373 OFFCURVE",
"275 381 CURVE",
"273 371 LINE",
"387 410 OFFCURVE",
"441 467 OFFCURVE",
"441 547 CURVE SMOOTH",
"441 645 OFFCURVE",
"362 710 OFFCURVE",
"250 710 CURVE SMOOTH",
"146 710 OFFCURVE",
"71 656 OFFCURVE",
"40 550 CURVE",
"80 538 LINE",
"107 614 OFFCURVE",
"156 657 OFFCURVE",
"225 657 CURVE SMOOTH",
"298 657 OFFCURVE",
"347 609 OFFCURVE",
"347 532 CURVE SMOOTH",
"347 446 OFFCURVE",
"282 387 OFFCURVE",
"157 359 CURVE",
"157 327 LINE",
"280 351 OFFCURVE",
"363 296 OFFCURVE",
"363 180 CURVE SMOOTH",
"363 95 OFFCURVE",
"312 28 OFFCURVE",
"230 28 CURVE SMOOTH",
"197 28 OFFCURVE",
"182 42 OFFCURVE",
"164 59 CURVE SMOOTH",
"110 109 LINE SMOOTH",
"83 134 OFFCURVE",
"30 117 OFFCURVE",
"30 85 CURVE SMOOTH",
"30 51 OFFCURVE",
"98 -10 OFFCURVE",
"221 -10 CURVE SMOOTH"
);
}
);
width = 503;
}
);
unicode = 0033;
},
{
color = 6;
glyphname = four;
lastChange = "2023-09-29 09:16:23 +0000";
layers = (
{
layerId = m004;
paths = (
{
closed = 1;
nodes = (
"496 0 LINE",
"496 30 LINE",
"466 35 LINE SMOOTH",
"426 42 OFFCURVE",
"417 52 OFFCURVE",
"417 94 CURVE SMOOTH",
"417 232 LINE",
"502 232 LINE",
"522 280 LINE",
"522 295 LINE",
"417 295 LINE",
"417 710 LINE",
"375 710 LINE",
"22 255 LINE",
"22 232 LINE",
"332 232 LINE",
"332 104 LINE SMOOTH",
"332 58 OFFCURVE",
"318 42 OFFCURVE",
"276 36 CURVE SMOOTH",
"231 30 LINE",
"231 0 LINE"
);
},
{
closed = 1;
nodes = (
"365 295 LINE",
"67 295 LINE",
"88 264 LINE",
"341 603 LINE",
"332 615 LINE",
"332 259 LINE"
);
}
);
width = 552;
}
);
unicode = 0034;
},
{
color = 6;
glyphname = five;
lastChange = "2023-09-29 09:16:23 +0000";
layers = (
{
layerId = m004;
paths = (
{
closed = 1;
nodes = (
"369 -10 OFFCURVE",
"468 87 OFFCURVE",
"468 214 CURVE SMOOTH",
"468 373 OFFCURVE",
"331 455 OFFCURVE",
"85 443 CURVE",
"114 413 LINE",
"147 670 LINE",
"118 630 LINE",
"441 630 LINE",
"441 737 LINE",
"411 737 LINE",
"405 707 OFFCURVE",
"389 700 OFFCURVE",
"329 700 CURVE SMOOTH",
"110 700 LINE",
"65 368 LINE",
"67 366 LINE",
"279 369 OFFCURVE",
"374 315 OFFCURVE",
"374 191 CURVE SMOOTH",
"374 95 OFFCURVE",
"321 28 OFFCURVE",
"226 28 CURVE SMOOTH",
"193 28 OFFCURVE",
"178 42 OFFCURVE",
"160 59 CURVE SMOOTH",
"106 109 LINE SMOOTH",
"79 134 OFFCURVE",
"26 117 OFFCURVE",
"26 85 CURVE SMOOTH",
"26 51 OFFCURVE",
"94 -10 OFFCURVE",
"220 -10 CURVE SMOOTH"
);
}
);
width = 505;
}
);
unicode = 0035;
},
{
color = 6;
glyphname = six;
lastChange = "2023-09-29 09:16:23 +0000";
layers = (
{
layerId = m004;
paths = (
{
closed = 1;
nodes = (
"411 -10 OFFCURVE",
"509 85 OFFCURVE",
"509 218 CURVE SMOOTH",
"509 327 OFFCURVE",
"426 412 OFFCURVE",
"320 412 CURVE SMOOTH",
"253 412 OFFCURVE",
"202 389 OFFCURVE",
"151 335 CURVE",
"145 335 LINE",
"158 516 OFFCURVE",
"277 638 OFFCURVE",
"473 673 CURVE",
"469 704 LINE",
"209 680 OFFCURVE",
"44 513 OFFCURVE",
"44 273 CURVE SMOOTH",
"44 96 OFFCURVE",
"130 -10 OFFCURVE",
"274 -10 CURVE SMOOTH"
);
},
{
closed = 1;
nodes = (
"191 28 OFFCURVE",
"143 108 OFFCURVE",
"143 268 CURVE SMOOTH",
"143 291 LINE",
"179 328 OFFCURVE",
"225 347 OFFCURVE",
"278 347 CURVE SMOOTH",
"364 347 OFFCURVE",
"415 290 OFFCURVE",
"415 194 CURVE SMOOTH",
"415 93 OFFCURVE",
"364 28 OFFCURVE",
"286 28 CURVE SMOOTH"
);
}
);
width = 540;
}
);
unicode = 0036;
},
{
color = 6;
glyphname = seven;
lastChange = "2023-09-29 09:16:23 +0000";
layers = (
{
layerId = m004;
paths = (
{
closed = 1;
nodes = (
"179 0 LINE",
"463 675 LINE",
"463 700 LINE",
"14 700 LINE",
"14 573 LINE",
"44 573 LINE",
"50 602 OFFCURVE",
"64 630 OFFCURVE",
"126 630 CURVE SMOOTH",
"434 630 LINE",
"428 693 LINE",
"98 25 LINE",
"98 0 LINE"
);
}
);
width = 472;
}
);
unicode = 0037;
},
{
color = 6;
glyphname = eight;
lastChange = "2023-09-29 09:16:23 +0000";
layers = (
{
layerId = m004;
paths = (
{
closed = 1;
nodes = (
"391 -10 OFFCURVE",
"488 72 OFFCURVE",
"488 181 CURVE SMOOTH",
"488 245 OFFCURVE",
"453 300 OFFCURVE",
"378 343 CURVE SMOOTH",
"235 424 LINE SMOOTH",
"163 465 OFFCURVE",
"135 501 OFFCURVE",
"135 555 CURVE SMOOTH",
"135 626 OFFCURVE",
"185 672 OFFCURVE",
"262 672 CURVE SMOOTH",
"334 672 OFFCURVE",
"396 626 OFFCURVE",
"396 548 CURVE SMOOTH",
"396 475 OFFCURVE",
"356 428 OFFCURVE",
"289 388 CURVE",
"315 373 LINE",
"420 414 OFFCURVE",
"483 469 OFFCURVE",
"483 550 CURVE SMOOTH",
"483 650 OFFCURVE",
"391 710 OFFCURVE",
"279 710 CURVE SMOOTH",
"151 710 OFFCURVE",
"55 635 OFFCURVE",
"55 529 CURVE SMOOTH",
"55 463 OFFCURVE",
"93 408 OFFCURVE",
"171 364 CURVE SMOOTH",
"314 283 LINE SMOOTH",
"381 245 OFFCURVE",
"408 204 OFFCURVE",
"408 152 CURVE SMOOTH",
"408 78 OFFCURVE",
"354 29 OFFCURVE",
"275 29 CURVE SMOOTH",
"191 29 OFFCURVE",
"137 81 OFFCURVE",
"137 172 CURVE SMOOTH",
"137 243 OFFCURVE",
"169 300 OFFCURVE",
"231 337 CURVE",
"202 352 LINE",
"106 318 OFFCURVE",
"50 246 OFFCURVE",
"50 164 CURVE SMOOTH",
"50 60 OFFCURVE",
"141 -10 OFFCURVE",
"264 -10 CURVE SMOOTH"
);
}
);
width = 538;
}
);
unicode = 0038;
},
{
color = 6;
glyphname = nine;
lastChange = "2023-09-29 09:16:23 +0000";
layers = (
{
layerId = m004;
paths = (
{
closed = 1;
nodes = (
"352 10 OFFCURVE",
"498 186 OFFCURVE",
"498 427 CURVE SMOOTH",
"498 608 OFFCURVE",
"402 710 OFFCURVE",
"262 710 CURVE SMOOTH",
"112 710 OFFCURVE",
"33 602 OFFCURVE",
"33 488 CURVE SMOOTH",
"33 350 OFFCURVE",
"139 288 OFFCURVE",
"223 288 CURVE SMOOTH",
"313 288 OFFCURVE",
"360 331 OFFCURVE",
"399 374 CURVE",
"397 368 LINE",
"385 190 OFFCURVE",
"291 53 OFFCURVE",
"64 27 CURVE",
"73 -4 LINE"
);
},
{
closed = 1;
nodes = (
"406 365 LINE",
"406 376 LINE",
"382 376 LINE",
"382 365 LINE"
);
},
{
closed = 1;
nodes = (
"409 420 LINE",
"374 379 OFFCURVE",
"326 353 OFFCURVE",
"264 353 CURVE SMOOTH",
"184 353 OFFCURVE",
"127 403 OFFCURVE",
"127 512 CURVE SMOOTH",
"127 580 OFFCURVE",
"151 672 OFFCURVE",
"250 672 CURVE SMOOTH",
"350 672 OFFCURVE",
"399 584 OFFCURVE",
"399 432 CURVE SMOOTH",
"399 387 OFFCURVE",
"399 363 OFFCURVE",
"396 343 CURVE"
);
}
);
width = 542;
}
);
unicode = 0039;
},
{
color = 6;
glyphname = zero.dnom;
lastChange = "2023-09-29 09:16:23 +0000";
layers = (
{
layerId = m004;
paths = (
{
closed = 1;
nodes = (
"268 -6 OFFCURVE",
"328 71 OFFCURVE",
"328 192 CURVE SMOOTH",
"328 306 OFFCURVE",
"276 382 OFFCURVE",
"178 382 CURVE SMOOTH",
"88 382 OFFCURVE",
"28 304 OFFCURVE",
"28 181 CURVE SMOOTH",
"28 69 OFFCURVE",
"80 -6 OFFCURVE",
"178 -6 CURVE SMOOTH"
);
},
{
closed = 1;
nodes = (
"129 24 OFFCURVE",
"96 88 OFFCURVE",
"95 191 CURVE SMOOTH",
"94 302 OFFCURVE",
"122 352 OFFCURVE",
"173 352 CURVE SMOOTH",
"225 352 OFFCURVE",
"261 284 OFFCURVE",
"261 180 CURVE SMOOTH",
"261 77 OFFCURVE",
"234 24 OFFCURVE",
"183 24 CURVE SMOOTH"
);
}
);
width = 356;
}
);
leftKerningGroup = zero.dnom;
rightKerningGroup = zero.dnom;
},
{
color = 6;
glyphname = one.dnom;
lastChange = "2023-09-29 09:16:23 +0000";
layers = (
{
layerId = m004;
paths = (
{
closed = 1;
nodes = (
"195 0 LINE",
"195 22 LINE",
"170 25 LINE SMOOTH",
"149 28 OFFCURVE",
"144 34 OFFCURVE",
"144 57 CURVE SMOOTH",
"144 380 LINE",
"131 380 LINE",
"15 353 LINE",
"15 332 LINE",
"77 332 OFFCURVE",
"86 331 OFFCURVE",
"86 299 CURVE SMOOTH",
"86 62 LINE SMOOTH",
"86 37 OFFCURVE",
"79 27 OFFCURVE",
"56 25 CURVE SMOOTH",
"24 22 LINE",
"24 0 LINE"
);
}
);
width = 215;
}
);
leftKerningGroup = zero.dnom;
rightKerningGroup = zero.dnom;
},
{
color = 6;
glyphname = two.dnom;
lastChange = "2023-09-29 09:16:23 +0000";
layers = (
{
layerId = m004;
paths = (
{
closed = 1;
nodes = (
"256 0 LINE",
"256 73 LINE",
"237 73 LINE",
"234 58 OFFCURVE",
"226 43 OFFCURVE",
"193 43 CURVE SMOOTH",
"58 43 LINE",
"58 26 LINE",
"156 113 OFFCURVE",
"253 194 OFFCURVE",
"253 286 CURVE SMOOTH",
"253 360 OFFCURVE",
"188 382 OFFCURVE",
"144 382 CURVE SMOOTH",
"81 382 OFFCURVE",
"37 355 OFFCURVE",
"17 292 CURVE",
"49 286 LINE",
"65 331 OFFCURVE",
"93 348 OFFCURVE",
"124 348 CURVE SMOOTH",
"163 348 OFFCURVE",
"188 327 OFFCURVE",
"188 278 CURVE SMOOTH",
"188 204 OFFCURVE",
"104 109 OFFCURVE",
"20 24 CURVE",
"20 0 LINE"
);
}
);
width = 287;
}
);
leftKerningGroup = zero.dnom;
rightKerningGroup = zero.dnom;
},
{
color = 6;
glyphname = three.dnom;
lastChange = "2023-09-29 09:16:23 +0000";
layers = (
{
layerId = m004;
paths = (
{
closed = 1;
nodes = (
"198 -6 OFFCURVE",
"249 44 OFFCURVE",
"249 108 CURVE SMOOTH",
"249 165 OFFCURVE",
"210 201 OFFCURVE",
"151 205 CURVE",
"150 197 LINE",
"212 218 OFFCURVE",
"241 251 OFFCURVE",
"241 294 CURVE SMOOTH",
"241 347 OFFCURVE",
"198 382 OFFCURVE",
"138 382 CURVE SMOOTH",
"82 382 OFFCURVE",
"39 355 OFFCURVE",
"22 298 CURVE",
"51 288 LINE",
"66 324 OFFCURVE",
"87 348 OFFCURVE",
"124 348 CURVE SMOOTH",
"152 348 OFFCURVE",
"178 331 OFFCURVE",
"178 290 CURVE SMOOTH",
"178 245 OFFCURVE",
"145 213 OFFCURVE",
"88 198 CURVE",
"88 171 LINE",
"140 184 OFFCURVE",
"187 157 OFFCURVE",
"187 99 CURVE SMOOTH",
"187 49 OFFCURVE",
"161 23 OFFCURVE",
"127 23 CURVE SMOOTH",
"110 23 OFFCURVE",
"102 31 OFFCURVE",
"93 40 CURVE SMOOTH",
"66 65 LINE SMOOTH",
"49 80 OFFCURVE",
"20 70 OFFCURVE",
"20 45 CURVE SMOOTH",
"20 26 OFFCURVE",
"56 -6 OFFCURVE",
"122 -6 CURVE SMOOTH"
);
}
);
width = 278;
}
);
leftKerningGroup = zero.dnom;
rightKerningGroup = zero.dnom;
},
{
color = 6;
glyphname = four.dnom;
lastChange = "2023-09-29 09:16:23 +0000";
layers = (
{
layerId = m004;
paths = (
{
closed = 1;
nodes = (
"291 0 LINE",
"291 21 LINE",
"271 24 LINE SMOOTH",
"250 27 OFFCURVE",
"245 33 OFFCURVE",
"245 56 CURVE SMOOTH",
"245 119 LINE",
"296 119 LINE",
"307 144 LINE",
"307 157 LINE",
"245 157 LINE",
"245 382 LINE",
"208 382 LINE",
"15 137 LINE",
"15 119 LINE",
"192 119 LINE",
"192 61 LINE SMOOTH",
"192 36 OFFCURVE",
"185 27 OFFCURVE",
"162 24 CURVE SMOOTH",
"135 21 LINE",
"135 0 LINE"
);
},
{
closed = 1;
nodes = (
"203 157 LINE",
"39 157 LINE",
"55 142 LINE",
"198 324 LINE",
"192 331 LINE",
"192 139 LINE"
);
}
);
width = 327;
}
);
leftKerningGroup = zero.dnom;
rightKerningGroup = zero.dnom;
},
{
color = 6;
glyphname = five.dnom;
lastChange = "2023-09-29 09:16:23 +0000";
layers = (
{
layerId = m004;
paths = (
{
closed = 1;
nodes = (
"203 -6 OFFCURVE",
"256 46 OFFCURVE",
"256 115 CURVE SMOOTH",
"256 201 OFFCURVE",
"182 245 OFFCURVE",
"50 238 CURVE",
"73 222 LINE",
"91 360 LINE",
"68 333 LINE",
"242 333 LINE",
"242 396 LINE",
"222 396 LINE",
"219 380 OFFCURVE",
"211 376 OFFCURVE",
"178 376 CURVE SMOOTH",
"64 376 LINE",
"37 194 LINE",
"39 193 LINE",
"137 194 OFFCURVE",
"196 164 OFFCURVE",
"196 98 CURVE SMOOTH",
"196 55 OFFCURVE",
"165 23 OFFCURVE",
"126 23 CURVE SMOOTH",
"108 23 OFFCURVE",
"100 31 OFFCURVE",
"91 40 CURVE SMOOTH",
"64 65 LINE SMOOTH",
"47 80 OFFCURVE",
"18 71 OFFCURVE",
"18 45 CURVE SMOOTH",
"18 26 OFFCURVE",
"55 -6 OFFCURVE",
"123 -6 CURVE SMOOTH"
);
}
);
width = 279;
}
);
leftKerningGroup = zero.dnom;
rightKerningGroup = zero.dnom;
},
{
color = 6;
glyphname = six.dnom;
lastChange = "2023-09-29 09:16:23 +0000";
layers = (
{
layerId = m004;
paths = (
{
closed = 1;
nodes = (
"225 -6 OFFCURVE",
"277 45 OFFCURVE",
"277 116 CURVE SMOOTH",
"277 185 OFFCURVE",
"233 221 OFFCURVE",
"176 221 CURVE SMOOTH",
"145 221 OFFCURVE",
"117 208 OFFCURVE",
"93 181 CURVE",
"90 181 LINE",
"99 270 OFFCURVE",
"158 337 OFFCURVE",
"259 354 CURVE",
"256 379 LINE",
"116 365 OFFCURVE",
"27 275 OFFCURVE",
"27 146 CURVE SMOOTH",
"27 54 OFFCURVE",
"74 -6 OFFCURVE",
"151 -6 CURVE SMOOTH"
);
},
{
closed = 1;
nodes = (
"114 24 OFFCURVE",
"89 56 OFFCURVE",
"89 138 CURVE SMOOTH",
"89 150 LINE",
"108 170 OFFCURVE",
"133 179 OFFCURVE",
"153 179 CURVE SMOOTH",
"189 179 OFFCURVE",
"217 148 OFFCURVE",
"217 103 CURVE SMOOTH",
"217 54 OFFCURVE",
"191 24 OFFCURVE",
"157 24 CURVE SMOOTH"
);
}
);
width = 299;
}
);
leftKerningGroup = zero.dnom;
rightKerningGroup = zero.dnom;
},
{
color = 6;
glyphname = seven.dnom;
lastChange = "2023-09-29 09:16:23 +0000";
layers = (
{
layerId = m004;
paths = (
{
closed = 1;
nodes = (
"113 0 LINE",
"255 347 LINE",
"255 376 LINE",
"13 376 LINE",
"13 302 LINE",
"33 302 LINE",
"36 318 OFFCURVE",
"43 333 OFFCURVE",
"77 333 CURVE SMOOTH",
"239 333 LINE",
"230 363 LINE",
"56 23 LINE",
"56 0 LINE"
);
}
);
width = 267;
}
);
leftKerningGroup = zero.dnom;
rightKerningGroup = zero.dnom;
},
{
color = 6;
glyphname = eight.dnom;
lastChange = "2023-09-29 09:16:23 +0000";
layers = (
{
layerId = m004;
paths = (
{
closed = 1;
nodes = (
"143 226 LINE",
"149 193 LINE",
"214 213 OFFCURVE",
"267 244 OFFCURVE",
"267 296 CURVE SMOOTH",
"267 349 OFFCURVE",
"218 382 OFFCURVE",
"155 382 CURVE SMOOTH",
"87 382 OFFCURVE",
"33 341 OFFCURVE",
"33 284 CURVE SMOOTH",
"33 241 OFFCURVE",
"55 214 OFFCURVE",
"97 190 CURVE SMOOTH",
"146 162 LINE",
"138 193 LINE",
"79 184 OFFCURVE",
"30 140 OFFCURVE",
"30 88 CURVE SMOOTH",
"30 31 OFFCURVE",
"79 -6 OFFCURVE",
"147 -6 CURVE SMOOTH",
"216 -6 OFFCURVE",
"270 38 OFFCURVE",
"270 98 CURVE SMOOTH",
"270 142 OFFCURVE",
"250 169 OFFCURVE",
"201 195 CURVE SMOOTH"
);
},
{
closed = 1;
nodes = (
"85 329 OFFCURVE",
"110 351 OFFCURVE",
"148 351 CURVE SMOOTH",
"184 351 OFFCURVE",
"213 331 OFFCURVE",
"213 292 CURVE SMOOTH",
"213 261 OFFCURVE",
"193 236 OFFCURVE",
"163 215 CURVE",
"132 233 LINE SMOOTH",
"100 252 OFFCURVE",
"85 274 OFFCURVE",
"85 296 CURVE SMOOTH"
);
},
{
closed = 1;
nodes = (
"113 25 OFFCURVE",
"84 53 OFFCURVE",
"84 92 CURVE SMOOTH",
"84 125 OFFCURVE",
"100 153 OFFCURVE",
"127 173 CURVE",
"174 146 LINE SMOOTH",
"204 129 OFFCURVE",
"218 113 OFFCURVE",
"218 84 CURVE SMOOTH",
"218 51 OFFCURVE",
"191 25 OFFCURVE",
"153 25 CURVE SMOOTH"
);
}
);
width = 300;
}
);
leftKerningGroup = zero.dnom;
rightKerningGroup = zero.dnom;
},
{
color = 6;
glyphname = nine.dnom;
lastChange = "2023-09-29 09:16:23 +0000";
layers = (
{
layerId = m004;
paths = (
{
closed = 1;
nodes = (
"75 382 OFFCURVE",
"23 331 OFFCURVE",
"23 261 CURVE SMOOTH",
"23 187 OFFCURVE",
"70 154 OFFCURVE",
"124 154 CURVE SMOOTH",
"155 154 OFFCURVE",
"183 167 OFFCURVE",
"207 194 CURVE",
"210 194 LINE",
"201 105 OFFCURVE",
"152 46 OFFCURVE",
"41 22 CURVE",
"44 -3 LINE",
"183 14 OFFCURVE",
"273 100 OFFCURVE",
"273 229 CURVE SMOOTH",
"273 321 OFFCURVE",
"226 382 OFFCURVE",
"149 382 CURVE SMOOTH"
);
},
{
closed = 1;
nodes = (
"111 196 OFFCURVE",
"83 227 OFFCURVE",
"83 273 CURVE SMOOTH",
"83 322 OFFCURVE",
"109 352 OFFCURVE",
"143 352 CURVE SMOOTH",
"191 352 OFFCURVE",
"211 312 OFFCURVE",
"211 238 CURVE SMOOTH",
"211 225 LINE",
"192 205 OFFCURVE",
"167 196 OFFCURVE",
"147 196 CURVE SMOOTH"
);
}
);
width = 300;
}
);
leftKerningGroup = zero.dnom;
rightKerningGroup = zero.dnom;
},
{
color = 6;
glyphname = fraction;
lastChange = "2023-09-29 09:16:23 +0000";
layers = (
{
layerId = m004;
paths = (
{
closed = 1;
nodes = (
"-103 0 LINE",
"317 700 LINE",
"262 700 LINE",
"-158 0 LINE"
);
}
);
width = 160;
}
);
unicode = 2044;
},
{
color = 6;
glyphname = .notdef;
lastChange = "2023-09-29 09:16:23 +0000";
layers = (
{
layerId = m004;
paths = (
{
closed = 1;
nodes = (
"547 0 LINE",
"547 700 LINE",
"40 700 LINE",
"40 0 LINE"
);
},
{
closed = 1;
nodes = (
"134 660 LINE",
"453 660 LINE",
"453 40 LINE",
"134 40 LINE"
);
}
);
width = 587;
}
);
},
{
color = 6;
glyphname = period;
lastChange = "2023-09-29 09:16:23 +0000";
layers = (
{
layerId = m004;
paths = (
{
closed = 1;
nodes = (
"140 -10 OFFCURVE",
"168 15 OFFCURVE",
"168 52 CURVE SMOOTH",
"168 87 OFFCURVE",
"140 112 OFFCURVE",
"107 112 CURVE SMOOTH",
"73 112 OFFCURVE",
"45 87 OFFCURVE",
"45 52 CURVE SMOOTH",
"45 15 OFFCURVE",
"73 -10 OFFCURVE",
"107 -10 CURVE SMOOTH"
);
}
);
width = 213;
}
);
leftKerningGroup = period;
rightKerningGroup = period;
unicode = 002E;
},
{
color = 6;
glyphname = comma;
lastChange = "2023-09-29 09:16:23 +0000";
layers = (
{
layerId = m004;
paths = (
{
closed = 1;
nodes = (
"147 -112 OFFCURVE",
"186 -55 OFFCURVE",
"186 18 CURVE SMOOTH",
"186 73 OFFCURVE",
"156 107 OFFCURVE",
"111 107 CURVE SMOOTH",
"74 107 OFFCURVE",
"47 84 OFFCURVE",
"47 49 CURVE SMOOTH",
"47 15 OFFCURVE",
"73 -10 OFFCURVE",
"106 -10 CURVE SMOOTH",
"140 -10 OFFCURVE",
"164 15 OFFCURVE",
"164 49 CURVE",
"138 30 LINE",
"138 -55 OFFCURVE",
"117 -92 OFFCURVE",
"38 -146 CURVE",
"56 -170 LINE"
);
}
);
width = 229;
}
);
leftKerningGroup = period;
rightKerningGroup = period;
unicode = 002C;
},
{
color = 6;
glyphname = exclam;
lastChange = "2023-09-29 09:16:23 +0000";
layers = (
{
layerId = m004;
paths = (
{
closed = 1;
nodes = (
"148 194 LINE",
"157 315 OFFCURVE",
"165 416 OFFCURVE",
"174 527 CURVE SMOOTH",
"177 563 OFFCURVE",
"183 623 OFFCURVE",
"183 646 CURVE SMOOTH",
"183 687 OFFCURVE",
"163 710 OFFCURVE",
"131 710 CURVE SMOOTH",
"99 710 OFFCURVE",
"79 687 OFFCURVE",
"79 646 CURVE SMOOTH",
"79 623 OFFCURVE",
"85 563 OFFCURVE",
"88 527 CURVE SMOOTH",
"97 416 OFFCURVE",
"105 315 OFFCURVE",
"114 194 CURVE"
);
},
{
closed = 1;
nodes = (
"163 -10 OFFCURVE",
"190 14 OFFCURVE",
"190 50 CURVE SMOOTH",
"190 84 OFFCURVE",
"163 109 OFFCURVE",
"131 109 CURVE SMOOTH",
"98 109 OFFCURVE",
"71 84 OFFCURVE",
"71 50 CURVE SMOOTH",
"71 14 OFFCURVE",
"98 -10 OFFCURVE",
"131 -10 CURVE SMOOTH"
);
}
);
width = 262;
}
);
unicode = 0021;
},
{
color = 6;
glyphname = question;
lastChange = "2023-09-29 09:16:23 +0000";
layers = (
{
layerId = m004;
paths = (
{
closed = 1;
nodes = (
"167 204 LINE",
"156 248 OFFCURVE",
"151 275 OFFCURVE",
"151 294 CURVE SMOOTH",
"151 329 OFFCURVE",
"165 351 OFFCURVE",
"202 376 CURVE SMOOTH",
"258 413 LINE SMOOTH",
"312 449 OFFCURVE",
"335 486 OFFCURVE",
"335 536 CURVE SMOOTH",
"335 634 OFFCURVE",
"259 710 OFFCURVE",
"146 710 CURVE SMOOTH",
"81 710 OFFCURVE",
"22 690 OFFCURVE",
"22 657 CURVE SMOOTH",
"22 639 OFFCURVE",
"38 617 OFFCURVE",
"63 617 CURVE SMOOTH",
"71 617 OFFCURVE",
"80 619 OFFCURVE",
"88 623 CURVE SMOOTH",
"133 645 LINE SMOOTH",
"165 661 OFFCURVE",
"180 665 OFFCURVE",
"195 665 CURVE SMOOTH",
"235 665 OFFCURVE",
"265 628 OFFCURVE",
"265 570 CURVE SMOOTH",
"265 529 OFFCURVE",
"250 505 OFFCURVE",
"207 477 CURVE SMOOTH",
"146 437 LINE SMOOTH",
"100 407 OFFCURVE",
"82 376 OFFCURVE",
"82 333 CURVE SMOOTH",
"82 295 OFFCURVE",
"100 252 OFFCURVE",
"140 194 CURVE"
);
},
{
closed = 1;
nodes = (
"189 -10 OFFCURVE",
"214 16 OFFCURVE",
"214 50 CURVE SMOOTH",
"214 83 OFFCURVE",
"188 109 OFFCURVE",
"155 109 CURVE SMOOTH",
"121 109 OFFCURVE",
"95 83 OFFCURVE",
"95 50 CURVE SMOOTH",
"95 16 OFFCURVE",
"121 -10 OFFCURVE",
"155 -10 CURVE SMOOTH"
);
}
);
width = 364;
}
);
unicode = 003F;
},
{
color = 6;
glyphname = bullet;
lastChange = "2023-09-29 09:16:23 +0000";
layers = (
{
layerId = m004;
paths = (
{
closed = 1;
nodes = (
"258 238 OFFCURVE",
"309 286 OFFCURVE",
"309 355 CURVE SMOOTH",
"309 423 OFFCURVE",
"258 471 OFFCURVE",
"194 471 CURVE SMOOTH",
"129 471 OFFCURVE",
"77 423 OFFCURVE",
"77 355 CURVE SMOOTH",
"77 286 OFFCURVE",
"129 238 OFFCURVE",
"194 238 CURVE SMOOTH"
);
}
);
width = 387;
}
);
unicode = 2022;
},
{
color = 6;
glyphname = asterisk;
lastChange = "2023-09-29 09:16:23 +0000";
layers = (
{
layerId = m004;
paths = (
{
closed = 1;
nodes = (
"167 368 OFFCURVE",
"183 407 OFFCURVE",
"193 432 CURVE SMOOTH",
"221 505 LINE",
"249 432 LINE SMOOTH",
"259 407 OFFCURVE",
"275 368 OFFCURVE",
"306 368 CURVE SMOOTH",
"328 368 OFFCURVE",
"347 383 OFFCURVE",
"347 404 CURVE SMOOTH",
"347 425 OFFCURVE",
"338 437 OFFCURVE",
"299 469 CURVE SMOOTH",
"239 518 LINE",
"317 524 LINE SMOOTH",
"351 527 OFFCURVE",
"402 528 OFFCURVE",
"402 570 CURVE SMOOTH",
"402 594 OFFCURVE",
"384 609 OFFCURVE",
"362 609 CURVE SMOOTH",
"343 609 OFFCURVE",
"326 598 OFFCURVE",
"298 580 CURVE SMOOTH",
"232 538 LINE",
"252 615 LINE SMOOTH",
"259 641 OFFCURVE",
"261 658 OFFCURVE",
"261 670 CURVE SMOOTH",
"261 693 OFFCURVE",
"244 710 OFFCURVE",
"221 710 CURVE SMOOTH",
"198 710 OFFCURVE",
"181 693 OFFCURVE",
"181 670 CURVE SMOOTH",
"181 658 OFFCURVE",
"183 641 OFFCURVE",
"190 615 CURVE SMOOTH",
"210 538 LINE",
"144 580 LINE SMOOTH",
"116 598 OFFCURVE",
"99 609 OFFCURVE",
"80 609 CURVE SMOOTH",
"58 609 OFFCURVE",
"40 594 OFFCURVE",
"40 570 CURVE SMOOTH",
"40 528 OFFCURVE",
"91 527 OFFCURVE",
"125 524 CURVE SMOOTH",
"203 518 LINE",
"143 469 LINE SMOOTH",
"104 437 OFFCURVE",
"95 425 OFFCURVE",
"95 404 CURVE SMOOTH",
"95 383 OFFCURVE",
"114 368 OFFCURVE",
"136 368 CURVE SMOOTH"
);
}
);
visible = 1;
width = 442;
}
);
unicode = 002A;
},
{
color = 6;
glyphname = numbersign;
lastChange = "2023-09-29 09:16:23 +0000";
layers = (
{
layerId = m004;
paths = (
{
closed = 1;
nodes = (
"349 0 LINE",
"549 700 LINE",
"497 700 LINE",
"297 0 LINE"
);
},
{
closed = 1;
nodes = (
"526 200 LINE",
"550 288 LINE",
"583 244 LINE",
"-16 244 LINE",
"41 288 LINE",
"17 200 LINE"
);
},
{
closed = 1;
nodes = (
"120 0 LINE",
"320 700 LINE",
"268 700 LINE",
"68 0 LINE"
);
},
{
closed = 1;
nodes = (
"43 468 LINE",
"642 468 LINE",
"585 420 LINE",
"609 508 LINE",
"100 508 LINE",
"76 420 LINE"
);
}
);
width = 625;
}
);
unicode = 0023;
},
{
color = 6;
glyphname = slash;
lastChange = "2023-09-29 09:16:23 +0000";
layers = (
{
layerId = m004;
paths = (
{
closed = 1;
nodes = (
"65 -150 LINE",
"412 760 LINE",
"360 760 LINE",
"13 -150 LINE"
);
}
);
width = 425;
}
);
unicode = 002F;
},
{
color = 6;
glyphname = backslash;
lastChange = "2023-09-29 09:16:23 +0000";
layers = (
{
layerId = m004;
paths = (
{
closed = 1;
nodes = (
"412 -150 LINE",
"65 760 LINE",
"13 760 LINE",
"360 -150 LINE"
);
}
);
width = 425;
}
);
unicode = 005C;
},
{
color = 6;
glyphname = hyphen;
lastChange = "2023-09-29 09:16:23 +0000";
layers = (
{
layerId = m004;
paths = (
{
closed = 1;
nodes = (
"322 304 LINE",
"322 358 LINE",
"44 358 LINE",
"44 304 LINE"
);
}
);
width = 366;
}
);
leftKerningGroup = hyphen;
rightKerningGroup = hyphen;
unicode = 002D;
},
{
color = 6;
glyphname = endash;
lastChange = "2023-09-29 09:16:23 +0000";
layers = (
{
layerId = m004;
paths = (
{
closed = 1;
nodes = (
"520 309 LINE",
"520 353 LINE",
"42 353 LINE",
"42 309 LINE"
);
}
);
width = 562;
}
);
leftKerningGroup = hyphen;
rightKerningGroup = hyphen;
unicode = 2013;
},
{
color = 6;
glyphname = emdash;
lastChange = "2023-09-29 09:16:23 +0000";
layers = (
{
layerId = m004;
paths = (
{
closed = 1;
nodes = (
"1022 309 LINE",
"1022 353 LINE",
"42 353 LINE",
"42 309 LINE"
);
}
);
width = 1064;
}
);
leftKerningGroup = hyphen;
rightKerningGroup = hyphen;
unicode = 2014;
},
{
color = 6;
glyphname = underscore;
lastChange = "2023-09-29 09:16:23 +0000";
layers = (
{
layerId = m004;
paths = (
{
closed = 1;
nodes = (
"496 -100 LINE",
"496 -56 LINE",
"18 -56 LINE",
"18 -100 LINE"
);
}
);
width = 514;
}
);
unicode = 005F;
},
{
color = 6;
glyphname = parenleft;
lastChange = "2023-09-29 09:16:23 +0000";
layers = (
{
guideLines = (
{
position = "{120, 730}";
},
{
position = "{59, -120}";
}
);
layerId = m004;
paths = (
{
closed = 1;
nodes = (
"127 305 LINE",
"127 492 OFFCURVE",
"176 631 OFFCURVE",
"274 754 CURVE",
"256 770 LINE",
"106 633 OFFCURVE",
"37 500 OFFCURVE",
"37 305 CURVE"
);
},
{
closed = 1;
nodes = (
"274 -144 LINE",
"176 -21 OFFCURVE",
"127 118 OFFCURVE",
"127 305 CURVE",
"37 305 LINE",
"37 110 OFFCURVE",
"106 -23 OFFCURVE",
"256 -160 CURVE"
);
}
);
width = 290;
}
);
unicode = 0028;
},
{
color = 6;
glyphname = braceleft;
lastChange = "2023-09-29 09:16:23 +0000";
layers = (
{
guideLines = (
{
position = "{34, 305}";
}
);
layerId = m004;
paths = (
{
closed = 1;
nodes = (
"254 -124 LINE",
"185 -129 OFFCURVE",
"150 -83 OFFCURVE",
"167 8 CURVE SMOOTH",
"196 161 LINE SMOOTH",
"212 245 OFFCURVE",
"182 290 OFFCURVE",
"98 305 CURVE",
"182 320 OFFCURVE",
"212 365 OFFCURVE",
"196 449 CURVE SMOOTH",
"167 602 LINE SMOOTH",
"150 693 OFFCURVE",
"185 739 OFFCURVE",
"254 734 CURVE",
"254 764 LINE",
"123 774 OFFCURVE",
"55 712 OFFCURVE",
"78 594 CURVE SMOOTH",
"110 431 LINE SMOOTH",
"124 362 OFFCURVE",
"105 324 OFFCURVE",
"46 321 CURVE SMOOTH",
"26 320 LINE",
"26 290 LINE",
"46 289 LINE SMOOTH",
"105 286 OFFCURVE",
"124 248 OFFCURVE",
"110 179 CURVE SMOOTH",
"78 16 LINE SMOOTH",
"55 -102 OFFCURVE",
"123 -164 OFFCURVE",
"254 -154 CURVE"
);
}
);
width = 284;
}
);
unicode = 007B;
},
{
color = 6;
glyphname = bracketleft;
lastChange = "2023-09-29 09:16:23 +0000";
layers = (
{
guideLines = (
{
position = "{12, 305}";
}
);
layerId = m004;
paths = (
{
closed = 1;
nodes = (
"278 -150 LINE",
"278 -120 LINE",
"237 -116 LINE SMOOTH",
"188 -111 OFFCURVE",
"178 -110 OFFCURVE",
"178 -68 CURVE SMOOTH",
"178 678 LINE SMOOTH",
"178 720 OFFCURVE",
"188 721 OFFCURVE",
"237 726 CURVE SMOOTH",
"278 730 LINE",
"278 760 LINE",
"94 760 LINE",
"94 -150 LINE"
);
}
);
width = 300;
}
);
unicode = 005B;
},
{
color = 6;
glyphname = quotesinglbase;
lastChange = "2023-09-29 09:16:23 +0000";
layers = (
{
layerId = m004;
paths = (
{
closed = 1;
nodes = (
"141 -112 OFFCURVE",
"178 -50 OFFCURVE",
"178 12 CURVE SMOOTH",
"178 67 OFFCURVE",
"150 100 OFFCURVE",
"107 100 CURVE SMOOTH",
"71 100 OFFCURVE",
"46 76 OFFCURVE",
"46 44 CURVE SMOOTH",
"46 12 OFFCURVE",
"70 -10 OFFCURVE",
"100 -10 CURVE SMOOTH",
"131 -10 OFFCURVE",
"154 13 OFFCURVE",
"154 45 CURVE",
"131 3 LINE",
"131 -48 OFFCURVE",
"112 -89 OFFCURVE",
"40 -132 CURVE",
"57 -156 LINE"
);
}
);
width = 220;
}
);
leftKerningGroup = period;
rightKerningGroup = period;
unicode = 201A;
},
{
color = 6;
glyphname = quotedblbase;
lastChange = "2023-09-29 09:16:23 +0000";
layers = (
{
layerId = m004;
paths = (
{
closed = 1;
nodes = (
"310 -112 OFFCURVE",
"347 -50 OFFCURVE",
"347 12 CURVE SMOOTH",
"347 67 OFFCURVE",
"319 100 OFFCURVE",
"276 100 CURVE SMOOTH",
"240 100 OFFCURVE",
"215 76 OFFCURVE",
"215 44 CURVE SMOOTH",
"215 12 OFFCURVE",
"239 -10 OFFCURVE",
"269 -10 CURVE SMOOTH",
"300 -10 OFFCURVE",
"323 13 OFFCURVE",
"323 45 CURVE",
"300 3 LINE",
"300 -48 OFFCURVE",
"281 -89 OFFCURVE",
"209 -132 CURVE",
"226 -156 LINE"
);
},
{
closed = 1;
nodes = (
"141 -112 OFFCURVE",
"178 -50 OFFCURVE",
"178 12 CURVE SMOOTH",
"178 67 OFFCURVE",
"150 100 OFFCURVE",
"107 100 CURVE SMOOTH",
"71 100 OFFCURVE",
"46 76 OFFCURVE",
"46 44 CURVE SMOOTH",
"46 12 OFFCURVE",
"70 -10 OFFCURVE",
"100 -10 CURVE SMOOTH",
"131 -10 OFFCURVE",
"154 13 OFFCURVE",
"154 45 CURVE",
"131 3 LINE",
"131 -48 OFFCURVE",
"112 -89 OFFCURVE",
"40 -132 CURVE",
"57 -156 LINE"
);
}
);
width = 389;
}
);
leftKerningGroup = period;
rightKerningGroup = period;
unicode = 201E;
},
{
color = 6;
glyphname = quotedblleft;
lastChange = "2023-09-29 09:16:23 +0000";
layers = (
{
layerId = m004;
paths = (
{
closed = 1;
nodes = (
"315 454 OFFCURVE",
"340 478 OFFCURVE",
"340 510 CURVE SMOOTH",
"340 542 OFFCURVE",
"316 564 OFFCURVE",
"286 564 CURVE SMOOTH",
"255 564 OFFCURVE",
"232 541 OFFCURVE",
"232 509 CURVE",
"255 551 LINE",
"255 602 OFFCURVE",
"274 643 OFFCURVE",
"346 686 CURVE",
"329 710 LINE",
"245 666 OFFCURVE",
"208 604 OFFCURVE",
"208 542 CURVE SMOOTH",
"208 487 OFFCURVE",
"236 454 OFFCURVE",
"279 454 CURVE SMOOTH"
);
},
{
closed = 1;
nodes = (
"146 454 OFFCURVE",
"171 478 OFFCURVE",
"171 510 CURVE SMOOTH",
"171 542 OFFCURVE",
"147 564 OFFCURVE",
"117 564 CURVE SMOOTH",
"86 564 OFFCURVE",
"63 541 OFFCURVE",
"63 509 CURVE",
"86 551 LINE",
"86 602 OFFCURVE",
"105 643 OFFCURVE",
"177 686 CURVE",
"160 710 LINE",
"76 666 OFFCURVE",
"39 604 OFFCURVE",
"39 542 CURVE SMOOTH",
"39 487 OFFCURVE",
"67 454 OFFCURVE",
"110 454 CURVE SMOOTH"
);
}
);
width = 387;
}
);
leftKerningGroup = quoteleft;
rightKerningGroup = quoteleft;
unicode = 201C;
},
{
color = 6;
glyphname = quotedblright;
lastChange = "2023-09-29 09:16:23 +0000";
layers = (
{
layerId = m004;
paths = (
{
closed = 1;
nodes = (
"317 498 OFFCURVE",
"354 560 OFFCURVE",
"354 622 CURVE SMOOTH",
"354 677 OFFCURVE",
"326 710 OFFCURVE",
"283 710 CURVE SMOOTH",
"247 710 OFFCURVE",
"222 686 OFFCURVE",
"222 654 CURVE SMOOTH",
"222 622 OFFCURVE",
"246 600 OFFCURVE",
"276 600 CURVE SMOOTH",
"307 600 OFFCURVE",
"330 623 OFFCURVE",
"330 655 CURVE",
"307 613 LINE",
"307 562 OFFCURVE",
"288 521 OFFCURVE",
"216 478 CURVE",
"233 454 LINE"
);
},
{
closed = 1;
nodes = (
"148 498 OFFCURVE",
"185 560 OFFCURVE",
"185 622 CURVE SMOOTH",
"185 677 OFFCURVE",
"157 710 OFFCURVE",
"114 710 CURVE SMOOTH",
"78 710 OFFCURVE",
"53 686 OFFCURVE",
"53 654 CURVE SMOOTH",
"53 622 OFFCURVE",
"77 600 OFFCURVE",
"107 600 CURVE SMOOTH",
"138 600 OFFCURVE",
"161 623 OFFCURVE",
"161 655 CURVE",
"138 613 LINE",
"138 562 OFFCURVE",
"119 521 OFFCURVE",
"47 478 CURVE",
"64 454 LINE"
);
}
);
width = 387;
}
);
leftKerningGroup = quoteright;
rightKerningGroup = quoteright;
unicode = 201D;
},
{
color = 6;
glyphname = quoteleft;
lastChange = "2023-09-29 09:16:23 +0000";
layers = (
{
layerId = m004;
paths = (
{
closed = 1;
nodes = (
"146 454 OFFCURVE",
"171 478 OFFCURVE",
"171 510 CURVE SMOOTH",
"171 542 OFFCURVE",
"147 564 OFFCURVE",
"117 564 CURVE SMOOTH",
"86 564 OFFCURVE",
"63 541 OFFCURVE",
"63 509 CURVE",
"86 551 LINE",
"86 602 OFFCURVE",
"105 643 OFFCURVE",
"177 686 CURVE",
"160 710 LINE",
"76 666 OFFCURVE",
"39 604 OFFCURVE",
"39 542 CURVE SMOOTH",
"39 487 OFFCURVE",
"67 454 OFFCURVE",
"110 454 CURVE SMOOTH"
);
}
);
width = 218;
}
);
leftKerningGroup = quoteleft;
rightKerningGroup = quoteleft;
unicode = 2018;
},
{
color = 6;
glyphname = quoteright;
lastChange = "2023-09-29 09:16:23 +0000";
layers = (
{
layerId = m004;
paths = (
{
closed = 1;
nodes = (
"148 498 OFFCURVE",
"185 560 OFFCURVE",
"185 622 CURVE SMOOTH",
"185 677 OFFCURVE",
"157 710 OFFCURVE",
"114 710 CURVE SMOOTH",
"78 710 OFFCURVE",
"53 686 OFFCURVE",
"53 654 CURVE SMOOTH",
"53 622 OFFCURVE",
"77 600 OFFCURVE",
"107 600 CURVE SMOOTH",
"138 600 OFFCURVE",
"161 623 OFFCURVE",
"161 655 CURVE",
"138 613 LINE",
"138 562 OFFCURVE",
"119 521 OFFCURVE",
"47 478 CURVE",
"64 454 LINE"
);
}
);
width = 218;
}
);
leftKerningGroup = quoteright;
rightKerningGroup = quoteright;
unicode = 2019;
},
{
color = 6;
glyphname = guilsinglleft;
lastChange = "2023-09-29 09:16:23 +0000";
layers = (
{
layerId = m004;
paths = (
{
closed = 1;
nodes = (
"400 16 LINE",
"308 140 OFFCURVE",
"253 190 OFFCURVE",
"162 260 CURVE",
"248 325 OFFCURVE",
"303 375 OFFCURVE",
"400 503 CURVE",
"378 520 LINE",
"257 397 OFFCURVE",
"176 337 OFFCURVE",
"42 273 CURVE",
"42 247 LINE",
"177 182 OFFCURVE",
"258 122 OFFCURVE",
"378 0 CURVE"
);
}
);
width = 432;
}
);
leftKerningGroup = guilsinglleft;
rightKerningGroup = guilsinglleft;
unicode = 2039;
},
{
color = 6;
glyphname = quotesingle;
lastChange = "2023-09-29 09:16:23 +0000";
layers = (
{
layerId = m004;
paths = (
{
closed = 1;
nodes = (
"101 465 LINE",
"123 601 LINE SMOOTH",
"129 631 OFFCURVE",
"133 647 OFFCURVE",
"133 666 CURVE SMOOTH",
"133 693 OFFCURVE",
"115 710 OFFCURVE",
"88 710 CURVE SMOOTH",
"61 710 OFFCURVE",
"43 693 OFFCURVE",
"43 666 CURVE SMOOTH",
"43 647 OFFCURVE",
"47 631 OFFCURVE",
"53 601 CURVE SMOOTH",
"75 465 LINE"
);
}
);
width = 176;
}
);
leftKerningGroup = quotesingle;
rightKerningGroup = quotesingle;
unicode = 0027;
},
{
color = 6;
glyphname = florin;
lastChange = "2023-09-29 09:16:23 +0000";
layers = (
{
layerId = m004;
paths = (
{
closed = 1;
nodes = (
"40 -257 OFFCURVE",
"48 -257 OFFCURVE",
"56 -257 CURVE SMOOTH",
"175 -257 OFFCURVE",
"247 -158 OFFCURVE",
"269 -33 CURVE SMOOTH",
"369 523 LINE SMOOTH",
"384 606 OFFCURVE",
"404 670 OFFCURVE",
"440 670 CURVE SMOOTH",
"447 670 OFFCURVE",
"454 667 OFFCURVE",
"461 663 CURVE SMOOTH",
"523 627 LINE SMOOTH",
"531 622 OFFCURVE",
"536 621 OFFCURVE",
"542 621 CURVE SMOOTH",
"564 621 OFFCURVE",
"589 640 OFFCURVE",
"589 661 CURVE SMOOTH",
"589 684 OFFCURVE",
"549 705 OFFCURVE",
"507 709 CURVE SMOOTH",
"499 710 OFFCURVE",
"491 710 OFFCURVE",
"483 710 CURVE SMOOTH",
"364 710 OFFCURVE",
"294 611 OFFCURVE",
"271 486 CURVE SMOOTH",
"170 -70 LINE SMOOTH",
"155 -153 OFFCURVE",
"135 -217 OFFCURVE",
"99 -217 CURVE SMOOTH",
"92 -217 OFFCURVE",
"87 -215 OFFCURVE",
"78 -210 CURVE SMOOTH",
"17 -174 LINE SMOOTH",
"9 -169 OFFCURVE",
"3 -168 OFFCURVE",
"-2 -168 CURVE SMOOTH",
"-24 -168 OFFCURVE",
"-50 -187 OFFCURVE",
"-50 -209 CURVE SMOOTH",
"-50 -231 OFFCURVE",
"-9 -252 OFFCURVE",
"32 -256 CURVE SMOOTH"
);
},
{
closed = 1;
nodes = (
"483 361 LINE",
"493 401 LINE",
"151 401 LINE",
"141 361 LINE"
);
}
);
width = 539;
}
);
unicode = 0192;
},
{
color = 6;
glyphname = at;
lastChange = "2023-09-29 09:16:23 +0000";
layers = (
{
layerId = m004;
paths = (
{
closed = 1;
nodes = (
"624 -175 OFFCURVE",
"723 -145 OFFCURVE",
"786 -90 CURVE",
"765 -66 LINE",
"713 -106 OFFCURVE",
"623 -132 OFFCURVE",
"522 -132 CURVE SMOOTH",
"289 -132 OFFCURVE",
"120 24 OFFCURVE",
"120 269 CURVE SMOOTH",
"120 502 OFFCURVE",
"270 671 OFFCURVE",
"490 671 CURVE SMOOTH",
"688 671 OFFCURVE",
"831 546 OFFCURVE",
"831 315 CURVE SMOOTH",
"831 175 OFFCURVE",
"764 75 OFFCURVE",
"683 75 CURVE SMOOTH",
"642 75 OFFCURVE",
"629 93 OFFCURVE",
"630 131 CURVE SMOOTH",
"639 408 LINE SMOOTH",
"641 475 OFFCURVE",
"585 515 OFFCURVE",
"506 515 CURVE SMOOTH",
"422 515 OFFCURVE",
"322 458 OFFCURVE",
"296 386 CURVE SMOOTH",
"290 369 OFFCURVE",
"305 365 OFFCURVE",
"327 365 CURVE SMOOTH",
"363 365 OFFCURVE",
"386 381 OFFCURVE",
"388 391 CURVE SMOOTH",
"399 448 OFFCURVE",
"437 474 OFFCURVE",
"476 474 CURVE SMOOTH",
"526 474 OFFCURVE",
"558 441 OFFCURVE",
"556 396 CURVE SMOOTH",
"553 309 LINE",
"529 301 LINE SMOOTH",
"350 241 OFFCURVE",
"295 172 OFFCURVE",
"298 110 CURVE SMOOTH",
"300 69 OFFCURVE",
"323 25 OFFCURVE",
"404 25 CURVE SMOOTH",
"449 25 OFFCURVE",
"492 36 OFFCURVE",
"545 87 CURVE",
"552 87 LINE",
"556 68 OFFCURVE",
"564 27 OFFCURVE",
"635 27 CURVE SMOOTH",
"778 27 OFFCURVE",
"911 131 OFFCURVE",
"911 346 CURVE SMOOTH",
"911 567 OFFCURVE",
"756 710 OFFCURVE",
"511 710 CURVE SMOOTH",
"229 710 OFFCURVE",
"35 509 OFFCURVE",
"35 258 CURVE SMOOTH",
"35 -13 OFFCURVE",
"225 -175 OFFCURVE",
"509 -175 CURVE SMOOTH"
);
},
{
closed = 1;
nodes = (
"413 88 OFFCURVE",
"391 102 OFFCURVE",
"389 138 CURVE SMOOTH",
"387 175 OFFCURVE",
"406 225 OFFCURVE",
"543 271 CURVE SMOOTH",
"552 274 LINE",
"547 120 LINE",
"524 105 OFFCURVE",
"498 88 OFFCURVE",
"456 88 CURVE SMOOTH"
);
}
);
width = 951;
}
);
unicode = 0040;
},
{
color = 6;
glyphname = ampersand;
lastChange = "2023-09-29 09:16:23 +0000";
layers = (
{
layerId = m004;
paths = (
{
closed = 1;
nodes = (
"728 0 LINE",
"728 30 LINE",
"663 35 OFFCURVE",
"641 51 OFFCURVE",
"593 102 CURVE SMOOTH",
"301 404 LINE SMOOTH",
"243 464 OFFCURVE",
"202 504 OFFCURVE",
"202 565 CURVE SMOOTH",
"202 629 OFFCURVE",
"242 672 OFFCURVE",
"309 672 CURVE SMOOTH",
"378 672 OFFCURVE",
"409 626 OFFCURVE",
"409 570 CURVE SMOOTH",
"409 490 OFFCURVE",
"355 441 OFFCURVE",
"284 401 CURVE",
"310 383 LINE",
"419 434 OFFCURVE",
"496 484 OFFCURVE",
"496 572 CURVE SMOOTH",
"496 665 OFFCURVE",
"401 710 OFFCURVE",
"322 710 CURVE SMOOTH",
"204 710 OFFCURVE",
"122 641 OFFCURVE",
"122 538 CURVE SMOOTH",
"122 459 OFFCURVE",
"177 409 OFFCURVE",
"240 344 CURVE SMOOTH",
"573 0 LINE"
);
},
{
closed = 1;
nodes = (
"393 -10 OFFCURVE",
"498 38 OFFCURVE",
"584 264 CURVE SMOOTH",
"618 353 OFFCURVE",
"646 365 OFFCURVE",
"711 370 CURVE",
"711 400 LINE",
"503 400 LINE",
"503 370 LINE",
"514 369 LINE SMOOTH",
"569 367 OFFCURVE",
"568 333 OFFCURVE",
"543 266 CURVE SMOOTH",
"469 64 OFFCURVE",
"375 29 OFFCURVE",
"295 29 CURVE SMOOTH",
"198 29 OFFCURVE",
"130 101 OFFCURVE",
"130 192 CURVE SMOOTH",
"130 283 OFFCURVE",
"180 331 OFFCURVE",
"252 368 CURVE",
"225 382 LINE",
"119 348 OFFCURVE",
"43 276 OFFCURVE",
"43 174 CURVE SMOOTH",
"43 70 OFFCURVE",
"119 -10 OFFCURVE",
"270 -10 CURVE SMOOTH"
);
}
);
width = 735;
}
);
unicode = 0026;
},
{
color = 6;
glyphname = paragraph;
lastChange = "2023-09-29 09:16:23 +0000";
layers = (
{
layerId = m004;
paths = (
{
closed = 1;
nodes = (
"253 -147 OFFCURVE",
"441 -34 OFFCURVE",
"441 251 CURVE SMOOTH",
"441 700 LINE",
"388 700 LINE",
"388 244 LINE SMOOTH",
"388 61 OFFCURVE",
"329 2 OFFCURVE",
"305 -22 CURVE",
"296 -22 LINE",
"306 -4 OFFCURVE",
"306 18 OFFCURVE",
"306 48 CURVE SMOOTH",
"306 700 LINE",
"253 700 LINE",
"253 25 LINE SMOOTH",
"253 -64 OFFCURVE",
"219 -101 OFFCURVE",
"181 -101 CURVE SMOOTH",
"175 -101 OFFCURVE",
"169 -100 OFFCURVE",
"162 -96 CURVE SMOOTH",
"106 -66 LINE SMOOTH",
"83 -54 OFFCURVE",
"51 -78 OFFCURVE",
"51 -103 CURVE SMOOTH",
"51 -128 OFFCURVE",
"96 -147 OFFCURVE",
"134 -147 CURVE SMOOTH"
);
},
{
closed = 1;
nodes = (
"225 700 LINE",
"105 700 OFFCURVE",
"26 621 OFFCURVE",
"26 511 CURVE SMOOTH",
"26 400 OFFCURVE",
"105 321 OFFCURVE",
"225 321 CURVE"
);
},
{
closed = 1;
nodes = (
"257 320 LINE",
"257 700 LINE",
"225 700 LINE",
"225 320 LINE"
);
},
{
closed = 1;
nodes = (
"441 602 LINE",
"441 644 OFFCURVE",
"451 666 OFFCURVE",
"510 669 CURVE SMOOTH",
"531 670 LINE",
"531 700 LINE",
"293 700 LINE",
"293 668 LINE",
"419 668 LINE",
"422 602 LINE"
);
}
);
width = 548;
}
);
unicode = 00B6;
},
{
color = 6;
glyphname = section;
lastChange = "2023-09-29 09:16:23 +0000";
layers = (
{
layerId = m004;
paths = (
{
closed = 1;
nodes = (
"246 -147 OFFCURVE",
"420 -44 OFFCURVE",
"420 121 CURVE SMOOTH",
"420 185 OFFCURVE",
"402 239 OFFCURVE",
"343 318 CURVE SMOOTH",
"287 393 LINE SMOOTH",
"254 438 OFFCURVE",
"199 500 OFFCURVE",
"199 559 CURVE SMOOTH",
"199 627 OFFCURVE",
"249 664 OFFCURVE",
"287 664 CURVE SMOOTH",
"293 664 OFFCURVE",
"299 663 OFFCURVE",
"306 659 CURVE SMOOTH",
"362 629 LINE SMOOTH",
"385 617 OFFCURVE",
"417 641 OFFCURVE",
"417 666 CURVE SMOOTH",
"417 691 OFFCURVE",
"372 710 OFFCURVE",
"334 710 CURVE SMOOTH",
"210 710 OFFCURVE",
"36 607 OFFCURVE",
"36 442 CURVE SMOOTH",
"36 378 OFFCURVE",
"57 320 OFFCURVE",
"113 245 CURVE SMOOTH",
"169 170 LINE SMOOTH",
"202 125 OFFCURVE",
"257 63 OFFCURVE",
"257 4 CURVE SMOOTH",
"257 -64 OFFCURVE",
"207 -101 OFFCURVE",
"169 -101 CURVE SMOOTH",
"163 -101 OFFCURVE",
"157 -100 OFFCURVE",
"150 -96 CURVE SMOOTH",
"94 -66 LINE SMOOTH",
"71 -54 OFFCURVE",
"39 -78 OFFCURVE",
"39 -103 CURVE SMOOTH",
"39 -128 OFFCURVE",
"84 -147 OFFCURVE",
"122 -147 CURVE SMOOTH"
);
},
{
closed = 1;
nodes = (
"301 -14 OFFCURVE",
"304 8 OFFCURVE",
"304 38 CURVE SMOOTH",
"304 107 OFFCURVE",
"257 166 OFFCURVE",
"217 217 CURVE SMOOTH",
"163 287 LINE SMOOTH",
"109 357 OFFCURVE",
"96 406 OFFCURVE",
"96 459 CURVE SMOOTH",
"96 522 OFFCURVE",
"132 571 OFFCURVE",
"156 595 CURVE",
"165 595 LINE",
"155 577 OFFCURVE",
"152 555 OFFCURVE",
"152 525 CURVE SMOOTH",
"152 456 OFFCURVE",
"199 397 OFFCURVE",
"239 346 CURVE SMOOTH",
"293 276 LINE SMOOTH",
"350 203 OFFCURVE",
"360 157 OFFCURVE",
"360 104 CURVE SMOOTH",
"360 41 OFFCURVE",
"324 -8 OFFCURVE",
"300 -32 CURVE",
"291 -32 LINE"
);
}
);
width = 457;
}
);
unicode = 00A7;
},
{
color = 6;
glyphname = copyright;
lastChange = "2023-09-29 09:16:23 +0000";
layers = (
{
layerId = m004;
paths = (
{
closed = 1;
nodes = (
"623 -10 OFFCURVE",
"773 140 OFFCURVE",
"773 351 CURVE SMOOTH",
"773 560 OFFCURVE",
"623 710 OFFCURVE",
"414 710 CURVE SMOOTH",
"205 710 OFFCURVE",
"55 560 OFFCURVE",
"55 351 CURVE SMOOTH",
"55 140 OFFCURVE",
"205 -10 OFFCURVE",
"414 -10 CURVE SMOOTH"
);
},
{
closed = 1;
nodes = (
"233 33 OFFCURVE",
"105 166 OFFCURVE",
"105 351 CURVE SMOOTH",
"105 537 OFFCURVE",
"233 667 OFFCURVE",
"414 667 CURVE SMOOTH",
"595 667 OFFCURVE",
"723 537 OFFCURVE",
"723 351 CURVE SMOOTH",
"723 166 OFFCURVE",
"595 33 OFFCURVE",
"414 33 CURVE SMOOTH"
);
},
{
closed = 1;
nodes = (
"460 161 OFFCURVE",
"504 168 OFFCURVE",
"555 189 CURVE",
"555 287 LINE",
"533 287 LINE",
"511 208 OFFCURVE",
"477 192 OFFCURVE",
"425 192 CURVE SMOOTH",
"343 192 OFFCURVE",
"290 272 OFFCURVE",
"290 362 CURVE SMOOTH",
"290 448 OFFCURVE",
"343 514 OFFCURVE",
"418 514 CURVE SMOOTH",
"485 514 OFFCURVE",
"518 482 OFFCURVE",
"539 433 CURVE",
"560 433 LINE",
"560 514 LINE",
"527 530 OFFCURVE",
"489 545 OFFCURVE",
"427 545 CURVE SMOOTH",
"300 545 OFFCURVE",
"217 456 OFFCURVE",
"217 348 CURVE SMOOTH",
"217 240 OFFCURVE",
"294 161 OFFCURVE",
"417 161 CURVE SMOOTH"
);
}
);
width = 828;
}
);
leftKerningGroup = copyright;
rightKerningGroup = copyright;
unicode = 00A9;
},
{
color = 6;
glyphname = registered;
lastChange = "2023-09-29 09:16:23 +0000";
layers = (
{
layerId = m004;
paths = (
{
closed = 1;
nodes = (
"623 -10 OFFCURVE",
"773 140 OFFCURVE",
"773 351 CURVE SMOOTH",
"773 560 OFFCURVE",
"623 710 OFFCURVE",
"414 710 CURVE SMOOTH",
"205 710 OFFCURVE",
"55 560 OFFCURVE",
"55 351 CURVE SMOOTH",
"55 140 OFFCURVE",
"205 -10 OFFCURVE",
"414 -10 CURVE SMOOTH"
);
},
{
closed = 1;
nodes = (
"233 33 OFFCURVE",
"105 166 OFFCURVE",
"105 351 CURVE SMOOTH",
"105 537 OFFCURVE",
"233 667 OFFCURVE",
"414 667 CURVE SMOOTH",
"595 667 OFFCURVE",
"723 537 OFFCURVE",
"723 351 CURVE SMOOTH",
"723 166 OFFCURVE",
"595 33 OFFCURVE",
"414 33 CURVE SMOOTH"
);
},
{
closed = 1;
nodes = (
"421 164 LINE",
"421 186 LINE",
"393 188 LINE SMOOTH",
"370 190 OFFCURVE",
"362 200 OFFCURVE",
"362 224 CURVE SMOOTH",
"362 341 LINE",
"390 341 LINE SMOOTH",
"452 341 OFFCURVE",
"467 287 OFFCURVE",
"483 208 CURVE SMOOTH",
"490 174 OFFCURVE",
"498 164 OFFCURVE",
"533 164 CURVE SMOOTH",
"587 164 LINE",
"587 186 LINE",
"578 187 LINE SMOOTH",
"560 189 OFFCURVE",
"554 198 OFFCURVE",
"551 219 CURVE SMOOTH",
"540 293 OFFCURVE",
"516 336 OFFCURVE",
"459 351 CURVE",
"536 365 OFFCURVE",
"558 409 OFFCURVE",
"558 449 CURVE SMOOTH",
"558 510 OFFCURVE",
"515 542 OFFCURVE",
"424 542 CURVE SMOOTH",
"242 542 LINE",
"242 520 LINE",
"264 518 LINE SMOOTH",
"287 516 OFFCURVE",
"296 506 OFFCURVE",
"296 482 CURVE SMOOTH",
"296 224 LINE SMOOTH",
"296 200 OFFCURVE",
"287 190 OFFCURVE",
"264 188 CURVE SMOOTH",
"242 186 LINE",
"242 164 LINE"
);
},
{
closed = 1;
nodes = (
"362 494 LINE SMOOTH",
"362 508 OFFCURVE",
"375 513 OFFCURVE",
"415 513 CURVE SMOOTH",
"460 513 OFFCURVE",
"488 487 OFFCURVE",
"488 443 CURVE SMOOTH",
"488 396 OFFCURVE",
"453 370 OFFCURVE",
"405 370 CURVE SMOOTH",
"362 370 LINE"
);
}
);
width = 828;
}
);
leftKerningGroup = copyright;
rightKerningGroup = copyright;
unicode = 00AE;
},
{
color = 6;
glyphname = trademark;
lastChange = "2023-09-29 09:16:23 +0000";
layers = (
{
layerId = m004;
paths = (
{
closed = 1;
nodes = (
"322 262 LINE",
"322 284 LINE",
"296 286 LINE SMOOTH",
"268 288 OFFCURVE",
"259 299 OFFCURVE",
"259 329 CURVE SMOOTH",
"259 672 LINE",
"320 670 LINE SMOOTH",
"380 668 OFFCURVE",
"394 653 OFFCURVE",
"404 585 CURVE",
"426 585 LINE",
"422 703 LINE",
"398 701 OFFCURVE",
"364 700 OFFCURVE",
"332 700 CURVE SMOOTH",
"119 700 LINE SMOOTH",
"87 700 OFFCURVE",
"53 701 OFFCURVE",
"29 703 CURVE",
"25 585 LINE",
"47 585 LINE",
"57 653 OFFCURVE",
"71 668 OFFCURVE",
"131 670 CURVE SMOOTH",
"192 672 LINE",
"192 329 LINE SMOOTH",
"192 299 OFFCURVE",
"183 288 OFFCURVE",
"155 286 CURVE SMOOTH",
"129 284 LINE",
"129 262 LINE"
);
},
{
closed = 1;
nodes = (
"615 262 LINE",
"615 284 LINE",
"601 285 LINE SMOOTH",
"559 288 OFFCURVE",
"547 298 OFFCURVE",
"550 339 CURVE SMOOTH",
"574 674 LINE",
"551 672 LINE",
"707 262 LINE",
"728 262 LINE",
"874 660 LINE",
"861 662 LINE",
"890 347 LINE SMOOTH",
"894 301 OFFCURVE",
"887 289 OFFCURVE",
"855 286 CURVE SMOOTH",
"834 284 LINE",
"834 262 LINE",
"1018 262 LINE",
"1018 284 LINE",
"1004 285 LINE SMOOTH",
"968 288 OFFCURVE",
"956 303 OFFCURVE",
"952 347 CURVE SMOOTH",
"926 623 LINE SMOOTH",
"922 663 OFFCURVE",
"930 674 OFFCURVE",
"968 677 CURVE SMOOTH",
"981 678 LINE",
"981 700 LINE",
"858 700 LINE",
"721 327 LINE",
"746 327 LINE",
"604 700 LINE",
"478 700 LINE",
"478 678 LINE",
"491 677 LINE SMOOTH",
"532 674 OFFCURVE",
"542 661 OFFCURVE",
"539 623 CURVE SMOOTH",
"515 339 LINE SMOOTH",
"512 299 OFFCURVE",
"503 288 OFFCURVE",
"469 285 CURVE SMOOTH",
"456 284 LINE",
"456 262 LINE"
);
}
);
width = 1055;
}
);
unicode = 2122;
},
{
color = 6;
glyphname = degree;
lastChange = "2023-09-29 09:16:23 +0000";
layers = (
{
layerId = m004;
paths = (
{
closed = 1;
nodes = (
"299 402 OFFCURVE",
"368 462 OFFCURVE",
"368 556 CURVE SMOOTH",
"368 650 OFFCURVE",
"299 710 OFFCURVE",
"211 710 CURVE SMOOTH",
"123 710 OFFCURVE",
"54 650 OFFCURVE",
"54 556 CURVE SMOOTH",
"54 462 OFFCURVE",
"123 402 OFFCURVE",
"211 402 CURVE SMOOTH"
);
},
{
closed = 1;
nodes = (
"154 435 OFFCURVE",
"112 477 OFFCURVE",
"112 556 CURVE SMOOTH",
"112 635 OFFCURVE",
"154 677 OFFCURVE",
"211 677 CURVE SMOOTH",
"268 677 OFFCURVE",
"310 635 OFFCURVE",
"310 556 CURVE SMOOTH",
"310 477 OFFCURVE",
"268 435 OFFCURVE",
"211 435 CURVE SMOOTH"
);
}
);
width = 422;
}
);
unicode = 00B0;
},
{
color = 6;
glyphname = bar;
lastChange = "2023-09-29 09:16:23 +0000";
layers = (
{
layerId = m004;
paths = (
{
closed = 1;
nodes = (
"150 -150 LINE",
"150 760 LINE",
"100 760 LINE",
"100 -150 LINE"
);
}
);
width = 250;
}
);
leftKerningGroup = bar;
rightKerningGroup = bar;
unicode = 007C;
},
{
color = 6;
glyphname = brokenbar;
lastChange = "2023-09-29 09:16:23 +0000";
layers = (
{
layerId = m004;
paths = (
{
closed = 1;
nodes = (
"150 380 LINE",
"150 760 LINE",
"100 760 LINE",
"100 380 LINE"
);
},
{
closed = 1;
nodes = (
"150 -150 LINE",
"150 230 LINE",
"100 230 LINE",
"100 -150 LINE"
);
}
);
width = 250;
}
);
leftKerningGroup = bar;
rightKerningGroup = bar;
unicode = 00A6;
},
{
color = 6;
glyphname = dagger;
lastChange = "2023-09-29 09:16:23 +0000";
layers = (
{
guideLines = (
{
angle = 90;
position = "{244, 758}";
},
{
angle = 90;
position = "{322, 758}";
}
);
layerId = m004;
paths = (
{
closed = 1;
nodes = (
"328 -146 LINE",
"328 -101 LINE",
"311 435 LINE",
"517 420 LINE",
"557 420 LINE",
"557 484 LINE",
"517 484 LINE",
"311 468 LINE",
"330 718 LINE",
"330 758 LINE",
"253 758 LINE",
"253 718 LINE",
"272 468 LINE",
"66 484 LINE",
"26 484 LINE",
"26 420 LINE",
"66 420 LINE",
"272 435 LINE",
"255 -101 LINE",
"255 -146 LINE"
);
}
);
width = 583;
}
);
unicode = 2020;
},
{
color = 6;
glyphname = daggerdbl;
lastChange = "2023-09-29 09:16:23 +0000";
layers = (
{
layerId = m004;
paths = (
{
closed = 1;
nodes = (
"349 -146 LINE",
"349 -106 LINE",
"330 144 LINE",
"536 128 LINE",
"576 128 LINE",
"576 192 LINE",
"536 192 LINE",
"330 177 LINE",
"330 435 LINE",
"536 420 LINE",
"576 420 LINE",
"576 484 LINE",
"536 484 LINE",
"330 468 LINE",
"349 718 LINE",
"349 758 LINE",
"272 758 LINE",
"272 718 LINE",
"291 468 LINE",
"85 484 LINE",
"45 484 LINE",
"45 420 LINE",
"85 420 LINE",
"291 435 LINE",
"291 177 LINE",
"85 192 LINE",
"45 192 LINE",
"45 128 LINE",
"85 128 LINE",
"291 144 LINE",
"272 -106 LINE",
"272 -146 LINE"
);
}
);
width = 621;
}
);
unicode = 2021;
},
{
color = 6;
glyphname = copyright.sups;
lastChange = "2023-09-29 09:16:23 +0000";
layers = (
{
layerId = m004;
paths = (
{
closed = 1;
nodes = (
"364 468 OFFCURVE",
"446 549 OFFCURVE",
"446 663 CURVE SMOOTH",
"446 775 OFFCURVE",
"364 856 OFFCURVE",
"251 856 CURVE SMOOTH",
"138 856 OFFCURVE",
"56 775 OFFCURVE",
"56 663 CURVE SMOOTH",
"56 549 OFFCURVE",
"138 468 OFFCURVE",
"251 468 CURVE SMOOTH"
);
},
{
closed = 1;
nodes = (
"156 496 OFFCURVE",
"87 566 OFFCURVE",
"87 663 CURVE SMOOTH",
"87 760 OFFCURVE",
"156 828 OFFCURVE",
"251 828 CURVE SMOOTH",
"346 828 OFFCURVE",
"415 760 OFFCURVE",
"415 663 CURVE SMOOTH",
"415 566 OFFCURVE",
"346 496 OFFCURVE",
"251 496 CURVE SMOOTH"
);
},
{
closed = 1;
nodes = (
"273 560 OFFCURVE",
"296 564 OFFCURVE",
"327 575 CURVE",
"327 633 LINE",
"312 633 LINE",
"300 590 OFFCURVE",
"280 582 OFFCURVE",
"258 582 CURVE SMOOTH",
"211 582 OFFCURVE",
"186 620 OFFCURVE",
"186 668 CURVE SMOOTH",
"186 715 OFFCURVE",
"211 745 OFFCURVE",
"254 745 CURVE SMOOTH",
"287 745 OFFCURVE",
"304 728 OFFCURVE",
"315 702 CURVE",
"330 702 LINE",
"330 750 LINE",
"309 759 OFFCURVE",
"286 767 OFFCURVE",
"258 767 CURVE SMOOTH",
"190 767 OFFCURVE",
"142 719 OFFCURVE",
"142 661 CURVE SMOOTH",
"142 603 OFFCURVE",
"186 560 OFFCURVE",
"253 560 CURVE SMOOTH"
);
}
);
width = 502;
}
);
},
{
color = 6;
glyphname = registered.sups;
lastChange = "2023-09-29 09:16:23 +0000";
layers = (
{
layerId = m004;
paths = (
{
closed = 1;
nodes = (
"255 562 LINE",
"255 577 LINE",
"242 578 LINE SMOOTH",
"229 579 OFFCURVE",
"225 584 OFFCURVE",
"225 597 CURVE SMOOTH",
"225 654 LINE",
"239 654 LINE SMOOTH",
"273 654 OFFCURVE",
"282 631 OFFCURVE",
"290 588 CURVE SMOOTH",
"294 570 OFFCURVE",
"298 562 OFFCURVE",
"317 562 CURVE SMOOTH",
"349 562 LINE",
"349 577 LINE",
"344 577 LINE SMOOTH",
"335 577 OFFCURVE",
"331 583 OFFCURVE",
"330 594 CURVE SMOOTH",
"324 634 OFFCURVE",
"311 654 OFFCURVE",
"276 663 CURVE",
"319 670 OFFCURVE",
"331 694 OFFCURVE",
"331 715 CURVE SMOOTH",
"331 748 OFFCURVE",
"307 765 OFFCURVE",
"257 765 CURVE SMOOTH",
"157 765 LINE",
"157 750 LINE",
"169 749 LINE SMOOTH",
"182 748 OFFCURVE",
"186 743 OFFCURVE",
"186 730 CURVE SMOOTH",
"186 597 LINE SMOOTH",
"186 584 OFFCURVE",
"182 579 OFFCURVE",
"169 578 CURVE SMOOTH",
"157 577 LINE",
"157 562 LINE"
);
},
{
closed = 1;
nodes = (
"225 735 LINE SMOOTH",
"225 742 OFFCURVE",
"232 745 OFFCURVE",
"253 745 CURVE SMOOTH",
"277 745 OFFCURVE",
"292 731 OFFCURVE",
"292 712 CURVE SMOOTH",
"292 687 OFFCURVE",
"273 675 OFFCURVE",
"247 675 CURVE SMOOTH",
"225 675 LINE"
);
},
{
closed = 1;
nodes = (
"364 468 OFFCURVE",
"446 549 OFFCURVE",
"446 663 CURVE SMOOTH",
"446 775 OFFCURVE",
"364 856 OFFCURVE",
"251 856 CURVE SMOOTH",
"138 856 OFFCURVE",
"56 775 OFFCURVE",
"56 663 CURVE SMOOTH",
"56 549 OFFCURVE",
"138 468 OFFCURVE",
"251 468 CURVE SMOOTH"
);
},
{
closed = 1;
nodes = (
"156 496 OFFCURVE",
"87 566 OFFCURVE",
"87 663 CURVE SMOOTH",
"87 760 OFFCURVE",
"156 828 OFFCURVE",
"251 828 CURVE SMOOTH",
"346 828 OFFCURVE",
"415 760 OFFCURVE",
"415 663 CURVE SMOOTH",
"415 566 OFFCURVE",
"346 496 OFFCURVE",
"251 496 CURVE SMOOTH"
);
}
);
width = 502;
}
);
},
{
color = 6;
glyphname = trademark.sups;
lastChange = "2023-09-29 09:16:23 +0000";
layers = (
{
guideLines = (
{
position = "{692, 765}";
},
{
position = "{699, 562}";
},
{
position = "{692, 745}";
}
);
layerId = m004;
paths = (
{
closed = 1;
nodes = (
"348 562 LINE",
"348 577 LINE",
"339 578 LINE SMOOTH",
"320 580 OFFCURVE",
"315 581 OFFCURVE",
"316 599 CURVE SMOOTH",
"327 752 LINE",
"316 752 LINE",
"382 562 LINE",
"409 562 LINE",
"469 746 LINE",
"462 747 LINE",
"475 603 LINE SMOOTH",
"477 582 OFFCURVE",
"474 579 OFFCURVE",
"459 578 CURVE SMOOTH",
"446 577 LINE",
"446 562 LINE",
"547 562 LINE",
"547 577 LINE",
"538 578 LINE SMOOTH",
"520 580 OFFCURVE",
"515 583 OFFCURVE",
"513 603 CURVE SMOOTH",
"501 718 LINE SMOOTH",
"498 744 OFFCURVE",
"502 747 OFFCURVE",
"520 749 CURVE SMOOTH",
"529 750 LINE",
"529 765 LINE",
"454 765 LINE",
"398 592 LINE",
"408 592 LINE",
"349 765 LINE",
"274 765 LINE",
"274 750 LINE",
"283 749 LINE SMOOTH",
"302 747 OFFCURVE",
"307 743 OFFCURVE",
"305 720 CURVE SMOOTH",
"294 599 LINE SMOOTH",
"292 581 OFFCURVE",
"289 580 OFFCURVE",
"273 578 CURVE SMOOTH",
"264 577 LINE",
"264 562 LINE"
);
},
{
closed = 1;
nodes = (
"134 595 LINE SMOOTH",
"134 581 OFFCURVE",
"129 579 OFFCURVE",
"116 578 CURVE SMOOTH",
"102 577 LINE",
"102 562 LINE",
"206 562 LINE",
"206 577 LINE",
"192 578 LINE SMOOTH",
"179 579 OFFCURVE",
"174 581 OFFCURVE",
"174 595 CURVE SMOOTH",
"174 746 LINE",
"199 745 LINE SMOOTH",
"228 744 OFFCURVE",
"232 737 OFFCURVE",
"237 706 CURVE",
"252 706 LINE",
"250 766 LINE",
"239 765 OFFCURVE",
"223 765 OFFCURVE",
"207 765 CURVE SMOOTH",
"101 765 LINE SMOOTH",
"85 765 OFFCURVE",
"69 765 OFFCURVE",
"58 766 CURVE",
"56 706 LINE",
"71 706 LINE",
"76 737 OFFCURVE",
"80 744 OFFCURVE",
"109 745 CURVE SMOOTH",
"134 746 LINE"
);
}
);
width = 603;
}
);
},
{
color = 6;
glyphname = H.circled;
lastChange = "2023-09-29 09:16:23 +0000";
layers = (
{
anchors = (
{
name = bottom;
position = "{422, 0}";
},
{
name = center;
position = "{422, 350}";
},
{
name = top;
position = "{422, 700}";
},
{
name = topleft;
position = "{17, 700}";
}
);
layerId = m004;
paths = (
{
closed = 1;
nodes = (
"611 -10 OFFCURVE",
"771 150 OFFCURVE",
"771 351 CURVE SMOOTH",
"771 550 OFFCURVE",
"611 710 OFFCURVE",
"412 710 CURVE SMOOTH",
"213 710 OFFCURVE",
"53 550 OFFCURVE",
"53 351 CURVE SMOOTH",
"53 150 OFFCURVE",
"213 -10 OFFCURVE",
"412 -10 CURVE SMOOTH"
);
},
{
closed = 1;
nodes = (
"241 38 OFFCURVE",
"102 181 OFFCURVE",
"102 351 CURVE SMOOTH",
"102 522 OFFCURVE",
"241 662 OFFCURVE",
"412 662 CURVE SMOOTH",
"583 662 OFFCURVE",
"722 522 OFFCURVE",
"722 351 CURVE SMOOTH",
"722 181 OFFCURVE",
"583 38 OFFCURVE",
"412 38 CURVE SMOOTH"
);
},
{
closed = 1;
nodes = (
"305 154 LINE",
"305 328 LINE",
"519 328 LINE",
"519 154 LINE",
"567 154 LINE",
"567 547 LINE",
"519 547 LINE",
"519 376 LINE",
"305 376 LINE",
"305 547 LINE",
"257 547 LINE",
"257 154 LINE"
);
}
);
width = 824;
}
);
leftKerningGroup = copyright;
rightKerningGroup = copyright;
unicode = 24BD;
},
{
color = 6;
glyphname = H.circled.sups;
lastChange = "2023-09-29 09:16:23 +0000";
layers = (
{
layerId = m004;
paths = (
{
closed = 1;
nodes = (
"130 445 OFFCURVE",
"56 518 OFFCURVE",
"56 610 CURVE SMOOTH",
"56 702 OFFCURVE",
"130 775 OFFCURVE",
"221 775 CURVE SMOOTH",
"312 775 OFFCURVE",
"386 702 OFFCURVE",
"386 610 CURVE SMOOTH",
"386 518 OFFCURVE",
"312 445 OFFCURVE",
"221 445 CURVE SMOOTH"
);
},
{
closed = 1;
nodes = (
"300 467 OFFCURVE",
"363 532 OFFCURVE",
"363 610 CURVE SMOOTH",
"363 689 OFFCURVE",
"300 753 OFFCURVE",
"221 753 CURVE SMOOTH",
"143 753 OFFCURVE",
"79 689 OFFCURVE",
"79 610 CURVE SMOOTH",
"79 532 OFFCURVE",
"143 467 OFFCURVE",
"221 467 CURVE SMOOTH"
);
},
{
closed = 1;
nodes = (
"270 520 LINE",
"270 600 LINE",
"172 600 LINE",
"172 520 LINE",
"150 520 LINE",
"150 700 LINE",
"172 700 LINE",
"172 622 LINE",
"270 622 LINE",
"270 700 LINE",
"292 700 LINE",
"292 520 LINE"
);
}
);
width = 442;
}
);
},
{
color = 3;
glyphname = cent;
lastChange = "2023-09-29 09:16:23 +0000";
layers = (
{
components = (
{
name = c;
transform = "{1, 0, 0, 1, 15, 0}";
}
);
layerId = m004;
paths = (
{
closed = 1;
nodes = (
"234 -149 LINE",
"359 669 LINE",
"316 669 LINE",
"191 -149 LINE"
);
}
);
width = 541;
}
);
unicode = 00A2;
},
{
color = 6;
glyphname = currency;
lastChange = "2023-09-29 09:16:23 +0000";
layers = (
{
layerId = m004;
paths = (
{
closed = 1;
nodes = (
"421 125 OFFCURVE",
"513 215 OFFCURVE",
"513 338 CURVE SMOOTH",
"513 461 OFFCURVE",
"421 551 OFFCURVE",
"299 551 CURVE SMOOTH",
"176 551 OFFCURVE",
"84 461 OFFCURVE",
"84 338 CURVE SMOOTH",
"84 215 OFFCURVE",
"176 125 OFFCURVE",
"299 125 CURVE SMOOTH"
);
},
{
closed = 1;
nodes = (
"190 199 LINE",
"158 230 LINE",
"59 132 LINE",
"92 101 LINE"
);
},
{
closed = 1;
nodes = (
"191 476 LINE",
"91 575 LINE",
"59 544 LINE",
"157 446 LINE"
);
},
{
closed = 1;
nodes = (
"200 167 OFFCURVE",
"135 234 OFFCURVE",
"135 338 CURVE SMOOTH",
"135 442 OFFCURVE",
"200 509 OFFCURVE",
"299 509 CURVE SMOOTH",
"397 509 OFFCURVE",
"462 442 OFFCURVE",
"462 338 CURVE SMOOTH",
"462 234 OFFCURVE",
"397 167 OFFCURVE",
"299 167 CURVE SMOOTH"
);
},
{
closed = 1;
nodes = (
"538 132 LINE",
"439 230 LINE",
"407 199 LINE",
"505 101 LINE"
);
},
{
closed = 1;
nodes = (
"538 544 LINE",
"506 575 LINE",
"406 476 LINE",
"440 446 LINE"
);
}
);
width = 597;
}
);
unicode = 00A4;
},
{
color = 3;
glyphname = dollar;
lastChange = "2023-09-29 09:16:23 +0000";
layers = (
{
components = (
{
name = S;
transform = "{1, 0, 0, 1, -11, 0}";
}
);
layerId = m004;
paths = (
{
closed = 1;
nodes = (
"199 -110 LINE",
"335 810 LINE",
"292 810 LINE",
"156 -110 LINE"
);
}
);
width = 511;
}
);
unicode = 0024;
},
{
color = 6;
glyphname = euro;
lastChange = "2023-09-29 09:16:23 +0000";
layers = (
{
layerId = m004;
paths = (
{
closed = 1;
nodes = (
"570 -10 OFFCURVE",
"653 4 OFFCURVE",
"748 42 CURVE",
"748 201 LINE",
"718 201 LINE",
"676 52 OFFCURVE",
"613 32 OFFCURVE",
"524 32 CURVE SMOOTH",
"358 32 OFFCURVE",
"259 192 OFFCURVE",
"259 366 CURVE SMOOTH",
"259 537 OFFCURVE",
"353 668 OFFCURVE",
"512 668 CURVE SMOOTH",
"628 668 OFFCURVE",
"708 604 OFFCURVE",
"728 520 CURVE",
"758 520 LINE",
"758 654 LINE",
"696 683 OFFCURVE",
"625 710 OFFCURVE",
"528 710 CURVE SMOOTH",
"308 710 OFFCURVE",
"158 543 OFFCURVE",
"158 340 CURVE SMOOTH",
"158 128 OFFCURVE",
"303 -10 OFFCURVE",
"510 -10 CURVE SMOOTH"
);
},
{
closed = 1;
nodes = (
"597 272 LINE",
"597 312 LINE",
"49 312 LINE",
"49 272 LINE"
);
},
{
closed = 1;
nodes = (
"617 402 LINE",
"617 442 LINE",
"69 442 LINE",
"69 402 LINE"
);
}
);
width = 816;
}
);
unicode = 20AC;
},
{
color = 6;
glyphname = sterling;
lastChange = "2023-09-29 09:16:23 +0000";
layers = (
{
layerId = m004;
paths = (
{
closed = 1;
nodes = (
"482 -32 OFFCURVE",
"565 49 OFFCURVE",
"571 101 CURVE SMOOTH",
"579 163 OFFCURVE",
"493 129 OFFCURVE",
"493 87 CURVE SMOOTH",
"493 85 LINE SMOOTH",
"493 43 OFFCURVE",
"484 19 OFFCURVE",
"460 19 CURVE SMOOTH",
"401 19 OFFCURVE",
"353 71 OFFCURVE",
"243 83 CURVE SMOOTH",
"223 85 OFFCURVE",
"191 86 OFFCURVE",
"165 84 CURVE",
"164 85 LINE",
"266 187 OFFCURVE",
"281 333 OFFCURVE",
"281 488 CURVE SMOOTH",
"281 607 OFFCURVE",
"324 664 OFFCURVE",
"372 664 CURVE SMOOTH",
"378 664 OFFCURVE",
"384 662 OFFCURVE",
"391 659 CURVE SMOOTH",
"462 628 LINE SMOOTH",
"480 620 OFFCURVE",
"518 638 OFFCURVE",
"518 666 CURVE SMOOTH",
"518 691 OFFCURVE",
"473 710 OFFCURVE",
"429 710 CURVE SMOOTH",
"285 710 OFFCURVE",
"182 597 OFFCURVE",
"182 421 CURVE SMOOTH",
"182 319 OFFCURVE",
"189 156 OFFCURVE",
"115 77 CURVE",
"99 73 OFFCURVE",
"83 67 OFFCURVE",
"65 61 CURVE SMOOTH",
"39 52 OFFCURVE",
"19 33 OFFCURVE",
"19 11 CURVE SMOOTH",
"19 0 OFFCURVE",
"28 -12 OFFCURVE",
"48 -12 CURVE SMOOTH",
"89 -12 OFFCURVE",
"107 12 OFFCURVE",
"128 33 CURVE SMOOTH",
"137 42 LINE",
"167 60 OFFCURVE",
"206 37 OFFCURVE",
"246 15 CURVE SMOOTH",
"277 -2 OFFCURVE",
"342 -32 OFFCURVE",
"392 -32 CURVE SMOOTH"
);
},
{
closed = 1;
nodes = (
"458 310 LINE",
"468 350 LINE",
"60 350 LINE",
"50 310 LINE"
);
}
);
width = 598;
}
);
unicode = 00A3;
},
{
color = 3;
glyphname = yen;
lastChange = "2023-09-29 09:16:23 +0000";
layers = (
{
components = (
{
name = Y;
transform = "{1, 0, 0, 1, 18, 0}";
}
);
layerId = m004;
paths = (
{
closed = 1;
nodes = (
"597 250 LINE",
"597 290 LINE",
"89 290 LINE",
"89 250 LINE"
);
},
{
closed = 1;
nodes = (
"287 392 LINE",
"287 432 LINE",
"89 432 LINE",
"89 392 LINE"
);
},
{
closed = 1;
nodes = (
"597 392 LINE",
"597 432 LINE",
"419 432 LINE",
"409 392 LINE"
);
}
);
width = 676;
}
);
unicode = 00A5;
},
{
color = 6;
glyphname = plus;
lastChange = "2023-09-29 09:16:23 +0000";
layers = (
{
layerId = m004;
paths = (
{
closed = 1;
nodes = (
"305 97 LINE",
"305 565 LINE",
"255 565 LINE",
"255 97 LINE"
);
},
{
closed = 1;
nodes = (
"519 309 LINE",
"519 353 LINE",
"41 353 LINE",
"41 309 LINE"
);
}
);
width = 560;
}
);
unicode = 002B;
},
{
color = 6;
glyphname = minus;
lastChange = "2023-09-29 09:16:23 +0000";
layers = (
{
layerId = m004;
paths = (
{
closed = 1;
nodes = (
"519 309 LINE",
"519 353 LINE",
"41 353 LINE",
"41 309 LINE"
);
}
);
width = 560;
}
);
unicode = 2212;
},
{
color = 6;
glyphname = multiply;
lastChange = "2023-09-29 09:16:23 +0000";
layers = (
{
layerId = m004;
paths = (
{
closed = 1;
nodes = (
"473 492 LINE",
"442 523 LINE",
"89 170 LINE",
"120 139 LINE"
);
},
{
closed = 1;
nodes = (
"471 175 LINE",
"125 521 LINE",
"91 487 LINE",
"437 141 LINE"
);
}
);
width = 560;
}
);
unicode = 00D7;
},
{
color = 3;
glyphname = divide;
lastChange = "2023-09-29 09:16:23 +0000";
layers = (
{
components = (
{
name = period;
transform = "{0.89, 0, 0, 0.89, 191, 140}";
},
{
name = period;
transform = "{0.89, 0, 0, 0.89, 191, 440}";
}
);
layerId = m004;
paths = (
{
closed = 1;
nodes = (
"519 309 LINE",
"519 353 LINE",
"41 353 LINE",
"41 309 LINE"
);
}
);
width = 560;
}
);
unicode = 00F7;
},
{
color = 6;
glyphname = equal;
lastChange = "2023-09-29 09:16:23 +0000";
layers = (
{
layerId = m004;
paths = (
{
closed = 1;
nodes = (
"519 398 LINE",
"519 442 LINE",
"41 442 LINE",
"41 398 LINE"
);
},
{
closed = 1;
nodes = (
"519 218 LINE",
"519 262 LINE",
"41 262 LINE",
"41 218 LINE"
);
}
);
width = 560;
}
);
unicode = 003D;
},
{
color = 6;
glyphname = notequal;
lastChange = "2023-09-29 09:16:23 +0000";
layers = (
{
layerId = m004;
paths = (
{
closed = 1;
nodes = (
"183 97 LINE",
"423 565 LINE",
"382 565 LINE",
"142 97 LINE"
);
},
{
closed = 1;
nodes = (
"521 218 LINE",
"521 262 LINE",
"43 262 LINE",
"43 218 LINE"
);
},
{
closed = 1;
nodes = (
"521 398 LINE",
"521 442 LINE",
"43 442 LINE",
"43 398 LINE"
);
}
);
width = 560;
}
);
unicode = 2260;
},
{
color = 6;
glyphname = greater;
lastChange = "2023-09-29 09:16:23 +0000";
layers = (
{
layerId = m004;
paths = (
{
closed = 1;
nodes = (
"522 308 LINE",
"522 354 LINE",
"44 534 LINE",
"44 487 LINE",
"469 332 LINE",
"469 330 LINE",
"44 175 LINE",
"44 128 LINE"
);
}
);
width = 560;
}
);
unicode = 003E;
},
{
color = 6;
glyphname = less;
lastChange = "2023-09-29 09:16:23 +0000";
layers = (
{
layerId = m004;
paths = (
{
closed = 1;
nodes = (
"516 175 LINE",
"91 330 LINE",
"91 332 LINE",
"516 487 LINE",
"516 534 LINE",
"38 354 LINE",
"38 308 LINE",
"516 128 LINE"
);
}
);
width = 560;
}
);
unicode = 003C;
},
{
color = 6;
glyphname = greaterequal;
lastChange = "2023-09-29 09:16:23 +0000";
layers = (
{
layerId = m004;
paths = (
{
closed = 1;
nodes = (
"517 195 LINE",
"92 330 LINE",
"92 332 LINE",
"517 467 LINE",
"517 514 LINE",
"39 354 LINE",
"39 308 LINE",
"517 148 LINE"
);
},
{
closed = 1;
nodes = (
"517 0 LINE",
"517 44 LINE",
"39 44 LINE",
"39 0 LINE"
);
}
);
width = 560;
}
);
unicode = 2265;
},
{
color = 6;
glyphname = lessequal;
lastChange = "2023-09-29 09:16:23 +0000";
layers = (
{
layerId = m004;
paths = (
{
closed = 1;
nodes = (
"521 308 LINE",
"521 354 LINE",
"43 514 LINE",
"43 467 LINE",
"468 332 LINE",
"468 330 LINE",
"43 195 LINE",
"43 148 LINE"
);
},
{
closed = 1;
nodes = (
"521 0 LINE",
"521 44 LINE",
"43 44 LINE",
"43 0 LINE"
);
}
);
width = 560;
}
);
unicode = 2264;
},
{
color = 6;
glyphname = plusminus;
lastChange = "2023-09-29 09:16:23 +0000";
layers = (
{
layerId = m004;
paths = (
{
closed = 1;
nodes = (
"519 309 LINE",
"519 353 LINE",
"41 353 LINE",
"41 309 LINE"
);
},
{
closed = 1;
nodes = (
"519 0 LINE",
"519 44 LINE",
"41 44 LINE",
"41 0 LINE"
);
},
{
closed = 1;
nodes = (
"305 127 LINE",
"305 535 LINE",
"255 535 LINE",
"255 127 LINE"
);
}
);
width = 560;
}
);
unicode = 00B1;
},
{
color = 6;
glyphname = approxequal;
lastChange = "2023-09-29 09:16:23 +0000";
layers = (
{
layerId = m004;
paths = (
{
closed = 1;
nodes = (
"102 397 OFFCURVE",
"137 409 OFFCURVE",
"177 409 CURVE SMOOTH",
"202 409 OFFCURVE",
"223 404 OFFCURVE",
"252 393 CURVE SMOOTH",
"286 380 LINE SMOOTH",
"305 373 OFFCURVE",
"334 362 OFFCURVE",
"369 362 CURVE SMOOTH",
"418 362 OFFCURVE",
"471 387 OFFCURVE",
"499 476 CURVE",
"481 481 LINE",
"461 435 OFFCURVE",
"426 423 OFFCURVE",
"386 423 CURVE SMOOTH",
"361 423 OFFCURVE",
"340 428 OFFCURVE",
"311 439 CURVE SMOOTH",
"277 452 LINE SMOOTH",
"258 459 OFFCURVE",
"229 470 OFFCURVE",
"194 470 CURVE SMOOTH",
"145 470 OFFCURVE",
"92 445 OFFCURVE",
"64 356 CURVE",
"82 351 LINE"
);
},
{
closed = 1;
nodes = (
"102 227 OFFCURVE",
"137 239 OFFCURVE",
"177 239 CURVE SMOOTH",
"202 239 OFFCURVE",
"223 234 OFFCURVE",
"252 223 CURVE SMOOTH",
"286 210 LINE SMOOTH",
"305 203 OFFCURVE",
"334 192 OFFCURVE",
"369 192 CURVE SMOOTH",
"418 192 OFFCURVE",
"471 217 OFFCURVE",
"499 306 CURVE",
"481 311 LINE",
"461 265 OFFCURVE",
"426 253 OFFCURVE",
"386 253 CURVE SMOOTH",
"361 253 OFFCURVE",
"340 258 OFFCURVE",
"311 269 CURVE SMOOTH",
"277 282 LINE SMOOTH",
"258 289 OFFCURVE",
"229 300 OFFCURVE",
"194 300 CURVE SMOOTH",
"145 300 OFFCURVE",
"92 275 OFFCURVE",
"64 186 CURVE",
"82 181 LINE"
);
}
);
width = 560;
}
);
unicode = 2248;
},
{
color = 6;
glyphname = asciitilde;
lastChange = "2023-09-29 09:16:23 +0000";
layers = (
{
layerId = m004;
paths = (
{
closed = 1;
nodes = (
"101 307 OFFCURVE",
"136 319 OFFCURVE",
"176 319 CURVE SMOOTH",
"201 319 OFFCURVE",
"222 314 OFFCURVE",
"251 303 CURVE SMOOTH",
"285 290 LINE SMOOTH",
"304 283 OFFCURVE",
"333 272 OFFCURVE",
"368 272 CURVE SMOOTH",
"417 272 OFFCURVE",
"470 297 OFFCURVE",
"498 386 CURVE",
"480 391 LINE",
"460 345 OFFCURVE",
"425 333 OFFCURVE",
"385 333 CURVE SMOOTH",
"360 333 OFFCURVE",
"339 338 OFFCURVE",
"310 349 CURVE SMOOTH",
"276 362 LINE SMOOTH",
"257 369 OFFCURVE",
"228 380 OFFCURVE",
"193 380 CURVE SMOOTH",
"144 380 OFFCURVE",
"91 355 OFFCURVE",
"63 266 CURVE",
"81 261 LINE"
);
}
);
width = 560;
}
);
unicode = 007E;
},
{
color = 6;
glyphname = logicalnot;
lastChange = "2023-09-29 09:16:23 +0000";
layers = (
{
layerId = m004;
paths = (
{
closed = 1;
nodes = (
"514 413 LINE",
"514 457 LINE",
"36 457 LINE",
"36 413 LINE"
);
},
{
closed = 1;
nodes = (
"514 197 LINE",
"514 455 LINE",
"464 455 LINE",
"464 197 LINE"
);
}
);
width = 560;
}
);
unicode = 00AC;
},
{
color = 6;
glyphname = asciicircum;
lastChange = "2023-09-29 09:16:23 +0000";
layers = (
{
layerId = m004;
paths = (
{
closed = 1;
nodes = (
"144 338 LINE",
"279 647 LINE",
"281 647 LINE",
"416 338 LINE",
"462 338 LINE",
"303 700 LINE",
"257 700 LINE",
"98 338 LINE"
);
}
);
width = 560;
}
);
unicode = 005E;
},
{
color = 6;
glyphname = infinity;
lastChange = "2023-09-29 09:16:23 +0000";
layers = (
{
guideLines = (
{
position = "{214, 192}";
},
{
position = "{249, 502}";
}
);
layerId = m004;
paths = (
{
closed = 1;
nodes = (
"276 174 OFFCURVE",
"337 213 OFFCURVE",
"375 304 CURVE",
"364 323 LINE",
"342 280 OFFCURVE",
"299 211 OFFCURVE",
"222 211 CURVE SMOOTH",
"165 211 OFFCURVE",
"109 247 OFFCURVE",
"109 336 CURVE SMOOTH",
"109 399 OFFCURVE",
"146 447 OFFCURVE",
"210 447 CURVE SMOOTH",
"276 447 OFFCURVE",
"302 389 OFFCURVE",
"351 311 CURVE SMOOTH",
"378 268 LINE SMOOTH",
"411 216 OFFCURVE",
"454 174 OFFCURVE",
"542 174 CURVE SMOOTH",
"619 174 OFFCURVE",
"716 227 OFFCURVE",
"716 339 CURVE SMOOTH",
"716 435 OFFCURVE",
"636 484 OFFCURVE",
"562 484 CURVE SMOOTH",
"486 484 OFFCURVE",
"425 445 OFFCURVE",
"387 354 CURVE",
"398 335 LINE",
"420 378 OFFCURVE",
"463 447 OFFCURVE",
"538 447 CURVE SMOOTH",
"595 447 OFFCURVE",
"653 411 OFFCURVE",
"653 322 CURVE SMOOTH",
"653 259 OFFCURVE",
"616 211 OFFCURVE",
"552 211 CURVE SMOOTH",
"486 211 OFFCURVE",
"460 269 OFFCURVE",
"409 349 CURVE SMOOTH",
"383 390 LINE SMOOTH",
"350 442 OFFCURVE",
"308 484 OFFCURVE",
"220 484 CURVE SMOOTH",
"143 484 OFFCURVE",
"46 431 OFFCURVE",
"46 319 CURVE SMOOTH",
"46 223 OFFCURVE",
"124 174 OFFCURVE",
"198 174 CURVE SMOOTH"
);
}
);
width = 761;
}
);
unicode = 221E;
},
{
color = 6;
glyphname = integral;
lastChange = "2023-09-29 09:16:23 +0000";
layers = (
{
layerId = m004;
paths = (
{
closed = 1;
nodes = (
"210 -147 OFFCURVE",
"270 -34 OFFCURVE",
"270 101 CURVE SMOOTH",
"270 237 OFFCURVE",
"259 373 OFFCURVE",
"259 509 CURVE SMOOTH",
"259 597 OFFCURVE",
"269 664 OFFCURVE",
"297 664 CURVE SMOOTH",
"303 664 OFFCURVE",
"309 663 OFFCURVE",
"316 659 CURVE SMOOTH",
"372 629 LINE SMOOTH",
"395 617 OFFCURVE",
"427 641 OFFCURVE",
"427 666 CURVE SMOOTH",
"427 691 OFFCURVE",
"382 710 OFFCURVE",
"344 710 CURVE SMOOTH",
"230 710 OFFCURVE",
"169 597 OFFCURVE",
"169 462 CURVE SMOOTH",
"169 326 OFFCURVE",
"180 190 OFFCURVE",
"180 54 CURVE SMOOTH",
"180 -34 OFFCURVE",
"171 -101 OFFCURVE",
"143 -101 CURVE SMOOTH",
"137 -101 OFFCURVE",
"131 -100 OFFCURVE",
"124 -96 CURVE SMOOTH",
"68 -66 LINE SMOOTH",
"45 -54 OFFCURVE",
"13 -78 OFFCURVE",
"13 -103 CURVE SMOOTH",
"13 -128 OFFCURVE",
"58 -147 OFFCURVE",
"96 -147 CURVE SMOOTH"
);
}
);
width = 440;
}
);
unicode = 222B;
},
{
color = 6;
glyphname = product;
lastChange = "2023-09-29 09:16:23 +0000";
layers = (
{
layerId = m004;
paths = (
{
closed = 1;
nodes = (
"736 -136 LINE",
"736 -106 LINE",
"695 -102 LINE SMOOTH",
"646 -97 OFFCURVE",
"636 -76 OFFCURVE",
"636 -34 CURVE SMOOTH",
"636 598 LINE SMOOTH",
"636 640 OFFCURVE",
"646 661 OFFCURVE",
"695 666 CURVE SMOOTH",
"736 670 LINE",
"736 700 LINE",
"542 700 LINE",
"542 -34 LINE SMOOTH",
"542 -76 OFFCURVE",
"532 -97 OFFCURVE",
"483 -102 CURVE SMOOTH",
"442 -106 LINE",
"442 -136 LINE"
);
},
{
closed = 1;
nodes = (
"326 -136 LINE",
"326 -106 LINE",
"285 -102 LINE SMOOTH",
"236 -97 OFFCURVE",
"226 -76 OFFCURVE",
"226 -34 CURVE SMOOTH",
"226 700 LINE",
"32 700 LINE",
"32 670 LINE",
"73 666 LINE SMOOTH",
"122 661 OFFCURVE",
"132 640 OFFCURVE",
"132 598 CURVE SMOOTH",
"132 -34 LINE SMOOTH",
"132 -76 OFFCURVE",
"122 -97 OFFCURVE",
"73 -102 CURVE SMOOTH",
"32 -106 LINE",
"32 -136 LINE"
);
},
{
closed = 1;
nodes = (
"589 661 LINE",
"589 700 LINE",
"115 700 LINE",
"115 661 LINE"
);
}
);
width = 768;
}
);
unicode = 220F;
},
{
color = 6;
glyphname = summation;
lastChange = "2023-09-29 09:16:23 +0000";
layers = (
{
layerId = m004;
paths = (
{
closed = 1;
nodes = (
"566 62 LINE",
"534 62 LINE",
"504 -23 OFFCURVE",
"457 -68 OFFCURVE",
"366 -68 CURVE SMOOTH",
"67 -68 LINE",
"68 -126 LINE",
"419 303 LINE",
"383 323 LINE",
"28 -106 LINE",
"28 -136 LINE",
"396 -136 LINE SMOOTH",
"429 -136 OFFCURVE",
"483 -138 OFFCURVE",
"540 -142 CURVE"
);
},
{
closed = 1;
nodes = (
"419 302 LINE",
"145 670 LINE",
"32 670 LINE",
"346 242 LINE"
);
},
{
closed = 1;
nodes = (
"551 544 LINE",
"537 706 LINE",
"499 702 OFFCURVE",
"460 700 OFFCURVE",
"396 700 CURVE SMOOTH",
"32 700 LINE",
"32 670 LINE",
"73 666 LINE",
"136 660 LINE",
"387 660 LINE SMOOTH",
"470 660 OFFCURVE",
"502 632 OFFCURVE",
"521 544 CURVE"
);
}
);
width = 607;
}
);
unicode = 2211;
},
{
color = 6;
glyphname = radical;
lastChange = "2023-09-29 09:16:23 +0000";
layers = (
{
layerId = m004;
paths = (
{
closed = 1;
nodes = (
"428 -136 LINE",
"678 700 LINE",
"628 700 LINE",
"416 -26 LINE",
"235 419 LINE",
"157 364 LINE",
"371 -136 LINE"
);
},
{
closed = 1;
nodes = (
"247 382 LINE",
"235 419 LINE",
"41 299 LINE",
"59 261 LINE"
);
}
);
width = 701;
}
);
unicode = 221A;
},
{
color = 6;
glyphname = partialdiff;
lastChange = "2023-09-29 09:16:23 +0000";
layers = (
{
layerId = m004;
paths = (
{
closed = 1;
nodes = (
"383 -10 OFFCURVE",
"498 161 OFFCURVE",
"498 396 CURVE SMOOTH",
"498 594 OFFCURVE",
"395 710 OFFCURVE",
"220 710 CURVE SMOOTH",
"139 710 OFFCURVE",
"72 684 OFFCURVE",
"72 652 CURVE SMOOTH",
"72 623 OFFCURVE",
"96 602 OFFCURVE",
"127 616 CURVE SMOOTH",
"187 642 LINE SMOOTH",
"209 652 OFFCURVE",
"233 662 OFFCURVE",
"271 662 CURVE SMOOTH",
"363 662 OFFCURVE",
"404 592 OFFCURVE",
"404 434 CURVE SMOOTH",
"404 183 OFFCURVE",
"340 32 OFFCURVE",
"230 32 CURVE SMOOTH",
"163 32 OFFCURVE",
"125 88 OFFCURVE",
"125 176 CURVE SMOOTH",
"125 286 OFFCURVE",
"185 369 OFFCURVE",
"275 369 CURVE SMOOTH",
"324 369 OFFCURVE",
"371 342 OFFCURVE",
"416 284 CURVE",
"420 339 LINE",
"373 389 OFFCURVE",
"313 412 OFFCURVE",
"245 412 CURVE SMOOTH",
"116 412 OFFCURVE",
"31 321 OFFCURVE",
"31 194 CURVE SMOOTH",
"31 73 OFFCURVE",
"111 -10 OFFCURVE",
"225 -10 CURVE SMOOTH"
);
}
);
width = 541;
}
);
unicode = 2202;
},
{
color = 6;
glyphname = percent;
lastChange = "2023-09-29 09:16:23 +0000";
layers = (
{
layerId = m004;
paths = (
{
closed = 1;
nodes = (
"305 318 OFFCURVE",
"380 395 OFFCURVE",
"380 512 CURVE SMOOTH",
"380 634 OFFCURVE",
"304 706 OFFCURVE",
"201 706 CURVE SMOOTH",
"98 706 OFFCURVE",
"23 629 OFFCURVE",
"23 512 CURVE SMOOTH",
"23 390 OFFCURVE",
"99 318 OFFCURVE",
"202 318 CURVE SMOOTH"
);
},
{
closed = 1;
nodes = (
"136 355 OFFCURVE",
"94 435 OFFCURVE",
"94 529 CURVE SMOOTH",
"94 629 OFFCURVE",
"137 669 OFFCURVE",
"190 669 CURVE SMOOTH",
"267 669 OFFCURVE",
"309 589 OFFCURVE",
"309 495 CURVE SMOOTH",
"309 395 OFFCURVE",
"266 355 OFFCURVE",
"213 355 CURVE SMOOTH"
);
},
{
closed = 1;
nodes = (
"744 -6 OFFCURVE",
"819 71 OFFCURVE",
"819 188 CURVE SMOOTH",
"819 310 OFFCURVE",
"743 382 OFFCURVE",
"640 382 CURVE SMOOTH",
"537 382 OFFCURVE",
"462 305 OFFCURVE",
"462 188 CURVE SMOOTH",
"462 66 OFFCURVE",
"538 -6 OFFCURVE",
"641 -6 CURVE SMOOTH"
);
},
{
closed = 1;
nodes = (
"575 31 OFFCURVE",
"533 111 OFFCURVE",
"533 205 CURVE SMOOTH",
"533 305 OFFCURVE",
"576 345 OFFCURVE",
"629 345 CURVE SMOOTH",
"706 345 OFFCURVE",
"748 265 OFFCURVE",
"748 171 CURVE SMOOTH",
"748 71 OFFCURVE",
"705 31 OFFCURVE",
"652 31 CURVE SMOOTH"
);
},
{
closed = 1;
nodes = (
"238 0 LINE",
"658 700 LINE",
"603 700 LINE",
"183 0 LINE"
);
}
);
width = 841;
}
);
leftKerningGroup = percent;
unicode = 0025;
},
{
color = 6;
glyphname = perthousand;
lastChange = "2023-09-29 09:16:23 +0000";
layers = (
{
layerId = m004;
paths = (
{
closed = 1;
nodes = (
"305 318 OFFCURVE",
"380 395 OFFCURVE",
"380 512 CURVE SMOOTH",
"380 634 OFFCURVE",
"304 706 OFFCURVE",
"201 706 CURVE SMOOTH",
"98 706 OFFCURVE",
"23 629 OFFCURVE",
"23 512 CURVE SMOOTH",
"23 390 OFFCURVE",
"99 318 OFFCURVE",
"202 318 CURVE SMOOTH"
);
},
{
closed = 1;
nodes = (
"136 355 OFFCURVE",
"94 435 OFFCURVE",
"94 529 CURVE SMOOTH",
"94 629 OFFCURVE",
"137 669 OFFCURVE",
"190 669 CURVE SMOOTH",
"267 669 OFFCURVE",
"309 589 OFFCURVE",
"309 495 CURVE SMOOTH",
"309 395 OFFCURVE",
"266 355 OFFCURVE",
"213 355 CURVE SMOOTH"
);
},
{
closed = 1;
nodes = (
"744 -6 OFFCURVE",
"819 71 OFFCURVE",
"819 188 CURVE SMOOTH",
"819 310 OFFCURVE",
"743 382 OFFCURVE",
"640 382 CURVE SMOOTH",
"537 382 OFFCURVE",
"462 305 OFFCURVE",
"462 188 CURVE SMOOTH",
"462 66 OFFCURVE",
"538 -6 OFFCURVE",
"641 -6 CURVE SMOOTH"
);
},
{
closed = 1;
nodes = (
"575 31 OFFCURVE",
"533 111 OFFCURVE",
"533 205 CURVE SMOOTH",
"533 305 OFFCURVE",
"576 345 OFFCURVE",
"629 345 CURVE SMOOTH",
"706 345 OFFCURVE",
"748 265 OFFCURVE",
"748 171 CURVE SMOOTH",
"748 71 OFFCURVE",
"705 31 OFFCURVE",
"652 31 CURVE SMOOTH"
);
},
{
closed = 1;
nodes = (
"238 0 LINE",
"658 700 LINE",
"603 700 LINE",
"183 0 LINE"
);
},
{
closed = 1;
nodes = (
"1164 -6 OFFCURVE",
"1239 71 OFFCURVE",
"1239 188 CURVE SMOOTH",
"1239 310 OFFCURVE",
"1163 382 OFFCURVE",
"1060 382 CURVE SMOOTH",
"957 382 OFFCURVE",
"882 305 OFFCURVE",
"882 188 CURVE SMOOTH",
"882 66 OFFCURVE",
"958 -6 OFFCURVE",
"1061 -6 CURVE SMOOTH"
);
},
{
closed = 1;
nodes = (
"995 31 OFFCURVE",
"953 111 OFFCURVE",
"953 205 CURVE SMOOTH",
"953 305 OFFCURVE",
"996 345 OFFCURVE",
"1049 345 CURVE SMOOTH",
"1126 345 OFFCURVE",
"1168 265 OFFCURVE",
"1168 171 CURVE SMOOTH",
"1168 71 OFFCURVE",
"1125 31 OFFCURVE",
"1072 31 CURVE SMOOTH"
);
}
);
width = 1262;
}
);
leftKerningGroup = percent;
unicode = 2030;
},
{
color = 6;
glyphname = upArrow;
lastChange = "2023-09-29 09:16:23 +0000";
layers = (
{
layerId = m004;
paths = (
{
closed = 1;
nodes = (
"151 472 OFFCURVE",
"218 522 OFFCURVE",
"311 629 CURVE",
"404 522 OFFCURVE",
"471 472 OFFCURVE",
"577 418 CURVE",
"593 445 LINE",
"470 520 OFFCURVE",
"391 599 OFFCURVE",
"323 710 CURVE",
"299 710 LINE",
"231 599 OFFCURVE",
"152 520 OFFCURVE",
"29 445 CURVE",
"45 418 LINE"
);
},
{
closed = 1;
nodes = (
"330 0 LINE",
"330 662 LINE",
"292 662 LINE",
"292 0 LINE"
);
}
);
width = 622;
}
);
unicode = 2191;
},
{
color = 6;
glyphname = northEastArrow;
lastChange = "2023-09-29 09:16:23 +0000";
layers = (
{
layerId = m004;
paths = (
{
closed = 1;
nodes = (
"570 654 LINE",
"543 681 LINE",
"23 160 LINE",
"49 134 LINE"
);
},
{
closed = 1;
nodes = (
"309 646 OFFCURVE",
"391 634 OFFCURVE",
"533 644 CURVE",
"523 502 OFFCURVE",
"535 420 OFFCURVE",
"572 306 CURVE",
"602 314 LINE",
"568 454 OFFCURVE",
"568 566 OFFCURVE",
"599 693 CURVE",
"582 710 LINE",
"455 679 OFFCURVE",
"343 679 OFFCURVE",
"203 713 CURVE",
"195 683 LINE"
);
}
);
width = 642;
}
);
unicode = 2197;
},
{
color = 6;
glyphname = rightArrow;
lastChange = "2023-09-29 09:16:23 +0000";
layers = (
{
layerId = m004;
paths = (
{
closed = 1;
nodes = (
"667 174 OFFCURVE",
"746 253 OFFCURVE",
"856 320 CURVE",
"856 344 LINE",
"746 411 OFFCURVE",
"667 490 OFFCURVE",
"591 614 CURVE",
"563 598 LINE",
"615 494 OFFCURVE",
"665 427 OFFCURVE",
"774 332 CURVE",
"665 237 OFFCURVE",
"615 170 OFFCURVE",
"563 66 CURVE",
"591 50 LINE"
);
},
{
closed = 1;
nodes = (
"808 313 LINE",
"808 351 LINE",
"50 351 LINE",
"50 313 LINE"
);
}
);
width = 905;
}
);
unicode = 2192;
},
{
color = 6;
glyphname = southEastArrow;
lastChange = "2023-09-29 09:16:23 +0000";
layers = (
{
layerId = m004;
paths = (
{
closed = 1;
nodes = (
"22 550 LINE",
"542 29 LINE",
"569 56 LINE",
"48 576 LINE"
);
},
{
closed = 1;
nodes = (
"202 -3 LINE",
"342 31 OFFCURVE",
"454 31 OFFCURVE",
"581 0 CURVE",
"598 17 LINE",
"567 144 OFFCURVE",
"567 256 OFFCURVE",
"601 396 CURVE",
"571 404 LINE",
"534 290 OFFCURVE",
"522 208 OFFCURVE",
"532 66 CURVE",
"390 76 OFFCURVE",
"308 64 OFFCURVE",
"194 27 CURVE"
);
}
);
width = 643;
}
);
unicode = 2198;
},
{
color = 6;
glyphname = downArrow;
lastChange = "2023-09-29 09:16:23 +0000";
layers = (
{
layerId = m004;
paths = (
{
closed = 1;
nodes = (
"323 -10 LINE",
"391 101 OFFCURVE",
"470 180 OFFCURVE",
"593 255 CURVE",
"577 282 LINE",
"471 228 OFFCURVE",
"404 178 OFFCURVE",
"311 71 CURVE",
"218 178 OFFCURVE",
"151 228 OFFCURVE",
"45 282 CURVE",
"29 255 LINE",
"152 180 OFFCURVE",
"231 101 OFFCURVE",
"299 -10 CURVE"
);
},
{
closed = 1;
nodes = (
"330 38 LINE",
"330 700 LINE",
"292 700 LINE",
"292 38 LINE"
);
}
);
width = 622;
}
);
unicode = 2193;
},
{
color = 6;
glyphname = southWestArrow;
lastChange = "2023-09-29 09:16:23 +0000";
layers = (
{
layerId = m004;
paths = (
{
closed = 1;
nodes = (
"74 56 LINE",
"101 29 LINE",
"621 550 LINE",
"595 576 LINE"
);
},
{
closed = 1;
nodes = (
"335 64 OFFCURVE",
"253 76 OFFCURVE",
"111 66 CURVE",
"121 208 OFFCURVE",
"109 290 OFFCURVE",
"72 404 CURVE",
"42 396 LINE",
"76 256 OFFCURVE",
"76 144 OFFCURVE",
"45 17 CURVE",
"62 0 LINE",
"189 31 OFFCURVE",
"301 31 OFFCURVE",
"441 -3 CURVE",
"449 27 LINE"
);
}
);
width = 643;
}
);
unicode = 2199;
},
{
color = 6;
glyphname = leftArrow;
lastChange = "2023-09-29 09:16:23 +0000";
layers = (
{
layerId = m004;
paths = (
{
closed = 1;
nodes = (
"342 64 LINE",
"290 168 OFFCURVE",
"240 235 OFFCURVE",
"131 330 CURVE",
"240 425 OFFCURVE",
"290 492 OFFCURVE",
"342 596 CURVE",
"314 612 LINE",
"238 488 OFFCURVE",
"159 409 OFFCURVE",
"49 342 CURVE",
"49 318 LINE",
"159 251 OFFCURVE",
"238 172 OFFCURVE",
"314 48 CURVE"
);
},
{
closed = 1;
nodes = (
"855 349 LINE",
"97 349 LINE",
"97 311 LINE",
"855 311 LINE"
);
}
);
width = 904;
}
);
unicode = 2190;
},
{
color = 6;
glyphname = northWestArrow;
lastChange = "2023-09-29 09:16:23 +0000";
layers = (
{
layerId = m004;
paths = (
{
closed = 1;
nodes = (
"619 150 LINE",
"99 671 LINE",
"72 644 LINE",
"593 124 LINE"
);
},
{
closed = 1;
nodes = (
"439 703 LINE",
"299 669 OFFCURVE",
"187 669 OFFCURVE",
"60 700 CURVE",
"43 683 LINE",
"74 556 OFFCURVE",
"74 444 OFFCURVE",
"40 304 CURVE",
"70 296 LINE",
"107 410 OFFCURVE",
"119 492 OFFCURVE",
"109 634 CURVE",
"251 624 OFFCURVE",
"333 636 OFFCURVE",
"447 673 CURVE"
);
}
);
width = 643;
}
);
unicode = 2196;
},
{
color = 6;
glyphname = whiteUpperLeftQuadrantSquare;
lastChange = "2023-09-29 09:16:23 +0000";
layers = (
{
layerId = m004;
paths = (
{
closed = 1;
nodes = (
"3089 -257 OFFCURVE",
"3180 -150 OFFCURVE",
"3180 -9 CURVE",
"3180 521 LINE",
"3071 521 LINE",
"3071 445 LINE",
"3039 490 OFFCURVE",
"2976 529 OFFCURVE",
"2891 529 CURVE SMOOTH",
"2754 529 OFFCURVE",
"2645 423 OFFCURVE",
"2646 262 CURVE SMOOTH",
"2646 101 OFFCURVE",
"2755 -9 OFFCURVE",
"2891 -9 CURVE SMOOTH",
"2976 -9 OFFCURVE",
"3039 33 OFFCURVE",
"3072 77 CURVE",
"3072 -9 LINE",
"3072 -113 OFFCURVE",
"3009 -164 OFFCURVE",
"2926 -164 CURVE SMOOTH",
"2851 -164 OFFCURVE",
"2794 -127 OFFCURVE",
"2778 -73 CURVE",
"2671 -73 LINE",
"2684 -189 OFFCURVE",
"2787 -257 OFFCURVE",
"2926 -257 CURVE SMOOTH"
);
},
{
closed = 1;
nodes = (
"198 0 LINE",
"198 306 LINE",
"541 306 LINE",
"541 0 LINE",
"649 0 LINE",
"649 700 LINE",
"541 700 LINE",
"541 394 LINE",
"198 394 LINE",
"198 700 LINE",
"90 700 LINE",
"90 0 LINE"
);
},
{
closed = 1;
nodes = (
"1104 -8 OFFCURVE",
"1186 65 OFFCURVE",
"1216 155 CURVE",
"1100 155 LINE",
"1079 114 OFFCURVE",
"1043 82 OFFCURVE",
"977 82 CURVE SMOOTH",
"897 82 OFFCURVE",
"836 134 OFFCURVE",
"828 220 CURVE",
"1226 220 LINE",
"1229 238 OFFCURVE",
"1230 255 OFFCURVE",
"1230 273 CURVE SMOOTH",
"1230 427 OFFCURVE",
"1125 530 OFFCURVE",
"977 530 CURVE SMOOTH",
"822 530 OFFCURVE",
"717 425 OFFCURVE",
"717 261 CURVE SMOOTH",
"717 98 OFFCURVE",
"827 -8 OFFCURVE",
"977 -8 CURVE SMOOTH"
);
},
{
closed = 1;
nodes = (
"840 390 OFFCURVE",
"899 439 OFFCURVE",
"971 440 CURVE SMOOTH",
"1052 440 OFFCURVE",
"1115 388 OFFCURVE",
"1117 308 CURVE",
"829 308 LINE"
);
},
{
closed = 1;
nodes = (
"1480 86 OFFCURVE",
"1402 151 OFFCURVE",
"1402 264 CURVE SMOOTH",
"1402 376 OFFCURVE",
"1480 437 OFFCURVE",
"1560 437 CURVE SMOOTH",
"1641 437 OFFCURVE",
"1718 373 OFFCURVE",
"1718 262 CURVE SMOOTH",
"1718 150 OFFCURVE",
"1641 86 OFFCURVE",
"1560 86 CURVE SMOOTH"
);
},
{
closed = 1;
nodes = (
"1622 -8 OFFCURVE",
"1685 32 OFFCURVE",
"1718 79 CURVE",
"1718 1 LINE",
"1826 1 LINE",
"1826 700 LINE",
"1718 700 LINE",
"1718 448 LINE",
"1678 497 OFFCURVE",
"1606 530 OFFCURVE",
"1538 530 CURVE SMOOTH",
"1400 530 OFFCURVE",
"1291 424 OFFCURVE",
"1291 264 CURVE SMOOTH",
"1291 103 OFFCURVE",
"1400 -8 OFFCURVE",
"1537 -8 CURVE SMOOTH"
);
},
{
closed = 1;
nodes = (
"2209 0 LINE",
"2407 520 LINE",
"2293 520 LINE",
"2146 96 LINE",
"1998 520 LINE",
"1883 520 LINE",
"2080 0 LINE"
);
},
{
closed = 1;
nodes = (
"2581 0 LINE",
"2581 520 LINE",
"2473 520 LINE",
"2473 0 LINE"
);
},
{
closed = 1;
nodes = (
"2562 584 OFFCURVE",
"2590 612 OFFCURVE",
"2590 646 CURVE SMOOTH",
"2590 681 OFFCURVE",
"2562 708 OFFCURVE",
"2527 708 CURVE SMOOTH",
"2492 708 OFFCURVE",
"2465 682 OFFCURVE",
"2465 646 CURVE SMOOTH",
"2465 611 OFFCURVE",
"2492 584 OFFCURVE",
"2527 584 CURVE SMOOTH"
);
},
{
closed = 1;
nodes = (
"2833 86 OFFCURVE",
"2756 151 OFFCURVE",
"2756 263 CURVE SMOOTH",
"2756 376 OFFCURVE",
"2833 436 OFFCURVE",
"2914 436 CURVE SMOOTH",
"2995 436 OFFCURVE",
"3072 373 OFFCURVE",
"3071 261 CURVE SMOOTH",
"3071 149 OFFCURVE",
"2995 86 OFFCURVE",
"2914 86 CURVE SMOOTH"
);
},
{
closed = 1;
nodes = (
"3449 260 OFFCURVE",
"3509 320 OFFCURVE",
"3509 395 CURVE SMOOTH",
"3509 469 OFFCURVE",
"3449 529 OFFCURVE",
"3375 529 CURVE SMOOTH",
"3301 529 OFFCURVE",
"3241 469 OFFCURVE",
"3241 395 CURVE SMOOTH",
"3241 320 OFFCURVE",
"3301 260 OFFCURVE",
"3375 260 CURVE SMOOTH"
);
},
{
closed = 1;
nodes = (
"3311 278 OFFCURVE",
"3259 331 OFFCURVE",
"3259 395 CURVE SMOOTH",
"3259 459 OFFCURVE",
"3311 511 OFFCURVE",
"3375 511 CURVE SMOOTH",
"3439 511 OFFCURVE",
"3491 459 OFFCURVE",
"3491 395 CURVE SMOOTH",
"3491 331 OFFCURVE",
"3439 278 OFFCURVE",
"3375 278 CURVE SMOOTH"
);
},
{
closed = 1;
nodes = (
"3335 321 LINE",
"3335 386 LINE",
"3415 386 LINE",
"3415 321 LINE",
"3433 321 LINE",
"3433 468 LINE",
"3415 468 LINE",
"3415 404 LINE",
"3335 404 LINE",
"3335 468 LINE",
"3317 468 LINE",
"3317 321 LINE"
);
}
);
width = 3509;
}
);
unicode = 25F0;
},
{
color = 6;
glyphname = dieresiscomb;
lastChange = "2023-09-29 09:16:23 +0000";
layers = (
{
anchors = (
{
name = _top;
position = "{281, 520}";
},
{
name = top;
position = "{281, 700}";
}
);
layerId = m004;
paths = (
{
closed = 1;
nodes = (
"412 594 OFFCURVE",
"437 617 OFFCURVE",
"437 651 CURVE SMOOTH",
"437 684 OFFCURVE",
"412 707 OFFCURVE",
"381 707 CURVE SMOOTH",
"349 707 OFFCURVE",
"324 684 OFFCURVE",
"324 651 CURVE SMOOTH",
"324 617 OFFCURVE",
"349 594 OFFCURVE",
"381 594 CURVE SMOOTH"
);
},
{
closed = 1;
nodes = (
"213 594 OFFCURVE",
"238 617 OFFCURVE",
"238 651 CURVE SMOOTH",
"238 684 OFFCURVE",
"213 707 OFFCURVE",
"182 707 CURVE SMOOTH",
"150 707 OFFCURVE",
"125 684 OFFCURVE",
"125 651 CURVE SMOOTH",
"125 617 OFFCURVE",
"150 594 OFFCURVE",
"182 594 CURVE SMOOTH"
);
}
);
width = 0;
}
);
unicode = 0308;
},
{
color = 6;
glyphname = dotaccentcomb;
lastChange = "2023-09-29 09:16:23 +0000";
layers = (
{
anchors = (
{
name = _top;
position = "{104, 520}";
},
{
name = top;
position = "{104, 700}";
}
);
layerId = m004;
paths = (
{
closed = 1;
nodes = (
"136 603 OFFCURVE",
"162 627 OFFCURVE",
"162 662 CURVE SMOOTH",
"162 696 OFFCURVE",
"136 720 OFFCURVE",
"104 720 CURVE SMOOTH",
"71 720 OFFCURVE",
"45 696 OFFCURVE",
"45 662 CURVE SMOOTH",
"45 627 OFFCURVE",
"71 603 OFFCURVE",
"104 603 CURVE SMOOTH"
);
}
);
width = 0;
}
);
unicode = 0307;
},
{
color = 6;
glyphname = gravecomb;
lastChange = "2023-09-29 09:16:23 +0000";
layers = (
{
anchors = (
{
name = _top;
position = "{298, 520}";
},
{
name = top;
position = "{298, 700}";
}
);
layerId = m004;
paths = (
{
closed = 1;
nodes = (
"383 588 LINE",
"299 688 LINE SMOOTH",
"286 703 OFFCURVE",
"275 716 OFFCURVE",
"261 728 CURVE SMOOTH",
"243 744 OFFCURVE",
"218 741 OFFCURVE",
"203 723 CURVE SMOOTH",
"187 704 OFFCURVE",
"189 680 OFFCURVE",
"208 664 CURVE SMOOTH",
"222 652 OFFCURVE",
"236 644 OFFCURVE",
"254 634 CURVE SMOOTH",
"367 568 LINE"
);
}
);
width = 0;
}
);
unicode = 0300;
},
{
color = 6;
glyphname = acutecomb;
lastChange = "2023-09-29 09:16:23 +0000";
layers = (
{
anchors = (
{
name = _top;
position = "{300, 520}";
},
{
name = top;
position = "{300, 700}";
}
);
layerId = m004;
paths = (
{
closed = 1;
nodes = (
"334 634 LINE SMOOTH",
"352 644 OFFCURVE",
"366 652 OFFCURVE",
"380 664 CURVE SMOOTH",
"390 673 OFFCURVE",
"396 684 OFFCURVE",
"396 695 CURVE SMOOTH",
"396 718 OFFCURVE",
"378 737 OFFCURVE",
"356 737 CURVE SMOOTH",
"339 737 OFFCURVE",
"321 726 OFFCURVE",
"289 688 CURVE SMOOTH",
"205 588 LINE",
"221 568 LINE"
);
}
);
width = 0;
}
);
unicode = 0301;
},
{
color = 6;
glyphname = hungarumlautcomb;
lastChange = "2023-09-29 09:16:23 +0000";
layers = (
{
anchors = (
{
name = _top;
position = "{213, 520}";
},
{
name = top;
position = "{213, 700}";
}
);
layerId = m004;
paths = (
{
closed = 1;
nodes = (
"354 634 LINE SMOOTH",
"372 644 OFFCURVE",
"386 652 OFFCURVE",
"400 664 CURVE SMOOTH",
"419 680 OFFCURVE",
"421 704 OFFCURVE",
"405 723 CURVE SMOOTH",
"390 741 OFFCURVE",
"365 744 OFFCURVE",
"347 728 CURVE SMOOTH",
"333 716 OFFCURVE",
"322 703 OFFCURVE",
"309 688 CURVE SMOOTH",
"225 588 LINE",
"241 568 LINE"
);
},
{
closed = 1;
nodes = (
"174 634 LINE SMOOTH",
"192 644 OFFCURVE",
"206 652 OFFCURVE",
"220 664 CURVE SMOOTH",
"239 680 OFFCURVE",
"241 704 OFFCURVE",
"225 723 CURVE SMOOTH",
"210 741 OFFCURVE",
"185 744 OFFCURVE",
"167 728 CURVE SMOOTH",
"153 716 OFFCURVE",
"142 703 OFFCURVE",
"129 688 CURVE SMOOTH",
"45 588 LINE",
"61 568 LINE"
);
}
);
width = 0;
}
);
unicode = 030B;
},
{
color = 6;
glyphname = circumflexcomb;
lastChange = "2023-09-29 09:16:23 +0000";
layers = (
{
anchors = (
{
name = _top;
position = "{289, 520}";
},
{
name = top;
position = "{289, 700}";
}
);
guideLines = (
{
angle = 90;
position = "{280, 642}";
}
);
layerId = m004;
paths = (
{
closed = 1;
nodes = (
"288 662 LINE",
"290 662 LINE",
"416 591 LINE",
"430 604 LINE",
"318 734 LINE",
"260 734 LINE",
"148 604 LINE",
"162 591 LINE"
);
}
);
width = 0;
}
);
unicode = 0302;
},
{
color = 6;
glyphname = caroncomb;
lastChange = "2023-09-29 09:16:23 +0000";
layers = (
{
anchors = (
{
name = _top;
position = "{289, 520}";
},
{
name = top;
position = "{289, 700}";
}
);
layerId = m004;
paths = (
{
closed = 1;
nodes = (
"318 591 LINE",
"430 721 LINE",
"416 734 LINE",
"290 663 LINE",
"288 663 LINE",
"162 734 LINE",
"148 721 LINE",
"260 591 LINE"
);
}
);
width = 0;
}
);
unicode = 030C;
},
{
color = 6;
glyphname = brevecomb;
lastChange = "2023-09-29 09:16:23 +0000";
layers = (
{
anchors = (
{
name = _top;
position = "{285, 520}";
},
{
name = top;
position = "{285, 700}";
}
);
layerId = m004;
paths = (
{
closed = 1;
nodes = (
"388 598 OFFCURVE",
"425 652 OFFCURVE",
"421 720 CURVE",
"393 720 LINE",
"387 689 OFFCURVE",
"357 662 OFFCURVE",
"285 662 CURVE SMOOTH",
"214 662 OFFCURVE",
"184 689 OFFCURVE",
"178 720 CURVE",
"149 720 LINE",
"145 652 OFFCURVE",
"182 598 OFFCURVE",
"285 598 CURVE SMOOTH"
);
}
);
width = 0;
}
);
unicode = 0306;
},
{
color = 6;
glyphname = ringcomb;
lastChange = "2023-09-29 09:16:23 +0000";
layers = (
{
anchors = (
{
name = _top;
position = "{244, 520}";
},
{
name = top;
position = "{244, 700}";
}
);
guideLines = (
{
angle = 90;
position = "{235, 520}";
}
);
layerId = m004;
paths = (
{
closed = 1;
nodes = (
"306 575 OFFCURVE",
"349 617 OFFCURVE",
"349 677 CURVE SMOOTH",
"349 735 OFFCURVE",
"305 777 OFFCURVE",
"244 777 CURVE SMOOTH",
"183 777 OFFCURVE",
"140 735 OFFCURVE",
"140 677 CURVE SMOOTH",
"140 617 OFFCURVE",
"183 575 OFFCURVE",
"244 575 CURVE SMOOTH"
);
},
{
closed = 1;
nodes = (
"215 603 OFFCURVE",
"194 634 OFFCURVE",
"194 686 CURVE SMOOTH",
"194 727 OFFCURVE",
"213 749 OFFCURVE",
"241 749 CURVE SMOOTH",
"274 749 OFFCURVE",
"295 717 OFFCURVE",
"295 665 CURVE SMOOTH",
"295 624 OFFCURVE",
"276 603 OFFCURVE",
"248 603 CURVE SMOOTH"
);
}
);
width = 0;
}
);
unicode = 030A;
},
{
color = 6;
glyphname = tildecomb;
lastChange = "2023-09-29 09:16:23 +0000";
layers = (
{
anchors = (
{
name = _top;
position = "{178, 520}";
},
{
name = top;
position = "{178, 700}";
}
);
layerId = m004;
paths = (
{
closed = 1;
nodes = (
"37 645 OFFCURVE",
"58 666 OFFCURVE",
"100 666 CURVE SMOOTH",
"116 666 OFFCURVE",
"131 661 OFFCURVE",
"156 650 CURVE SMOOTH",
"178 640 LINE SMOOTH",
"194 633 OFFCURVE",
"220 622 OFFCURVE",
"248 622 CURVE SMOOTH",
"288 622 OFFCURVE",
"332 647 OFFCURVE",
"357 726 CURVE",
"333 731 LINE",
"319 704 OFFCURVE",
"298 683 OFFCURVE",
"256 683 CURVE SMOOTH",
"240 683 OFFCURVE",
"225 688 OFFCURVE",
"200 699 CURVE SMOOTH",
"178 709 LINE SMOOTH",
"162 716 OFFCURVE",
"136 727 OFFCURVE",
"108 727 CURVE SMOOTH",
"68 727 OFFCURVE",
"24 702 OFFCURVE",
"-1 623 CURVE",
"23 618 LINE"
);
}
);
width = 0;
}
);
unicode = 0303;
},
{
color = 6;
glyphname = macroncomb;
lastChange = "2023-09-29 09:16:23 +0000";
layers = (
{
anchors = (
{
name = _top;
position = "{314, 520}";
},
{
name = top;
position = "{314, 700}";
}
);
layerId = m004;
paths = (
{
closed = 1;
nodes = (
"453 648 LINE",
"453 702 LINE",
"175 702 LINE",
"175 648 LINE"
);
}
);
width = 0;
}
);
unicode = 0304;
},
{
color = 6;
glyphname = commaturnedabovecomb;
lastChange = "2023-09-29 09:16:23 +0000";
layers = (
{
anchors = (
{
name = _top;
position = "{227, 520}";
},
{
name = top;
position = "{227, 700}";
}
);
layerId = m004;
paths = (
{
closed = 1;
nodes = (
"265 594 OFFCURVE",
"290 618 OFFCURVE",
"290 650 CURVE SMOOTH",
"290 682 OFFCURVE",
"266 704 OFFCURVE",
"236 704 CURVE SMOOTH",
"205 704 OFFCURVE",
"182 681 OFFCURVE",
"182 649 CURVE",
"205 681 LINE",
"205 722 OFFCURVE",
"229 752 OFFCURVE",
"286 786 CURVE",
"269 810 LINE",
"201 774 OFFCURVE",
"163 733 OFFCURVE",
"163 672 CURVE SMOOTH",
"163 632 OFFCURVE",
"186 594 OFFCURVE",
"231 594 CURVE SMOOTH"
);
}
);
width = 0;
}
);
unicode = 0312;
},
{
color = 6;
glyphname = commaaccentcomb;
lastChange = "2023-09-29 09:16:23 +0000";
layers = (
{
anchors = (
{
name = _bottom;
position = "{227, 0}";
}
);
layerId = m004;
paths = (
{
closed = 1;
nodes = (
"252 -221 OFFCURVE",
"290 -180 OFFCURVE",
"290 -119 CURVE SMOOTH",
"290 -79 OFFCURVE",
"267 -41 OFFCURVE",
"222 -41 CURVE SMOOTH",
"188 -41 OFFCURVE",
"163 -65 OFFCURVE",
"163 -97 CURVE SMOOTH",
"163 -129 OFFCURVE",
"187 -151 OFFCURVE",
"217 -151 CURVE SMOOTH",
"248 -151 OFFCURVE",
"271 -128 OFFCURVE",
"271 -96 CURVE",
"248 -128 LINE",
"248 -169 OFFCURVE",
"224 -199 OFFCURVE",
"167 -233 CURVE",
"184 -257 LINE"
);
}
);
width = 0;
}
);
unicode = 0326;
},
{
color = 6;
glyphname = cedillacomb;
lastChange = "2023-09-29 09:16:23 +0000";
layers = (
{
anchors = (
{
name = _bottom;
position = "{329, 0}";
}
);
layerId = m004;
paths = (
{
closed = 1;
nodes = (
"383 -257 OFFCURVE",
"446 -209 OFFCURVE",
"446 -152 CURVE SMOOTH",
"446 -99 OFFCURVE",
"408 -73 OFFCURVE",
"338 -65 CURVE",
"392 1 LINE",
"363 9 LINE",
"271 -105 LINE",
"272 -107 LINE",
"341 -105 OFFCURVE",
"385 -127 OFFCURVE",
"385 -175 CURVE SMOOTH",
"385 -211 OFFCURVE",
"357 -220 OFFCURVE",
"338 -220 CURVE SMOOTH",
"329 -220 OFFCURVE",
"320 -212 OFFCURVE",
"301 -202 CURVE SMOOTH",
"280 -191 LINE SMOOTH",
"259 -180 OFFCURVE",
"236 -198 OFFCURVE",
"236 -219 CURVE SMOOTH",
"236 -242 OFFCURVE",
"268 -257 OFFCURVE",
"309 -257 CURVE SMOOTH"
);
}
);
width = 0;
}
);
unicode = 0327;
},
{
color = 6;
glyphname = ogonekcomb;
lastChange = "2023-09-29 09:16:23 +0000";
layers = (
{
anchors = (
{
name = _ogonek;
position = "{222, 0}";
}
);
layerId = m004;
paths = (
{
closed = 1;
nodes = (
"210 -257 OFFCURVE",
"241 -225 OFFCURVE",
"260 -206 CURVE",
"250 -194 LINE",
"239 -200 OFFCURVE",
"215 -211 OFFCURVE",
"184 -211 CURVE SMOOTH",
"140 -211 OFFCURVE",
"117 -188 OFFCURVE",
"117 -143 CURVE SMOOTH",
"117 -65 OFFCURVE",
"196 -9 OFFCURVE",
"222 0 CURVE",
"184 0 LINE",
"129 -22 OFFCURVE",
"48 -83 OFFCURVE",
"48 -161 CURVE SMOOTH",
"48 -224 OFFCURVE",
"94 -257 OFFCURVE",
"147 -257 CURVE SMOOTH"
);
}
);
width = 0;
}
);
unicode = 0328;
},
